<?xml version="1.0" encoding="iso-8859-1"?>
<!-- Generator: Adobe Illustrator 29.6.1, SVG Export Plug-In . SVG Version: 9.03 Build 0)  -->
<svg version="1.1" id="Layer_1" xmlns="http://www.w3.org/2000/svg" xmlns:xlink="http://www.w3.org/1999/xlink" x="0px" y="0px"
	 width="729.188px" height="297.175px" viewBox="0 0 729.188 297.175" enable-background="new 0 0 729.188 297.175"
	 xml:space="preserve">
<g>
	
		<image overflow="visible" opacity="0.5" enable-background="new    " width="349" height="780" xlink:href="D468ECFB5F6F2256.png"  transform="matrix(0.2404 0 0 0.2404 81.8843 51.5913)">
	</image>
	<g>
		
			<linearGradient id="SVGID_1_" gradientUnits="userSpaceOnUse" x1="123.8145" y1="279.228" x2="123.8145" y2="63.7828" gradientTransform="matrix(1 0 0 -1 0 298)">
			<stop  offset="0" style="stop-color:#FFD684"/>
			<stop  offset="0.4769" style="stop-color:#FFD140"/>
			<stop  offset="0.5632" style="stop-color:#F3C542"/>
			<stop  offset="0.7072" style="stop-color:#DAAA43"/>
			<stop  offset="0.89" style="stop-color:#B88542"/>
			<stop  offset="0.9893" style="stop-color:#A57240"/>
		</linearGradient>
		<path fill="url(#SVGID_1_)" d="M134.4,205.607c-5.092,4.557-8.04,7.505-14.472,7.505c-7.236,0-13.132-3.484-17.152-9.917
			c-4.02-6.164-5.896-15.008-5.896-26.265c0-26.8,2.412-35.108,18.492-50.921c7.772-8.576,13.937-15.544,13.937-27.604
			c0-20.368-2.68-29.212-6.968-29.212c-8.844,0-8.04,29.748-8.04,41.809H99.292c0-13.669-3.216-51.189,23.048-51.189
			c21.977,0,21.977,25.192,21.977,38.593v88.71c0,11.256,6.432,21.173,6.432,21.173l-12.328,8.576
			C138.42,216.864,136.276,213.915,134.4,205.607z M129.04,186.042l-0.268-40.2v-16.616c-17.42,19.563-17.152,26.8-17.152,47.704
			c0,16.617,3.752,25.193,9.112,25.193C127.164,202.124,129.04,191.403,129.04,186.042z"/>
	</g>
</g>
<g>
	
		<image overflow="visible" opacity="0.5" enable-background="new    " width="362" height="771" xlink:href="D468ECFB5F6F225A.png"  transform="matrix(0.2403 0 0 0.2403 130.9829 51.6377)">
	</image>
	<g>
		
			<linearGradient id="SVGID_00000098912597526373187500000007257077810093313431_" gradientUnits="userSpaceOnUse" x1="174.447" y1="279.228" x2="174.447" y2="63.7828" gradientTransform="matrix(1 0 0 -1 0 298)">
			<stop  offset="0" style="stop-color:#FFD684"/>
			<stop  offset="0.4769" style="stop-color:#FFD140"/>
			<stop  offset="0.5632" style="stop-color:#F3C542"/>
			<stop  offset="0.7072" style="stop-color:#DAAA43"/>
			<stop  offset="0.89" style="stop-color:#B88542"/>
			<stop  offset="0.9893" style="stop-color:#A57240"/>
		</linearGradient>
		<path fill="url(#SVGID_00000098912597526373187500000007257077810093313431_)" d="M181.013,184.971V98.673
			c0-23.585-1.34-27.337-6.7-27.337c-6.968,0-6.7,13.4-6.7,20.637v118.994h-15.008V89.561c0-10.988-6.432-20.904-6.432-21.173
			l12.328-8.575c0,0.268,1.34,2.144,2.948,5.092c2.68-2.681,7.772-5.092,12.864-5.093c21.976,0,21.708,24.389,21.708,38.861v86.298
			c0,11.256,6.433,21.172,6.7,21.172l-12.596,8.576C189.857,214.183,181.013,205.339,181.013,184.971z"/>
	</g>
</g>
<g>
	
		<image overflow="visible" opacity="0.5" enable-background="new    " width="316" height="769" xlink:href="D468ECFB5F6F225B.png"  transform="matrix(0.2405 0 0 0.2405 186.8722 51.5488)">
	</image>
	<g>
		
			<linearGradient id="SVGID_00000108294561061695948480000000747315614087179453_" gradientUnits="userSpaceOnUse" x1="224.7799" y1="279.228" x2="224.7799" y2="63.7828" gradientTransform="matrix(1 0 0 -1 0 298)">
			<stop  offset="0" style="stop-color:#FFD684"/>
			<stop  offset="0.4769" style="stop-color:#FFD140"/>
			<stop  offset="0.5632" style="stop-color:#F3C542"/>
			<stop  offset="0.7072" style="stop-color:#DAAA43"/>
			<stop  offset="0.89" style="stop-color:#B88542"/>
			<stop  offset="0.9893" style="stop-color:#A57240"/>
		</linearGradient>
		<path fill="url(#SVGID_00000108294561061695948480000000747315614087179453_)" d="M204.676,179.342
			c-2.68-17.152-2.948-36.448-2.948-43.952c0-37.521,1.876-75.578,22.78-75.578c6.165,0,14.205,2.681,17.957,16.349
			c2.412,8.04,5.092,17.956,5.092,36.448h-15.008c0-16.884-1.34-42.881-7.772-42.881c-8.576,0-7.772,56.817-7.772,65.662
			c0,6.164,0.268,66.733,8.308,66.733c4.02,0,7.772-16.081,7.504-48.51v-1.34h15.008v1.072c0.268,40.201-7.504,51.457-12.061,56.281
			c-2.412,2.412-6.7,4.556-10.452,4.556C211.108,214.183,206.82,194.351,204.676,179.342z"/>
	</g>
</g>
<g>
	
		<image overflow="visible" opacity="0.5" enable-background="new    " width="190" height="747" xlink:href="D468ECFB5F6F225C.png"  transform="matrix(0.24 0 0 0.24 238.0691 53.776)">
	</image>
	<g>
		
			<linearGradient id="SVGID_00000115508361883623353550000010032610448171625878_" gradientUnits="userSpaceOnUse" x1="260.873" y1="279.228" x2="260.873" y2="63.7828" gradientTransform="matrix(1 0 0 -1 0 298)">
			<stop  offset="0" style="stop-color:#FFD684"/>
			<stop  offset="0.4769" style="stop-color:#FFD140"/>
			<stop  offset="0.5632" style="stop-color:#F3C542"/>
			<stop  offset="0.7072" style="stop-color:#DAAA43"/>
			<stop  offset="0.89" style="stop-color:#B88542"/>
			<stop  offset="0.9893" style="stop-color:#A57240"/>
		</linearGradient>
		<path fill="url(#SVGID_00000115508361883623353550000010032610448171625878_)" d="M253.369,211.003l-0.268-149.047h15.544v149.047
			H253.369z"/>
	</g>
</g>
<g>
	<g>
		
			<image overflow="visible" opacity="0.5" enable-background="new    " width="192" height="251" xlink:href="D468ECFB5F6F225D.png"  transform="matrix(0.2405 0 0 0.2405 409.9847 15.798)">
		</image>
		<g>
			<polygon fill="#FFD684" points="438.279,53.916 441.227,23.9 425.147,23.9 427.827,53.916 			"/>
		</g>
	</g>
	<g>
		
			<image overflow="visible" opacity="0.5" enable-background="new    " width="355" height="903" xlink:href="D468ECFB5F6F2258.png"  transform="matrix(0.2402 0 0 0.2402 377.9569 22.7341)">
		</image>
		<g>
			
				<linearGradient id="SVGID_00000093138551575492702510000003074509193360891316_" gradientUnits="userSpaceOnUse" x1="420.591" y1="272.0756" x2="420.591" y2="64.3885" gradientTransform="matrix(1 0 0 -1 0 298)">
				<stop  offset="0" style="stop-color:#FFD684"/>
				<stop  offset="0.4769" style="stop-color:#FFD140"/>
				<stop  offset="0.5632" style="stop-color:#F3C542"/>
				<stop  offset="0.7072" style="stop-color:#DAAA43"/>
				<stop  offset="0.89" style="stop-color:#B88542"/>
				<stop  offset="0.9893" style="stop-color:#A57240"/>
			</linearGradient>
			<path fill="url(#SVGID_00000093138551575492702510000003074509193360891316_)" d="M441.495,187.918V61.956h-12.596h-2.949
				h-10.451V30.868h-15.276v31.089h-7.236v13.668h7.236l0.269,111.49c0,16.08,8.844,29.213,9.111,29.749l12.597-8.576
				c0,0-6.7-9.917-6.7-20.904V75.624h10.48l0.239,112.294c0,15.812,8.844,28.945,9.112,29.48l12.864-8.576
				C447.927,208.823,441.495,198.907,441.495,187.918z"/>
		</g>
	</g>
</g>
<g>
	
		<image overflow="visible" opacity="0.5" enable-background="new    " width="222" height="927" xlink:href="D468ECFB5F6F2259.png"  transform="matrix(0.2397 0 0 0.2397 436.2228 15.1566)">
	</image>
	<g>
		
			<linearGradient id="SVGID_00000045595661343986220970000002549230256120720060_" gradientUnits="userSpaceOnUse" x1="462.8585" y1="279.228" x2="462.8585" y2="63.7828" gradientTransform="matrix(1 0 0 -1 0 298)">
			<stop  offset="0" style="stop-color:#FFD684"/>
			<stop  offset="0.4769" style="stop-color:#FFD140"/>
			<stop  offset="0.5632" style="stop-color:#F3C542"/>
			<stop  offset="0.7072" style="stop-color:#DAAA43"/>
			<stop  offset="0.89" style="stop-color:#B88542"/>
			<stop  offset="0.9893" style="stop-color:#A57240"/>
		</linearGradient>
		<path fill="url(#SVGID_00000045595661343986220970000002549230256120720060_)" d="M451.639,185.506L451.37,23.364h15.009v162.143
			c0,11.257,7.7,22.173,7.968,22.173l-13.328,7.576C461.019,215.255,451.639,201.587,451.639,185.506z"/>
	</g>
</g>
<g>
	
		<image overflow="visible" opacity="0.5" enable-background="new    " width="335" height="765" xlink:href="D468ECFB5F6F2248.png"  transform="matrix(0.2399 0 0 0.2399 549.2484 53.82)">
	</image>
	<g>
		
			<linearGradient id="SVGID_00000080182487043477093280000016522726196945059204_" gradientUnits="userSpaceOnUse" x1="589.4649" y1="279.228" x2="589.4649" y2="63.7828" gradientTransform="matrix(1 0 0 -1 0 298)">
			<stop  offset="0" style="stop-color:#FFD684"/>
			<stop  offset="0.4769" style="stop-color:#FFD140"/>
			<stop  offset="0.5632" style="stop-color:#F3C542"/>
			<stop  offset="0.7072" style="stop-color:#DAAA43"/>
			<stop  offset="0.89" style="stop-color:#B88542"/>
			<stop  offset="0.9893" style="stop-color:#A57240"/>
		</linearGradient>
		<path fill="url(#SVGID_00000080182487043477093280000016522726196945059204_)" d="M598.846,208.288
			c-3.484,3.216-7.772,4.824-12.597,4.824c-21.977,0-21.708-24.389-21.708-38.861V61.957h15.008V174.25
			c0,23.585,2.145,27.604,6.433,27.604c5.628,0,6.164-13.937,6.164-20.904l-0.268-118.994h14.74v121.406
			c0,14.473,5.359,18.761,7.771,22.513l-10.72,9.38C603.67,214.988,600.186,211.235,598.846,208.288z"/>
	</g>
</g>
<g>
	
		<image overflow="visible" opacity="0.5" enable-background="new    " width="319" height="765" xlink:href="D468ECFB5F6F2249.png"  transform="matrix(0.2404 0 0 0.2404 597.8887 51.5911)">
	</image>
	<g>
		
			<linearGradient id="SVGID_00000121981149292658688530000001752121337076657301_" gradientUnits="userSpaceOnUse" x1="636.2292" y1="279.228" x2="636.2292" y2="63.7828" gradientTransform="matrix(1 0 0 -1 0 298)">
			<stop  offset="0" style="stop-color:#FFD684"/>
			<stop  offset="0.4769" style="stop-color:#FFD140"/>
			<stop  offset="0.5632" style="stop-color:#F3C542"/>
			<stop  offset="0.7072" style="stop-color:#DAAA43"/>
			<stop  offset="0.89" style="stop-color:#B88542"/>
			<stop  offset="0.9893" style="stop-color:#A57240"/>
		</linearGradient>
		<path fill="url(#SVGID_00000121981149292658688530000001752121337076657301_)" d="M613.447,154.686h15.276
			c0,40.469,2.68,47.705,8.576,47.705c6.164,0,7.236-21.44,7.236-31.356c0-17.688-6.7-24.656-14.473-32.697
			c-5.36-5.628-10.185-11.256-13.668-20.1c-6.433-16.885-3.217-41.541,3.752-50.653c3.484-5.092,8.576-7.772,13.937-7.772
			c7.504,0,17.152,3.216,20.904,18.761c2.144,8.844,2.144,22.78,2.144,37.789h-15.008c0-32.965-0.805-46.365-6.969-46.365
			c-6.968,0-8.844,32.696-4.556,45.561c1.876,5.628,5.896,7.504,10.452,12.328c8.309,8.576,18.492,19.297,18.492,43.149
			c0,12.06-1.34,21.172-3.752,27.872c-4.824,12.864-13.937,14.473-18.761,14.473C616.396,213.379,613.447,186.311,613.447,154.686z"
			/>
	</g>
</g>
<g>
	
		<image overflow="visible" opacity="0.5" enable-background="new    " width="354" height="926" xlink:href="B32A4054CB0FF5EE.png"  transform="matrix(0.2397 0 0 0.2397 649.3644 15.1607)">
	</image>
	<g>
		
			<linearGradient id="SVGID_00000078765531076624070370000006446416344910339511_" gradientUnits="userSpaceOnUse" x1="691.8076" y1="279.228" x2="691.8076" y2="63.7828" gradientTransform="matrix(1 0 0 -1 0 298)">
			<stop  offset="0" style="stop-color:#FFD684"/>
			<stop  offset="0.4769" style="stop-color:#FFD140"/>
			<stop  offset="0.5632" style="stop-color:#F3C542"/>
			<stop  offset="0.7072" style="stop-color:#DAAA43"/>
			<stop  offset="0.89" style="stop-color:#B88542"/>
			<stop  offset="0.9893" style="stop-color:#A57240"/>
		</linearGradient>
		<path fill="url(#SVGID_00000078765531076624070370000006446416344910339511_)" d="M692.478,188.723l-11.257-50.386l-1.607,2.948
			v69.146h-15.009V23.364h15.009v87.369l9.647-19.564c4.557-8.844,5.093-20.368,5.093-29.212h14.74
			c0,9.916-0.269,24.389-6.433,36.181l-10.72,21.708c0,0,12.328,54.941,15.008,65.126c2.948,10.72,11.792,18.492,12.061,18.492
			l-9.916,11.524C707.218,213.379,696.497,204.267,692.478,188.723z"/>
	</g>
</g>
<g>
	
		<image overflow="visible" opacity="0.5" enable-background="new    " width="589" height="989" xlink:href="B32A4054CB0FF5EA.png"  transform="matrix(0.2402 0 0 0.2402 256.7262 26.7904)">
	</image>
	<g>
		
			<linearGradient id="SVGID_00000095333225456015652860000015752978703456519058_" gradientUnits="userSpaceOnUse" x1="327.522" y1="279.228" x2="327.522" y2="63.7828" gradientTransform="matrix(1 0 0 -1 0 298)">
			<stop  offset="0" style="stop-color:#FFD684"/>
			<stop  offset="0.4769" style="stop-color:#FFD140"/>
			<stop  offset="0.5632" style="stop-color:#F3C542"/>
			<stop  offset="0.7072" style="stop-color:#DAAA43"/>
			<stop  offset="0.89" style="stop-color:#B88542"/>
			<stop  offset="0.9893" style="stop-color:#A57240"/>
		</linearGradient>
		<path fill="url(#SVGID_00000095333225456015652860000015752978703456519058_)" d="M340.282,230.82
			c-9.101-2.549-6.973-25.463-5.889-31.94l0.362-0.262l-0.252-0.353c0.307-1.695,0.673-3.399,1.148-5.093
			c2.53-9.038,7.276-21.126,13.598-25.526c0.825,3.836,3,9.63,4.747,11.929l12.405-8.668c4.19,6.469,2.269,20.119-0.692,30.688
			c-3.195,11.391-12.876,29.543-23.108,29.544C341.831,231.14,341.057,231.037,340.282,230.82 M343.906,102.441
			c0-18.075,2.647-32.054,8.722-32.054c6.074,0,8.724,13.975,8.724,32.054c0,11.251-3.386,32.39-8.723,32.39
			S343.906,120.51,343.906,102.441 M367.627,35.006c-0.354,0.519-7.64,11.28-9.228,25.171c-1.893-0.795-3.832-1.204-5.77-1.204
			c-11.82,0-23.788,14.931-23.788,43.469c0,26.464,10.289,41.219,21.212,43.226c-0.454,2.766-0.759,5.566-0.917,8.325
			c-10.2,3.476-19.513,13.409-25.17,26.992c-1.453-1.932-2.538-3.835-2.538-10.938c0-6.375,0.25-62.503,0.25-72.172
			c0-14.435,0-38.597-21.887-38.597c-4.986,0-9.381,1.686-12.794,4.845c-1.484-2.885-2.675-4.643-2.808-4.838l-12.412,8.533
			c0.067,0.097,6.496,9.942,6.496,21.02c0,0.376,0,121.958,0,121.958l15.062,0.035c0,0-0.003-116.08,0-119.606
			c0.297-6.977-0.52-21.03,6.456-21.03c4.831,0,6.699,4.148,6.699,27.679v70.348c0,19.868,8.771,29.004,9.148,29.553l3.167,4.429
			c-0.52,6.627,0.001,13.026,1.597,18.731c2.958,10.586,9.506,18.017,17.965,20.386c1.925,0.539,3.927,0.811,5.946,0.811
			c15.119,0,29.883-14.996,35.901-36.471c6.726-23.999-0.279-46.373-15.951-51.809c0.428-6.243,1.757-13.085,4.409-18.528
			c4.623-7.302,7.746-18.316,7.746-32.883c0-14.348-3.026-25.253-7.538-32.554l0.215-3.382c0-13.484,14.133-18.885,14.172-18.949
			l-15.637-12.55C367.63,35.006,367.627,35.006,367.627,35.006z"/>
	</g>
</g>
<polygon fill="#FFFFFF" points="261.535,33.249 256.257,27.597 258.248,35.07 248.616,31.184 256.314,38.286 248.78,40.029 
	256.247,42.04 241.734,52.112 258.066,45.325 255.809,52.722 261.284,47.261 263.024,54.794 265.038,47.328 274.602,60.678 
	268.323,45.509 275.718,47.766 270.258,42.29 277.791,40.548 270.325,38.536 282.468,29.92 268.507,35.253 270.762,27.857 
	265.29,33.318 263.788,17.138 "/>
<g>
	
		<image overflow="visible" opacity="0.5" enable-background="new    " width="473" height="948" xlink:href="B32A4054CB0FF5E9.png"  transform="matrix(0.2399 0 0 0.2399 -4.9069 10.024)">
	</image>
	<g>
		
			<linearGradient id="SVGID_00000074430472184691609100000007521960390319346328_" gradientUnits="userSpaceOnUse" x1="51.8555" y1="281.1312" x2="51.8555" y2="54.6863" gradientTransform="matrix(1 0 0 -1 0 298)">
			<stop  offset="0" style="stop-color:#FFD684"/>
			<stop  offset="0.4769" style="stop-color:#FFD140"/>
			<stop  offset="0.5632" style="stop-color:#F3C542"/>
			<stop  offset="0.7072" style="stop-color:#DAAA43"/>
			<stop  offset="0.89" style="stop-color:#B88542"/>
			<stop  offset="0.9893" style="stop-color:#A57240"/>
		</linearGradient>
		<path fill="url(#SVGID_00000074430472184691609100000007521960390319346328_)" d="M48.509,30.75
			c22.825-10.042,30.329,26.485,30.329,61.346c0,51.784-3.87,103.928-30.329,111.295C48.509,203.391,48.509,30.75,48.509,30.75z
			 M10.066,43.84l10.527,12.753c4.638-7.104,10.065-14.158,13.11-16.799v175.462h7.404c20.276,0,34.667-11.732,42.777-34.871
			c6.659-18.999,9.761-47.053,9.761-88.289c0-46.339-11.355-73.821-39.336-73.821C32.756,18.275,18.907,34.274,10.066,43.84z"/>
	</g>
</g>
<g>
	
		<image overflow="visible" opacity="0.5" enable-background="new    " width="474" height="948" xlink:href="B32A4054CB0FF5E6.png"  transform="matrix(0.2398 0 0 0.2398 460.1171 10.072)">
	</image>
	<g>
		
			<linearGradient id="SVGID_00000052065640358000098920000000923712124844098723_" gradientUnits="userSpaceOnUse" x1="516.9265" y1="281.1312" x2="516.9265" y2="54.6863" gradientTransform="matrix(1 0 0 -1 0 298)">
			<stop  offset="0" style="stop-color:#FFD684"/>
			<stop  offset="0.4769" style="stop-color:#FFD140"/>
			<stop  offset="0.5632" style="stop-color:#F3C542"/>
			<stop  offset="0.7072" style="stop-color:#DAAA43"/>
			<stop  offset="0.89" style="stop-color:#B88542"/>
			<stop  offset="0.9893" style="stop-color:#A57240"/>
		</linearGradient>
		<path fill="url(#SVGID_00000052065640358000098920000000923712124844098723_)" d="M513.58,30.75
			c22.825-10.042,30.329,26.485,30.329,61.346c0,51.784-3.87,103.928-30.329,111.295V30.75z M475.137,43.84l10.527,12.753
			c4.638-7.104,10.065-14.158,13.11-16.799v175.462h7.404c20.276,0,34.667-11.732,42.777-34.871
			c6.659-18.999,9.761-47.053,9.761-88.289c0-46.339-11.355-73.821-39.336-73.821C497.828,18.275,483.978,34.274,475.137,43.84z"/>
	</g>
</g>
<g>
	<path fill="#8EC7D0" d="M36.713,283.495l6.289-29.755H54.44l-0.773,3.644H46.38l-1.852,8.792h6.818l-0.793,3.643h-6.798
		l-2.137,9.993h7.306l-0.773,3.684H36.713V283.495z"/>
	<path fill="#8EC7D0" d="M52.405,283.495l4.762-22.51h3.989l-4.763,22.51H52.405z M60.037,257.566c-0.638,0-1.119-0.155-1.445-0.468
		s-0.488-0.767-0.488-1.363c0-0.529,0.098-1.049,0.295-1.558c0.196-0.509,0.505-0.926,0.926-1.251
		c0.42-0.326,0.943-0.489,1.567-0.489s1.099,0.143,1.425,0.428c0.325,0.285,0.488,0.727,0.488,1.323
		c0,0.923-0.251,1.716-0.753,2.381C61.549,257.234,60.878,257.566,60.037,257.566z"/>
	<path fill="#8EC7D0" d="M65.186,293.508c-2.252,0.013-3.965-0.425-5.139-1.313c-1.173-0.889-1.753-2.215-1.74-3.979
		c0.014-1.506,0.488-2.839,1.424-3.999c0.937-1.16,2.232-2.046,3.887-2.656c-0.42-0.203-0.77-0.539-1.048-1.007
		c-0.278-0.469-0.417-1.001-0.417-1.598c0-0.773,0.261-1.513,0.784-2.219c0.522-0.705,1.286-1.411,2.29-2.116
		c-0.516-0.34-0.936-0.899-1.262-1.68c-0.326-0.78-0.488-1.686-0.488-2.717c0-1.547,0.335-3.069,1.007-4.569
		c0.671-1.499,1.631-2.703,2.88-3.612c0.583-0.447,1.245-0.8,1.984-1.059c0.739-0.257,1.502-0.387,2.29-0.387
		c0.665,0,1.228,0.059,1.689,0.174s0.828,0.24,1.099,0.376h5.597l-0.488,2.442l-2.727,0.631c0.163,0.299,0.274,0.635,0.335,1.008
		s0.099,0.783,0.112,1.231c0,1.14-0.221,2.337-0.662,3.592s-1.035,2.316-1.781,3.185c-0.692,0.801-1.52,1.429-2.483,1.883
		c-0.963,0.455-2.035,0.682-3.216,0.682c-0.38,0-0.692,0.007-0.936,0.021s-0.421,0.041-0.529,0.082
		c-0.679,0.312-1.19,0.712-1.537,1.2c-0.346,0.488-0.519,0.937-0.519,1.344c0,0.434,0.19,0.739,0.57,0.915
		c0.149,0.055,0.332,0.096,0.549,0.122c0.217,0.027,0.475,0.041,0.773,0.041h3.317c1.085,0,1.967,0.19,2.646,0.57
		s1.173,0.919,1.486,1.617c0.312,0.699,0.468,1.517,0.468,2.453c0,1.669-0.367,3.15-1.099,4.446
		c-0.733,1.296-1.717,2.331-2.951,3.104c-0.854,0.569-1.811,1.007-2.87,1.312C67.424,293.335,66.325,293.495,65.186,293.508z
		 M65.328,290.435c0.773,0,1.513-0.112,2.218-0.336c0.705-0.225,1.33-0.56,1.873-1.008c0.61-0.435,1.102-0.994,1.475-1.679
		c0.373-0.686,0.56-1.422,0.56-2.208c0-0.312-0.041-0.598-0.122-0.855c-0.082-0.258-0.231-0.488-0.448-0.691
		c-0.177-0.149-0.438-0.268-0.784-0.356c-0.346-0.088-0.771-0.132-1.272-0.132H66.08c-0.611-0.014-1.225,0.23-1.842,0.732
		c-0.618,0.502-1.126,1.119-1.526,1.852s-0.601,1.445-0.601,2.138c0,0.977,0.281,1.651,0.845,2.024
		C63.52,290.289,64.311,290.462,65.328,290.435z M69.134,272.912c0.705,0,1.343-0.285,1.913-0.854c0.57-0.57,1.041-1.333,1.415-2.29
		c0.373-0.956,0.614-2.025,0.722-3.205c0.068-0.638,0.071-1.177,0.01-1.618c-0.061-0.44-0.2-0.783-0.417-1.028
		c-0.122-0.135-0.271-0.244-0.448-0.325c-0.177-0.081-0.394-0.122-0.651-0.122c-0.57,0-1.092,0.193-1.567,0.58
		s-0.896,0.898-1.262,1.536c-0.366,0.639-0.661,1.32-0.885,2.046c-0.224,0.726-0.363,1.428-0.417,2.106
		c-0.041,0.488-0.051,0.926-0.031,1.312c0.021,0.387,0.099,0.716,0.234,0.987C68.007,272.62,68.469,272.912,69.134,272.912z"/>
	<path fill="#8EC7D0" d="M78.211,283.495l6.696-31.668h3.989l-1.669,7.754c-0.081,0.421-0.183,0.865-0.305,1.333
		c-0.122,0.469-0.248,0.937-0.376,1.404c-0.129,0.469-0.268,0.934-0.417,1.395h0.082c0.407-0.679,0.852-1.252,1.333-1.72
		s1.014-0.824,1.598-1.068s1.221-0.366,1.913-0.366c0.855,0,1.584,0.177,2.188,0.529c0.604,0.353,1.072,0.868,1.404,1.547
		c0.333,0.678,0.499,1.506,0.499,2.482c0,0.543-0.061,1.197-0.183,1.964s-0.251,1.496-0.387,2.188l-3.032,14.226h-3.989
		l2.829-13.453c0.163-0.691,0.302-1.377,0.417-2.055c0.115-0.679,0.173-1.31,0.173-1.894c0-0.583-0.143-1.041-0.428-1.373
		c-0.285-0.333-0.712-0.499-1.282-0.499c-0.651,0-1.245,0.23-1.781,0.692c-0.536,0.461-1.024,1.188-1.465,2.178
		s-0.831,2.3-1.17,3.928L82.2,283.495H78.211z"/>
	<path fill="#8EC7D0" d="M100.964,283.902c-1.303,0-2.232-0.373-2.788-1.119c-0.557-0.746-0.834-1.744-0.834-2.992
		c0-0.42,0.034-0.896,0.102-1.425s0.169-1.119,0.305-1.771l2.605-12.231h-2.036l0.448-2.178l2.564-1.119l1.913-5.048h2.87
		l-1.079,4.966h3.338l-0.712,3.379h-3.338l-2.687,12.639c-0.081,0.38-0.152,0.743-0.213,1.089s-0.092,0.647-0.092,0.905
		c0,0.476,0.095,0.821,0.285,1.038c0.19,0.218,0.516,0.326,0.977,0.326c0.231,0,0.533-0.034,0.906-0.103
		c0.373-0.067,0.736-0.176,1.089-0.325v3.256c-0.529,0.231-1.133,0.407-1.811,0.529C102.097,283.84,101.494,283.902,100.964,283.902
		z"/>
	<path fill="#8EC7D0" d="M114.274,283.902c-1.289,0-2.401-0.275-3.337-0.824c-0.937-0.55-1.656-1.351-2.157-2.401
		c-0.502-1.052-0.753-2.323-0.753-3.816c0-2.116,0.237-4.148,0.712-6.096c0.475-1.946,1.153-3.687,2.035-5.22
		s1.947-2.744,3.195-3.633s2.646-1.333,4.192-1.333c1.52,0,2.73,0.427,3.633,1.282c0.902,0.854,1.354,2.068,1.354,3.643
		c0,1.262-0.241,2.395-0.722,3.398c-0.482,1.005-1.177,1.853-2.086,2.544c-0.909,0.692-2.018,1.222-3.328,1.588
		c-1.309,0.366-2.785,0.55-4.426,0.55h-0.305c-0.082,0.461-0.149,0.933-0.204,1.414s-0.082,0.953-0.082,1.415
		c0,1.479,0.268,2.547,0.804,3.205s1.339,0.987,2.412,0.987c0.827,0,1.58-0.105,2.259-0.315c0.678-0.211,1.458-0.566,2.341-1.068
		v3.194c-0.842,0.543-1.72,0.927-2.636,1.15S115.292,283.902,114.274,283.902z M112.85,270.612h0.122
		c1.574,0,2.832-0.203,3.775-0.61c0.943-0.407,1.625-0.978,2.045-1.71s0.631-1.554,0.631-2.463c0-0.61-0.146-1.095-0.438-1.455
		c-0.292-0.359-0.743-0.539-1.354-0.539c-0.665,0-1.299,0.285-1.903,0.854c-0.604,0.57-1.15,1.36-1.639,2.371
		C113.603,268.072,113.189,269.255,112.85,270.612z"/>
	<path fill="#8EC7D0" d="M130.902,283.902c-1.289,0-2.401-0.275-3.337-0.824c-0.937-0.55-1.656-1.351-2.157-2.401
		c-0.502-1.052-0.753-2.323-0.753-3.816c0-2.116,0.237-4.148,0.712-6.096c0.475-1.946,1.153-3.687,2.035-5.22
		c0.882-1.533,1.947-2.744,3.195-3.633s2.646-1.333,4.192-1.333c1.52,0,2.73,0.427,3.633,1.282c0.902,0.854,1.354,2.068,1.354,3.643
		c0,1.262-0.241,2.395-0.722,3.398c-0.482,1.005-1.177,1.853-2.086,2.544c-0.909,0.692-2.018,1.222-3.328,1.588
		c-1.309,0.366-2.785,0.55-4.426,0.55h-0.305c-0.082,0.461-0.149,0.933-0.204,1.414s-0.082,0.953-0.082,1.415
		c0,1.479,0.268,2.547,0.804,3.205s1.339,0.987,2.412,0.987c0.827,0,1.58-0.105,2.259-0.315c0.678-0.211,1.458-0.566,2.341-1.068
		v3.194c-0.842,0.543-1.72,0.927-2.636,1.15S131.92,283.902,130.902,283.902z M129.478,270.612h0.122
		c1.574,0,2.832-0.203,3.775-0.61c0.943-0.407,1.625-0.978,2.045-1.71s0.631-1.554,0.631-2.463c0-0.61-0.146-1.095-0.438-1.455
		c-0.292-0.359-0.743-0.539-1.354-0.539c-0.665,0-1.299,0.285-1.903,0.854c-0.604,0.57-1.15,1.36-1.639,2.371
		C130.231,268.072,129.817,269.255,129.478,270.612z"/>
	<path fill="#8EC7D0" d="M140.203,283.495l4.783-22.529h3.216l-0.305,2.931h0.102c0.407-0.692,0.865-1.289,1.374-1.791
		c0.509-0.502,1.065-0.886,1.669-1.15c0.604-0.264,1.231-0.396,1.883-0.396c0.773,0,1.482,0.149,2.126,0.447
		c0.645,0.299,1.16,0.777,1.547,1.436c0.387,0.658,0.58,1.529,0.58,2.615c0,0.542-0.054,1.167-0.163,1.872
		c-0.109,0.705-0.244,1.432-0.407,2.178l-3.053,14.389h-3.989l2.89-13.615c0.122-0.679,0.244-1.354,0.366-2.025
		c0.123-0.672,0.184-1.265,0.184-1.78c0-0.598-0.136-1.056-0.407-1.374s-0.686-0.479-1.242-0.479c-0.76,0-1.421,0.292-1.984,0.875
		c-0.563,0.584-1.058,1.415-1.485,2.493c-0.428,1.079-0.811,2.385-1.15,3.918l-2.503,11.987h-4.032V283.495z"/>
	<path fill="#8EC7D0" d="M164.157,293.508c-0.502,0-0.953-0.034-1.354-0.103c-0.4-0.067-0.763-0.162-1.089-0.284l0.631-3.582
		c0.298,0.108,0.587,0.193,0.865,0.254c0.278,0.062,0.567,0.092,0.865,0.092c0.76,0,1.367-0.271,1.822-0.814s0.906-1.316,1.354-2.32
		l1.526-3.479l-0.753-22.286h4.009l0.061,11.743c-0.014,0.489-0.024,0.994-0.031,1.517s-0.017,1.048-0.03,1.577
		c-0.014,0.529-0.041,1.052-0.082,1.567h0.122c0.163-0.543,0.336-1.079,0.519-1.608c0.183-0.528,0.366-1.034,0.549-1.516
		s0.343-0.893,0.479-1.231l5.088-12.049h4.192l-11.824,26.417c-0.557,1.222-1.14,2.293-1.75,3.216s-1.326,1.635-2.147,2.137
		C166.358,293.256,165.351,293.508,164.157,293.508z"/>
	<path fill="#8EC7D0" d="M187.847,283.902c-1.289,0-2.401-0.275-3.337-0.824c-0.937-0.55-1.656-1.351-2.157-2.401
		c-0.502-1.052-0.753-2.323-0.753-3.816c0-2.116,0.237-4.148,0.712-6.096c0.475-1.946,1.153-3.687,2.035-5.22
		s1.947-2.744,3.195-3.633s2.646-1.333,4.192-1.333c1.52,0,2.73,0.427,3.633,1.282c0.902,0.854,1.354,2.068,1.354,3.643
		c0,1.262-0.241,2.395-0.722,3.398c-0.482,1.005-1.177,1.853-2.086,2.544c-0.909,0.692-2.018,1.222-3.328,1.588
		c-1.309,0.366-2.785,0.55-4.426,0.55h-0.305c-0.082,0.461-0.149,0.933-0.204,1.414s-0.082,0.953-0.082,1.415
		c0,1.479,0.268,2.547,0.804,3.205s1.339,0.987,2.412,0.987c0.827,0,1.58-0.105,2.259-0.315c0.678-0.211,1.458-0.566,2.341-1.068
		v3.194c-0.842,0.543-1.72,0.927-2.636,1.15S188.865,283.902,187.847,283.902z M186.423,270.612h0.122
		c1.574,0,2.832-0.203,3.775-0.61c0.943-0.407,1.625-0.978,2.045-1.71s0.631-1.554,0.631-2.463c0-0.61-0.146-1.095-0.438-1.455
		c-0.292-0.359-0.743-0.539-1.354-0.539c-0.665,0-1.299,0.285-1.903,0.854c-0.604,0.57-1.15,1.36-1.639,2.371
		C187.176,268.072,186.762,269.255,186.423,270.612z"/>
	<path fill="#8EC7D0" d="M202.643,283.902c-0.936,0-1.737-0.251-2.401-0.753c-0.665-0.502-1.174-1.231-1.526-2.188
		c-0.353-0.956-0.529-2.106-0.529-3.449c0-1.234,0.115-2.605,0.346-4.111c0.23-1.506,0.58-3.012,1.048-4.518
		c0.468-1.507,1.062-2.887,1.781-4.142s1.563-2.267,2.534-3.033c0.97-0.766,2.073-1.149,3.308-1.149
		c0.637,0,1.204,0.122,1.699,0.366c0.495,0.244,0.926,0.604,1.292,1.078c0.366,0.476,0.644,1.086,0.834,1.832h0.122l0.977-2.85
		h3.439l-4.783,22.51h-3.236l0.163-3.094h-0.102c-0.475,0.706-0.963,1.323-1.465,1.853s-1.035,0.936-1.598,1.221
		S203.349,283.902,202.643,283.902z M204.169,280.462c0.855,0,1.587-0.366,2.198-1.1c0.61-0.732,1.126-1.651,1.546-2.757
		s0.773-2.222,1.059-3.349c0.326-1.329,0.563-2.476,0.712-3.439c0.149-0.963,0.224-1.845,0.224-2.646c0-0.99-0.183-1.75-0.549-2.279
		s-0.875-0.794-1.526-0.794c-0.679,0-1.306,0.299-1.883,0.896c-0.577,0.598-1.085,1.381-1.526,2.351
		c-0.441,0.971-0.821,2.035-1.14,3.195s-0.557,2.307-0.712,3.439c-0.156,1.133-0.234,2.161-0.234,3.083
		c0,1.14,0.152,1.992,0.458,2.555C203.101,280.181,203.559,280.462,204.169,280.462z"/>
	<path fill="#8EC7D0" d="M215.343,283.495l4.763-22.51h3.134l-0.386,3.582h0.163c0.42-0.908,0.878-1.655,1.374-2.238
		c0.495-0.583,1.045-1.024,1.649-1.323c0.604-0.298,1.272-0.447,2.004-0.447c0.285,0,0.556,0.023,0.814,0.071
		s0.536,0.119,0.834,0.214l-1.18,4.273c-0.258-0.095-0.519-0.166-0.784-0.214c-0.265-0.047-0.553-0.071-0.865-0.071
		c-0.706,0-1.333,0.207-1.883,0.621c-0.549,0.414-1.028,0.96-1.435,1.639c-0.407,0.678-0.753,1.435-1.038,2.269
		c-0.285,0.835-0.522,1.666-0.712,2.493l-2.442,11.642h-4.01V283.495z"/>
	<path fill="#8EC7D0" d="M232.316,283.902c-1.126,0-2.104-0.102-2.931-0.306c-0.828-0.203-1.506-0.468-2.036-0.794v-3.968
		c0.57,0.447,1.279,0.817,2.127,1.108c0.848,0.292,1.631,0.438,2.351,0.438c0.678,0,1.258-0.125,1.74-0.376
		c0.481-0.251,0.855-0.61,1.119-1.079c0.265-0.468,0.397-1.048,0.397-1.74c0-0.461-0.061-0.892-0.183-1.292s-0.35-0.827-0.682-1.282
		c-0.333-0.454-0.804-0.979-1.415-1.577c-0.651-0.638-1.188-1.259-1.608-1.862c-0.421-0.604-0.726-1.228-0.916-1.872
		s-0.285-1.347-0.285-2.106c0-1.222,0.257-2.334,0.773-3.338c0.516-1.004,1.269-1.805,2.259-2.401s2.191-0.896,3.603-0.896
		c1.112,0,2.144,0.149,3.093,0.447c0.95,0.299,1.757,0.679,2.422,1.14l-1.689,3.135c-0.543-0.448-1.147-0.787-1.812-1.018
		s-1.289-0.347-1.872-0.347c-0.814,0-1.465,0.248-1.954,0.743c-0.488,0.495-0.732,1.157-0.732,1.984
		c0,0.435,0.054,0.838,0.163,1.211s0.315,0.764,0.621,1.17c0.305,0.407,0.743,0.883,1.312,1.425c0.705,0.706,1.292,1.354,1.76,1.944
		c0.468,0.59,0.811,1.228,1.028,1.913s0.326,1.516,0.326,2.492c0,1.371-0.275,2.592-0.824,3.664
		c-0.549,1.071-1.343,1.913-2.381,2.523C235.054,283.596,233.795,283.902,232.316,283.902z"/>
	<path fill="#8EC7D0" d="M255.395,283.902c-1.221,0-2.263-0.271-3.124-0.814c-0.862-0.542-1.52-1.34-1.974-2.392
		c-0.455-1.051-0.682-2.33-0.682-3.836c0-1.14,0.108-2.425,0.326-3.856c0.217-1.432,0.566-2.873,1.048-4.325
		c0.481-1.451,1.112-2.791,1.893-4.02c0.78-1.228,1.727-2.215,2.839-2.961c1.112-0.746,2.401-1.119,3.867-1.119
		c1.208,0,2.239,0.278,3.094,0.834c0.854,0.557,1.506,1.363,1.954,2.422s0.672,2.341,0.672,3.847c0,1.343-0.122,2.761-0.367,4.254
		c-0.244,1.492-0.621,2.947-1.129,4.365s-1.157,2.7-1.943,3.847c-0.787,1.146-1.72,2.059-2.799,2.737
		C257.99,283.562,256.766,283.902,255.395,283.902z M255.823,280.462c0.692,0,1.323-0.285,1.893-0.855
		c0.57-0.569,1.071-1.333,1.506-2.289c0.434-0.957,0.804-2.005,1.109-3.145c0.305-1.14,0.536-2.282,0.692-3.43
		c0.156-1.146,0.234-2.188,0.234-3.124c0-0.76-0.082-1.414-0.244-1.964c-0.163-0.549-0.404-0.963-0.723-1.241
		s-0.722-0.417-1.211-0.417c-0.732,0-1.391,0.309-1.974,0.926s-1.092,1.425-1.526,2.422c-0.434,0.997-0.797,2.079-1.089,3.246
		s-0.509,2.307-0.651,3.419c-0.142,1.113-0.213,2.083-0.213,2.911c0,1.14,0.186,2.015,0.56,2.625
		C254.558,280.157,255.104,280.462,255.823,280.462z"/>
	<path fill="#8EC7D0" d="M263.598,293.508c-0.407,0-0.804-0.027-1.191-0.082c-0.386-0.055-0.776-0.143-1.17-0.265v-3.521
		c0.258,0.095,0.563,0.169,0.916,0.224c0.353,0.054,0.672,0.081,0.957,0.081c0.977,0,1.639-0.383,1.984-1.149
		c0.346-0.767,0.662-1.809,0.947-3.124l4.518-21.309h-2.361l0.448-2.157l2.625-1.201l0.488-2.218
		c0.23-1.018,0.492-1.961,0.784-2.829c0.292-0.868,0.661-1.632,1.109-2.29c0.448-0.657,1.014-1.166,1.7-1.526
		c0.685-0.359,1.536-0.539,2.554-0.539c0.61,0,1.217,0.064,1.821,0.193s1.177,0.329,1.72,0.601l-1.465,3.113
		c-0.258-0.148-0.536-0.261-0.834-0.336c-0.299-0.074-0.577-0.111-0.834-0.111c-0.746,0-1.296,0.325-1.648,0.977
		c-0.353,0.651-0.658,1.574-0.916,2.769l-0.448,2.177h3.094l-0.692,3.379h-3.134l-4.661,21.614
		c-0.299,1.451-0.675,2.743-1.129,3.877c-0.455,1.133-1.086,2.024-1.893,2.676S264.981,293.508,263.598,293.508z"/>
	<path fill="#8EC7D0" d="M283.665,283.495l6.289-29.755h11.438l-0.753,3.644h-7.307l-2.096,9.932h6.797l-0.793,3.663h-6.777
		l-2.646,12.517L283.665,283.495L283.665,283.495z"/>
	<path fill="#8EC7D0" d="M298.644,283.495l6.289-29.755h5.007c2.401,0,4.219,0.57,5.454,1.71c1.234,1.14,1.852,2.768,1.852,4.885
		c0,1.655-0.244,3.185-0.732,4.589c-0.489,1.404-1.181,2.592-2.076,3.562c-0.896,0.971-1.967,1.646-3.216,2.025l2.789,12.984h-4.559
		l-2.178-12.15h-1.913l-2.564,12.15H298.644z M306.113,267.884h1.587c0.896,0,1.665-0.199,2.31-0.6s1.177-0.937,1.598-1.608
		s0.733-1.425,0.937-2.259c0.204-0.835,0.305-1.686,0.305-2.555c0-1.166-0.292-2.045-0.875-2.635
		c-0.583-0.591-1.432-0.886-2.544-0.886h-1.099L306.113,267.884z"/>
	<path fill="#8EC7D0" d="M316.859,283.495l6.289-29.755h11.438l-0.773,3.644h-7.286l-1.852,8.792h6.818l-0.793,3.643h-6.8
		l-2.137,9.993h7.306l-0.773,3.684h-11.437V283.495z"/>
	<path fill="#8EC7D0" d="M332.632,283.495l6.289-29.755h11.438l-0.773,3.644H342.3l-1.852,8.792h6.818l-0.793,3.643h-6.798
		l-2.137,9.993h7.306l-0.773,3.684h-11.439V283.495z"/>
	<path fill="#8EC7D0" d="M360.86,283.902c-0.923,0-1.713-0.251-2.371-0.753c-0.658-0.502-1.164-1.231-1.516-2.188
		c-0.353-0.956-0.529-2.106-0.529-3.449c0-1.208,0.115-2.558,0.346-4.05c0.23-1.493,0.58-2.995,1.048-4.509
		c0.468-1.513,1.051-2.903,1.75-4.172c0.698-1.269,1.523-2.289,2.473-3.063c0.95-0.774,2.021-1.16,3.215-1.16
		c0.651,0,1.242,0.111,1.771,0.336c0.529,0.224,0.991,0.56,1.384,1.007c0.394,0.448,0.678,0.991,0.854,1.628h0.122
		c0.081-0.488,0.163-0.966,0.244-1.435c0.082-0.468,0.163-0.916,0.244-1.343c0.082-0.428,0.156-0.824,0.225-1.19l1.648-7.734h3.988
		l-6.716,31.668h-3.236l0.183-2.931h-0.122c-0.516,0.706-1.024,1.306-1.526,1.801c-0.502,0.496-1.028,0.875-1.577,1.14
		S361.579,283.902,360.86,283.902z M362.427,280.483c0.678,0,1.286-0.241,1.822-0.723c0.536-0.481,1.018-1.126,1.445-1.934
		s0.797-1.699,1.109-2.677c0.312-0.977,0.57-1.967,0.773-2.971c0.204-1.004,0.354-1.95,0.448-2.84
		c0.095-0.888,0.143-1.624,0.143-2.208c0-0.99-0.17-1.743-0.509-2.259c-0.34-0.516-0.862-0.773-1.567-0.773
		c-0.719,0-1.371,0.312-1.954,0.937s-1.096,1.441-1.537,2.452s-0.814,2.106-1.119,3.287c-0.305,1.18-0.529,2.33-0.671,3.449
		c-0.143,1.119-0.214,2.086-0.214,2.9c0,1.126,0.152,1.968,0.458,2.523C361.358,280.205,361.816,280.483,362.427,280.483z"/>
	<path fill="#8EC7D0" d="M379.075,283.902c-0.936,0-1.736-0.251-2.401-0.753s-1.174-1.231-1.526-2.188
		c-0.353-0.956-0.529-2.106-0.529-3.449c0-1.234,0.115-2.605,0.347-4.111c0.23-1.506,0.579-3.012,1.048-4.518
		c0.468-1.507,1.062-2.887,1.78-4.142c0.72-1.255,1.563-2.267,2.534-3.033c0.97-0.766,2.072-1.149,3.307-1.149
		c0.638,0,1.204,0.122,1.699,0.366s0.927,0.604,1.293,1.078c0.366,0.476,0.645,1.086,0.834,1.832h0.122l0.978-2.85H392l-4.783,22.51
		h-3.235l0.162-3.094h-0.102c-0.475,0.706-0.964,1.323-1.465,1.853c-0.503,0.529-1.035,0.936-1.598,1.221
		C380.415,283.759,379.78,283.902,379.075,283.902z M380.601,280.462c0.854,0,1.588-0.366,2.198-1.1
		c0.61-0.732,1.126-1.651,1.547-2.757c0.42-1.106,0.773-2.222,1.058-3.349c0.326-1.329,0.563-2.476,0.713-3.439
		c0.149-0.963,0.224-1.845,0.224-2.646c0-0.99-0.183-1.75-0.55-2.279c-0.366-0.529-0.875-0.794-1.526-0.794
		c-0.679,0-1.306,0.299-1.882,0.896c-0.577,0.598-1.086,1.381-1.526,2.351c-0.441,0.971-0.821,2.035-1.14,3.195
		s-0.557,2.307-0.713,3.439s-0.234,2.161-0.234,3.083c0,1.14,0.153,1.992,0.458,2.555
		C379.533,280.181,379.991,280.462,380.601,280.462z"/>
	<path fill="#8EC7D0" d="M391.774,283.495l4.783-22.529h3.215l-0.305,2.931h0.102c0.407-0.692,0.865-1.289,1.374-1.791
		c0.509-0.502,1.064-0.886,1.669-1.15c0.604-0.265,1.231-0.396,1.882-0.396c0.773,0,1.482,0.149,2.127,0.447
		c0.645,0.299,1.16,0.777,1.547,1.436c0.387,0.658,0.58,1.529,0.58,2.615c0,0.542-0.055,1.167-0.163,1.872s-0.244,1.432-0.406,2.178
		l-3.054,14.389h-3.988l2.89-13.615c0.122-0.679,0.244-1.354,0.366-2.025s0.184-1.265,0.184-1.78c0-0.598-0.136-1.056-0.407-1.374
		s-0.686-0.479-1.241-0.479c-0.761,0-1.422,0.292-1.984,0.875c-0.563,0.584-1.059,1.415-1.486,2.493
		c-0.427,1.079-0.811,2.385-1.149,3.918l-2.503,11.987h-4.033V283.495z"/>
	<path fill="#8EC7D0" d="M416.4,283.902c-1.208,0-2.231-0.269-3.073-0.804c-0.841-0.536-1.476-1.316-1.902-2.341
		c-0.428-1.024-0.642-2.29-0.642-3.796c0-1.329,0.115-2.744,0.346-4.243c0.231-1.499,0.598-2.968,1.1-4.406s1.149-2.74,1.943-3.907
		s1.743-2.1,2.85-2.799c1.105-0.698,2.378-1.048,3.815-1.048c0.828,0,1.588,0.099,2.28,0.295c0.691,0.197,1.336,0.492,1.933,0.886
		l-1.628,3.235c-0.38-0.271-0.797-0.488-1.252-0.651c-0.454-0.162-0.898-0.244-1.333-0.244c-1.018,0-1.902,0.421-2.655,1.262
		c-0.753,0.842-1.371,1.91-1.853,3.206s-0.841,2.652-1.078,4.07c-0.238,1.418-0.356,2.703-0.356,3.856
		c0,0.896,0.092,1.635,0.274,2.219c0.184,0.583,0.461,1.018,0.835,1.302c0.373,0.285,0.837,0.428,1.394,0.428
		c0.529,0,1.103-0.115,1.72-0.346s1.259-0.57,1.924-1.018v3.479c-0.57,0.381-1.266,0.702-2.086,0.967
		C418.133,283.769,417.282,283.902,416.4,283.902z"/>
	<path fill="#8EC7D0" d="M423.625,283.495l4.763-22.51h3.988l-4.762,22.51H423.625z M431.257,257.566
		c-0.638,0-1.119-0.155-1.445-0.468c-0.325-0.312-0.488-0.767-0.488-1.363c0-0.529,0.099-1.049,0.295-1.558
		c0.197-0.509,0.506-0.926,0.927-1.251c0.42-0.326,0.942-0.489,1.566-0.489s1.1,0.143,1.425,0.428
		c0.326,0.285,0.488,0.727,0.488,1.323c0,0.923-0.251,1.716-0.753,2.381C432.77,257.234,432.098,257.566,431.257,257.566z"/>
	<path fill="#8EC7D0" d="M432.173,283.495l4.783-22.529h3.215l-0.305,2.931h0.102c0.407-0.692,0.865-1.289,1.374-1.791
		c0.509-0.502,1.064-0.886,1.669-1.15c0.604-0.265,1.231-0.396,1.882-0.396c0.773,0,1.482,0.149,2.127,0.447
		c0.645,0.299,1.16,0.777,1.547,1.436c0.387,0.658,0.58,1.529,0.58,2.615c0,0.542-0.055,1.167-0.163,1.872s-0.244,1.432-0.406,2.178
		l-3.054,14.389h-3.988l2.89-13.615c0.122-0.679,0.244-1.354,0.366-2.025s0.184-1.265,0.184-1.78c0-0.598-0.136-1.056-0.407-1.374
		s-0.686-0.479-1.241-0.479c-0.761,0-1.422,0.292-1.984,0.875c-0.563,0.584-1.059,1.415-1.486,2.493
		c-0.427,1.079-0.811,2.385-1.149,3.918l-2.503,11.987h-4.033V283.495z"/>
	<path fill="#8EC7D0" d="M454.276,293.508c-2.253,0.013-3.966-0.425-5.139-1.313c-1.174-0.889-1.754-2.215-1.74-3.979
		c0.014-1.506,0.488-2.839,1.425-3.999c0.936-1.16,2.231-2.046,3.887-2.656c-0.421-0.203-0.77-0.539-1.048-1.007
		c-0.278-0.469-0.417-1.001-0.417-1.598c0-0.773,0.261-1.513,0.783-2.219c0.522-0.705,1.285-1.411,2.29-2.116
		c-0.517-0.34-0.937-0.899-1.262-1.68c-0.326-0.78-0.489-1.686-0.489-2.717c0-1.547,0.336-3.069,1.008-4.569
		c0.672-1.499,1.631-2.703,2.88-3.612c0.583-0.447,1.244-0.8,1.984-1.059c0.739-0.257,1.502-0.387,2.289-0.387
		c0.665,0,1.229,0.059,1.689,0.174s0.827,0.24,1.1,0.376h5.597l-0.489,2.442l-2.727,0.631c0.163,0.299,0.274,0.635,0.336,1.008
		c0.061,0.373,0.098,0.783,0.111,1.231c0,1.14-0.221,2.337-0.661,3.592c-0.441,1.255-1.035,2.316-1.781,3.185
		c-0.691,0.801-1.52,1.429-2.482,1.883c-0.964,0.455-2.035,0.682-3.216,0.682c-0.38,0-0.691,0.007-0.937,0.021
		c-0.244,0.014-0.42,0.041-0.528,0.082c-0.679,0.312-1.191,0.712-1.537,1.2s-0.519,0.937-0.519,1.344
		c0,0.434,0.189,0.739,0.569,0.915c0.149,0.055,0.333,0.096,0.55,0.122c0.217,0.027,0.475,0.041,0.773,0.041h3.317
		c1.085,0,1.967,0.19,2.646,0.57s1.174,0.919,1.486,1.617c0.312,0.699,0.468,1.517,0.468,2.453c0,1.669-0.366,3.15-1.1,4.446
		c-0.732,1.296-1.716,2.331-2.95,3.104c-0.855,0.569-1.812,1.007-2.87,1.312C456.514,293.335,455.415,293.495,454.276,293.508z
		 M454.418,290.435c0.773,0,1.513-0.112,2.218-0.336c0.706-0.225,1.33-0.56,1.873-1.008c0.61-0.435,1.102-0.994,1.476-1.679
		c0.373-0.686,0.56-1.422,0.56-2.208c0-0.312-0.041-0.598-0.122-0.855c-0.082-0.258-0.231-0.488-0.448-0.691
		c-0.176-0.149-0.438-0.268-0.783-0.356c-0.346-0.088-0.771-0.132-1.272-0.132h-2.747c-0.61-0.014-1.225,0.23-1.842,0.732
		c-0.618,0.502-1.127,1.119-1.526,1.852c-0.4,0.733-0.601,1.445-0.601,2.138c0,0.977,0.281,1.651,0.845,2.024
		C452.61,290.289,453.401,290.462,454.418,290.435z M458.224,272.912c0.705,0,1.343-0.285,1.913-0.854
		c0.57-0.57,1.041-1.333,1.414-2.29c0.373-0.956,0.614-2.025,0.723-3.205c0.068-0.638,0.071-1.177,0.011-1.618
		c-0.062-0.44-0.2-0.783-0.418-1.028c-0.122-0.135-0.271-0.244-0.447-0.325c-0.177-0.081-0.394-0.122-0.651-0.122
		c-0.569,0-1.093,0.193-1.567,0.58s-0.896,0.898-1.262,1.536c-0.366,0.639-0.661,1.32-0.885,2.046
		c-0.225,0.726-0.363,1.428-0.418,2.106c-0.04,0.488-0.051,0.926-0.03,1.312s0.099,0.716,0.234,0.987
		C457.098,272.62,457.559,272.912,458.224,272.912z"/>
	<path fill="#8EC7D0" d="M474.383,283.495l4.763-22.51h3.988l-4.762,22.51H474.383z M482.015,257.566
		c-0.638,0-1.119-0.155-1.445-0.468c-0.325-0.312-0.488-0.767-0.488-1.363c0-0.529,0.099-1.049,0.295-1.558
		c0.197-0.509,0.506-0.926,0.927-1.251c0.42-0.326,0.942-0.489,1.566-0.489s1.1,0.143,1.425,0.428
		c0.326,0.285,0.488,0.727,0.488,1.323c0,0.923-0.251,1.716-0.753,2.381C483.528,257.234,482.856,257.566,482.015,257.566z"/>
	<path fill="#8EC7D0" d="M482.931,283.495l4.783-22.529h3.215l-0.305,2.931h0.102c0.407-0.692,0.865-1.289,1.374-1.791
		c0.509-0.502,1.064-0.886,1.669-1.15c0.604-0.265,1.231-0.396,1.882-0.396c0.773,0,1.482,0.149,2.127,0.447
		c0.645,0.299,1.16,0.777,1.547,1.436c0.387,0.658,0.58,1.529,0.58,2.615c0,0.542-0.055,1.167-0.163,1.872s-0.244,1.432-0.406,2.178
		l-3.054,14.389h-3.988l2.89-13.615c0.122-0.679,0.244-1.354,0.366-2.025s0.184-1.265,0.184-1.78c0-0.598-0.136-1.056-0.407-1.374
		s-0.686-0.479-1.241-0.479c-0.761,0-1.422,0.292-1.984,0.875c-0.563,0.584-1.059,1.415-1.486,2.493
		c-0.427,1.079-0.811,2.385-1.149,3.918l-2.503,11.987h-4.033V283.495z"/>
	<path fill="#8EC7D0" d="M513.174,283.902c-1.289,0-2.439-0.122-3.45-0.366s-1.875-0.617-2.595-1.12l0.713-4.314
		c0.719,0.502,1.557,0.94,2.513,1.312c0.957,0.374,1.917,0.561,2.88,0.561c0.638,0,1.238-0.099,1.802-0.296
		c0.562-0.196,1.048-0.495,1.455-0.896c0.407-0.399,0.729-0.905,0.967-1.516c0.237-0.61,0.355-1.316,0.355-2.117
		c0-0.664-0.081-1.262-0.244-1.791c-0.162-0.528-0.458-1.085-0.885-1.668c-0.428-0.584-1.035-1.263-1.821-2.036
		c-0.773-0.759-1.429-1.502-1.965-2.229c-0.536-0.726-0.942-1.513-1.221-2.36s-0.417-1.835-0.417-2.961
		c0-1.303,0.2-2.493,0.601-3.572c0.399-1.078,0.977-2.008,1.73-2.788c0.753-0.78,1.679-1.381,2.778-1.801
		c1.099-0.421,2.347-0.631,3.744-0.631c1.018,0,2.069,0.155,3.155,0.468c1.085,0.312,1.994,0.732,2.727,1.262l-1.934,3.785
		c-0.705-0.501-1.411-0.901-2.116-1.2c-0.706-0.299-1.404-0.448-2.097-0.448c-0.597,0-1.149,0.099-1.658,0.295
		c-0.509,0.197-0.957,0.489-1.343,0.876c-0.387,0.387-0.689,0.854-0.906,1.404c-0.217,0.549-0.325,1.184-0.325,1.902
		c0,0.679,0.111,1.3,0.336,1.862c0.224,0.563,0.579,1.137,1.068,1.72c0.488,0.584,1.119,1.249,1.893,1.994
		c0.76,0.72,1.38,1.445,1.862,2.178c0.481,0.733,0.837,1.534,1.068,2.402c0.23,0.868,0.346,1.831,0.346,2.89
		c0,1.303-0.19,2.51-0.569,3.623c-0.381,1.112-0.954,2.086-1.72,2.92c-0.768,0.835-1.71,1.485-2.829,1.954
		C515.953,283.668,514.653,283.902,513.174,283.902z"/>
	<path fill="#8EC7D0" d="M531.471,283.902c-1.289,0-2.401-0.275-3.338-0.824c-0.937-0.55-1.655-1.351-2.157-2.401
		c-0.502-1.052-0.753-2.323-0.753-3.816c0-2.116,0.237-4.148,0.712-6.096c0.475-1.946,1.153-3.687,2.035-5.22
		s1.947-2.744,3.195-3.633s2.646-1.333,4.192-1.333c1.52,0,2.73,0.427,3.633,1.282c0.902,0.854,1.354,2.068,1.354,3.643
		c0,1.262-0.241,2.395-0.723,3.398c-0.481,1.005-1.177,1.853-2.086,2.544c-0.909,0.692-2.019,1.222-3.327,1.588
		c-1.31,0.366-2.785,0.55-4.427,0.55h-0.306c-0.081,0.461-0.149,0.933-0.203,1.414c-0.055,0.481-0.081,0.953-0.081,1.415
		c0,1.479,0.268,2.547,0.804,3.205c0.535,0.658,1.34,0.987,2.411,0.987c0.828,0,1.581-0.105,2.26-0.315
		c0.678-0.211,1.458-0.566,2.34-1.068v3.194c-0.841,0.543-1.72,0.927-2.636,1.15C533.456,283.79,532.489,283.902,531.471,283.902z
		 M530.046,270.612h0.122c1.573,0,2.832-0.203,3.775-0.61c0.942-0.407,1.624-0.978,2.045-1.71s0.631-1.554,0.631-2.463
		c0-0.61-0.146-1.095-0.438-1.455c-0.292-0.359-0.742-0.539-1.354-0.539c-0.665,0-1.299,0.285-1.902,0.854
		c-0.604,0.57-1.15,1.36-1.639,2.371C530.799,268.072,530.385,269.255,530.046,270.612z"/>
	<path fill="#8EC7D0" d="M546.266,283.902c-0.937,0-1.737-0.251-2.401-0.753c-0.665-0.502-1.174-1.231-1.526-2.188
		c-0.354-0.956-0.529-2.106-0.529-3.449c0-1.234,0.115-2.605,0.346-4.111s0.58-3.012,1.049-4.518
		c0.468-1.507,1.062-2.887,1.78-4.142s1.563-2.267,2.534-3.033c0.97-0.766,2.072-1.149,3.307-1.149c0.638,0,1.204,0.122,1.699,0.366
		s0.927,0.604,1.293,1.078c0.366,0.476,0.645,1.086,0.834,1.832h0.122l0.978-2.85h3.439l-4.783,22.51h-3.235l0.162-3.094h-0.102
		c-0.475,0.706-0.964,1.323-1.465,1.853c-0.503,0.529-1.035,0.936-1.598,1.221C547.606,283.759,546.971,283.902,546.266,283.902z
		 M547.792,280.462c0.854,0,1.588-0.366,2.198-1.1c0.61-0.732,1.126-1.651,1.547-2.757c0.42-1.106,0.773-2.222,1.058-3.349
		c0.326-1.329,0.563-2.476,0.713-3.439c0.149-0.963,0.224-1.845,0.224-2.646c0-0.99-0.183-1.75-0.55-2.279
		c-0.366-0.529-0.875-0.794-1.526-0.794c-0.679,0-1.306,0.299-1.882,0.896c-0.577,0.598-1.086,1.381-1.526,2.351
		c-0.441,0.971-0.821,2.035-1.14,3.195c-0.319,1.16-0.557,2.307-0.713,3.439s-0.234,2.161-0.234,3.083
		c0,1.14,0.153,1.992,0.458,2.555C546.724,280.181,547.182,280.462,547.792,280.462z"/>
	<path fill="#8EC7D0" d="M563.892,283.902c-1.303,0-2.232-0.373-2.789-1.119c-0.556-0.746-0.834-1.744-0.834-2.992
		c0-0.42,0.033-0.896,0.102-1.425c0.067-0.529,0.17-1.119,0.306-1.771l2.604-12.231h-2.035l0.448-2.178l2.564-1.119l1.913-5.048
		h2.869l-1.078,4.966h3.337l-0.712,3.379h-3.338l-2.687,12.639c-0.081,0.38-0.152,0.743-0.214,1.089
		c-0.061,0.346-0.091,0.647-0.091,0.905c0,0.476,0.095,0.821,0.284,1.038c0.19,0.218,0.516,0.326,0.978,0.326
		c0.23,0,0.532-0.034,0.905-0.103c0.373-0.067,0.736-0.176,1.089-0.325v3.256c-0.529,0.231-1.133,0.407-1.812,0.529
		S564.42,283.902,563.892,283.902z"/>
	<path fill="#8EC7D0" d="M574.8,283.902c-1.303,0-2.232-0.373-2.789-1.119c-0.556-0.746-0.834-1.744-0.834-2.992
		c0-0.42,0.033-0.896,0.102-1.425c0.067-0.529,0.17-1.119,0.306-1.771l2.604-12.231h-2.035l0.448-2.178l2.564-1.119l1.913-5.048
		h2.869l-1.078,4.966h3.337l-0.712,3.379h-3.338l-2.687,12.639c-0.081,0.38-0.152,0.743-0.214,1.089
		c-0.061,0.346-0.091,0.647-0.091,0.905c0,0.476,0.095,0.821,0.284,1.038c0.19,0.218,0.516,0.326,0.978,0.326
		c0.23,0,0.532-0.034,0.905-0.103c0.373-0.067,0.736-0.176,1.089-0.325v3.256c-0.529,0.231-1.133,0.407-1.812,0.529
		S575.329,283.902,574.8,283.902z"/>
	<path fill="#8EC7D0" d="M580.784,283.495l6.757-31.668h3.989l-6.736,31.668H580.784z"/>
	<path fill="#8EC7D0" d="M596.577,283.902c-1.289,0-2.401-0.275-3.338-0.824c-0.937-0.55-1.655-1.351-2.157-2.401
		c-0.502-1.052-0.753-2.323-0.753-3.816c0-2.116,0.237-4.148,0.712-6.096c0.475-1.946,1.153-3.687,2.035-5.22
		s1.947-2.744,3.195-3.633s2.646-1.333,4.192-1.333c1.52,0,2.73,0.427,3.633,1.282c0.902,0.854,1.354,2.068,1.354,3.643
		c0,1.262-0.241,2.395-0.723,3.398c-0.481,1.005-1.177,1.853-2.086,2.544c-0.909,0.692-2.019,1.222-3.327,1.588
		c-1.31,0.366-2.785,0.55-4.427,0.55h-0.306c-0.081,0.461-0.149,0.933-0.203,1.414c-0.055,0.481-0.081,0.953-0.081,1.415
		c0,1.479,0.268,2.547,0.804,3.205c0.535,0.658,1.34,0.987,2.411,0.987c0.828,0,1.581-0.105,2.26-0.315
		c0.678-0.211,1.458-0.566,2.34-1.068v3.194c-0.841,0.543-1.72,0.927-2.636,1.15C598.561,283.79,597.594,283.902,596.577,283.902z
		 M595.152,270.612h0.122c1.573,0,2.832-0.203,3.775-0.61c0.942-0.407,1.624-0.978,2.045-1.71s0.631-1.554,0.631-2.463
		c0-0.61-0.146-1.095-0.438-1.455c-0.292-0.359-0.742-0.539-1.354-0.539c-0.665,0-1.299,0.285-1.902,0.854
		c-0.604,0.57-1.15,1.36-1.639,2.371C595.905,268.072,595.491,269.255,595.152,270.612z"/>
	<path fill="#8EC7D0" d="M610.986,293.263l6.777-32.278h3.297l-0.347,3.176h0.143c0.516-0.814,1.038-1.486,1.567-2.016
		c0.529-0.53,1.085-0.926,1.669-1.19c0.583-0.265,1.207-0.396,1.872-0.396c0.923,0,1.71,0.237,2.361,0.712
		c0.651,0.476,1.153,1.188,1.506,2.137c0.353,0.95,0.529,2.145,0.529,3.582c0,1.289-0.119,2.693-0.356,4.213
		c-0.237,1.521-0.597,3.026-1.078,4.519c-0.482,1.492-1.086,2.859-1.812,4.101c-0.727,1.242-1.57,2.232-2.534,2.972
		c-0.963,0.739-2.049,1.109-3.256,1.109c-0.625,0-1.19-0.126-1.699-0.377s-0.94-0.606-1.293-1.068
		c-0.353-0.461-0.617-1.004-0.794-1.628h-0.143c-0.095,0.719-0.2,1.425-0.315,2.116c-0.115,0.692-0.233,1.316-0.355,1.873
		l-1.812,8.445h-3.927V293.263z M620.734,280.401c0.679,0,1.303-0.295,1.873-0.885c0.569-0.591,1.078-1.37,1.526-2.341
		c0.447-0.97,0.831-2.035,1.149-3.195s0.56-2.313,0.723-3.46s0.244-2.188,0.244-3.124c0-1.167-0.156-2.028-0.468-2.585
		c-0.312-0.556-0.773-0.834-1.384-0.834c-0.611,0-1.181,0.23-1.71,0.692c-0.529,0.461-1.001,1.082-1.414,1.861
		c-0.414,0.781-0.784,1.649-1.109,2.605c-0.326,0.957-0.601,1.937-0.824,2.94c-0.224,1.005-0.394,1.958-0.509,2.86
		s-0.173,1.679-0.173,2.33c0,1.031,0.176,1.812,0.528,2.34C619.541,280.136,620.055,280.401,620.734,280.401z"/>
	<path fill="#8EC7D0" d="M636.507,283.902c-0.937,0-1.737-0.251-2.401-0.753c-0.665-0.502-1.174-1.231-1.526-2.188
		c-0.354-0.956-0.529-2.106-0.529-3.449c0-1.234,0.115-2.605,0.346-4.111s0.58-3.012,1.049-4.518
		c0.468-1.507,1.062-2.887,1.78-4.142s1.563-2.267,2.534-3.033c0.97-0.766,2.072-1.149,3.307-1.149c0.638,0,1.204,0.122,1.699,0.366
		s0.927,0.604,1.293,1.078c0.366,0.476,0.645,1.086,0.834,1.832h0.122l0.978-2.85h3.439l-4.783,22.51h-3.235l0.162-3.094h-0.102
		c-0.475,0.706-0.964,1.323-1.465,1.853c-0.503,0.529-1.035,0.936-1.598,1.221C637.847,283.759,637.212,283.902,636.507,283.902z
		 M638.034,280.462c0.854,0,1.588-0.366,2.198-1.1c0.61-0.732,1.126-1.651,1.547-2.757c0.42-1.106,0.773-2.222,1.058-3.349
		c0.326-1.329,0.563-2.476,0.713-3.439c0.149-0.963,0.224-1.845,0.224-2.646c0-0.99-0.183-1.75-0.55-2.279
		c-0.366-0.529-0.875-0.794-1.526-0.794c-0.679,0-1.306,0.299-1.882,0.896c-0.577,0.598-1.086,1.381-1.526,2.351
		c-0.441,0.971-0.821,2.035-1.14,3.195c-0.319,1.16-0.557,2.307-0.713,3.439s-0.234,2.161-0.234,3.083
		c0,1.14,0.153,1.992,0.458,2.555C636.965,280.181,637.423,280.462,638.034,280.462z"/>
	<path fill="#8EC7D0" d="M649.207,283.495l4.763-22.51h3.134l-0.387,3.582h0.163c0.42-0.908,0.878-1.655,1.374-2.238
		c0.495-0.583,1.044-1.024,1.648-1.323c0.604-0.298,1.271-0.447,2.005-0.447c0.284,0,0.556,0.023,0.813,0.071
		s0.536,0.119,0.835,0.214l-1.181,4.273c-0.258-0.095-0.52-0.166-0.783-0.214c-0.265-0.047-0.554-0.071-0.865-0.071
		c-0.706,0-1.333,0.207-1.883,0.621s-1.027,0.96-1.435,1.639c-0.407,0.678-0.753,1.435-1.038,2.269
		c-0.285,0.835-0.522,1.666-0.712,2.493l-2.442,11.642h-4.009V283.495z"/>
	<path fill="#8EC7D0" d="M661.418,283.495l6.757-31.668h3.989l-3.135,14.572c-0.081,0.421-0.18,0.872-0.295,1.354
		s-0.241,0.99-0.376,1.526c-0.136,0.536-0.292,1.103-0.469,1.699h0.103l7.388-9.993h4.355l-6.981,9.281l2.626,13.229h-4.274
		l-1.812-9.973l-2.34,2.504l-1.526,7.469H661.418z"/>
	<path fill="#8EC7D0" d="M682.402,283.902c-1.127,0-2.104-0.102-2.931-0.306c-0.828-0.203-1.506-0.468-2.035-0.794v-3.968
		c0.569,0.447,1.278,0.817,2.127,1.108c0.848,0.292,1.631,0.438,2.351,0.438c0.678,0,1.258-0.125,1.739-0.376s0.855-0.61,1.12-1.079
		c0.265-0.468,0.396-1.048,0.396-1.74c0-0.461-0.061-0.892-0.183-1.292c-0.123-0.4-0.35-0.827-0.683-1.282
		c-0.332-0.454-0.804-0.979-1.414-1.577c-0.651-0.638-1.188-1.259-1.607-1.862c-0.421-0.604-0.727-1.228-0.916-1.872
		c-0.19-0.645-0.285-1.347-0.285-2.106c0-1.222,0.258-2.334,0.773-3.338s1.269-1.805,2.259-2.401s2.191-0.896,3.603-0.896
		c1.112,0,2.144,0.149,3.094,0.447c0.949,0.299,1.757,0.679,2.422,1.14l-1.689,3.135c-0.543-0.448-1.146-0.787-1.812-1.018
		s-1.289-0.347-1.872-0.347c-0.814,0-1.466,0.248-1.954,0.743s-0.732,1.157-0.732,1.984c0,0.435,0.054,0.838,0.163,1.211
		c0.108,0.373,0.315,0.764,0.62,1.17c0.306,0.407,0.743,0.883,1.312,1.425c0.706,0.706,1.293,1.354,1.761,1.944
		c0.469,0.59,0.811,1.228,1.028,1.913c0.217,0.685,0.325,1.516,0.325,2.492c0,1.371-0.274,2.592-0.824,3.664
		c-0.55,1.071-1.343,1.913-2.381,2.523S683.88,283.902,682.402,283.902z"/>
	<path fill="#8EC7D0" d="M693.941,283.84c-0.638,0-1.146-0.166-1.526-0.498c-0.38-0.333-0.57-0.838-0.57-1.517
		c0-0.949,0.278-1.798,0.835-2.544c0.556-0.746,1.35-1.119,2.381-1.119c0.597,0,1.065,0.18,1.404,0.539s0.509,0.858,0.509,1.496
		c0,1.059-0.295,1.93-0.886,2.615C695.498,283.498,694.782,283.84,693.941,283.84z M694.104,274.703l3.907-20.963h4.62l-5.17,20.963
		H694.104z"/>
</g>
</svg>
