<?xml version="1.0" encoding="iso-8859-1"?>
<!-- Generator: Adobe Illustrator 29.5.0, SVG Export Plug-In . SVG Version: 9.03 Build 0)  -->
<svg version="1.1" id="Layer_1" xmlns="http://www.w3.org/2000/svg" xmlns:xlink="http://www.w3.org/1999/xlink" x="0px" y="0px"
	 width="969.6px" height="271px" viewBox="0 0 969.6 271" enable-background="new 0 0 969.6 271" xml:space="preserve">
<g id="land">
	<path fill="#000406" d="M932.4,155.6h-10.9v-1.9H914v-1.1h-6.6v-1.2h-5.9v3.4H888v-0.9h-4.9v0.8h-2.2v-2.3h-3.1v2.3h-5.3v0.9h-1.2
		v-1.8h-1.1v1.2h-2.3l-0.7-0.7H859v-1.1h-1.9v-1.1h-2.2v1.1h-0.8V152h-2.6v1.1h-3.1v0.9h2.3v1.2h-13.6v3.4h-8.6v-3.1h-1.2V154h-1.9
		v1.4h-3v2.4l-3.3,1.9l-3.6-0.3v-4.1H814v2.9h-2.6V154H800v2.2h-1.5v-1.4h-6.3v1.5h-4.1v0.9h-11.2l-0.6-9.7h-1.6l-0.8,10.6l-2.4-0.3
		v-6.6l-4.6-3l-4.4,2.7l-3.1-2.2l-2.7,1.6l-3-1.6l-2.6,1.4l-3-1.9l-3.6,2.4l-4.2-2.4l-4.1,2.3v3.9h-2.6v-1.9h-2.2v1.1h-5v-16.2h-4.8
		l-1.2-2.4h-4.9l-2.4,1.6h-2.9l-0.9,1.9v3.4c-0.1,0,1,1.1,1,1.1v4.1l1.2,1.1v6h-4.2v3.7h-4.6v-1.3h-2.9v-1.4h-2.6v-3h-4.1v2.1
		l-1.8-0.8v-2.1h-4.7v-6.3h-9.9l-0.6-1.1H673l-1,1.4h-1.8v-13h-3.5v-2.2h-9.5v1.9h-1.5v-14.6h-5.6v-3.4h-4.8l-0.5-1.2l-4.9,1.1
		l-2.7-0.3v-1.8h-26.6l-5.9,1.2v8.6l-2.6,0.3v17.508h-6V119.1h-27.7v34.467l-4.1,0.7V128.9h-2l-0.8,0.8h-2l-1.2-2.1l-6.8-1.9h-5.9
		l-4,0.4v1.5H534v-2.4h-4.2v-2.3h-5v2.3h-5l1.2,1.8v8.1h-4.9V130h-4.2l-6.1,5.9h-2l-2.9,12.051h-3.1V136.6h-3.1v-3H491v1.5h-2.3
		v-1.5h-4.4v1.6h-1.1v-0.9h-3.1v2.6h-3.3v3h-2.9l-0.5,2.1h-4.2v-1.8h-3.4v-35h-2.6v-3.8h-13.5l-1.9,1.2v-4h-1.1v4.8h-3.4v17.7
		l-4.5-4.8h-9.4l-2.3,2.9l-2.5,2.9v6.7h-7.4v21.3h-1.5v-1.4h-2.9v-9.4h-9.5v-6.1H398v-2.9h-2l-0.3-3.8l-1.1,3.6h-1.9v2.4h-4v-1.4
		h-4.1V130h-2.3v-8.3h-20.7v24.1h-3.7v4.4h-3l-1.4-1.4H350v-13.9l-1-0.7v-3.4l-2.5-0.9v-1.8h-2.6v-2.6l-4.1,1.5h-5.9v3.3h-1.4v7.5
		h-9.1v-12.4h-3.8v-1.5h-10.9v-10.6h-7.1v-2.7l-2.7-2v-2l-4.8-4.4v-2.3H291v2.2l-4.4,4.4v1.4h-5.2v10.9h-6.7V92.5h-12.8l-3,2.3v16.8
		H257v21.1h-3.8v-8.5h-23.9l-1.8,2.4l0.5,5.1v28.1h-2.2v2.1h-3.7v3.9h-3.5v-2.1H217v-21.9c0,0-4-1.9-10.1-1.9s-10.8,1.9-10.8,1.9v22
		h-2.7v-2.3H184v2.7h-8v4.8h-1.2v-2.7h-2.9v-10.8l-3.1-7.5l-3.5,6.9v14.6l-1.6,1.6v5.9c0,0,0,1.2-0.8,0c-0.8-1.4-2.3-0.9-2.7-0.4
		l-0.4,0.6c-0.7-0.4-1.8-0.6-1.8-0.6v-4.5h-6.7v1.9h-3.7c-0.5-1.9-3.7-1.2-3.7-1.2c-0.7-1.8-4.8-3-6.7-1.2c-1.2-0.9-4.1-1.4-5.2,0
		h-10.8v-4.5l-1.4-1.2h-2.5v-3.1h-6.8v3.1h-2.7v3.4h-3v1.5c-1.1-0.7-3-0.8-3.4-0.7c-0.8-1.6-3.1-1.1-4-0.6v-2.2c0,0-3-1.5-4.4,0.8
		c-1.8-0.8-3.9,0-4.7,2.4c-0.9-1.5-2.7-1.1-3.6,0c-0.8-0.9-1.2-1.5-1.2-1.5v-1.8h-2.2v1.7c-1.6,0-3,1.2-3,1.2
		c-1.6-1.7-5.7-1.5-7.7,3.2v-1.7h-3.5c0.3-1.9-0.4-3.4-1.3-3s-1.3,3-1.3,3c0-1.5-0.9-2.4-1.8-2.4s-2.5,0.7-2.5,2.5H58
		c-0.9-1.8-2.8-3.9-3.8-1.4v-2.5h-2.9v2.4l-1.1,1.4h-2.8c0-2.2-1-3.2-2.4-2.4c-2.3-0.6-4.3,2.5-4,2.2c-1.7-1.7-4.5-1.7-6.4,0V170
		h-3.5v1.2h-5.3c-0.4-1.6-3.8-0.3-4.1,0.5c-0.7-1.3-0.9-1.7-2.2-1v-5.1h-3.6v-2.5h-2.7v1.9h-3v5.9c-2.4-1.7-3.6,0-3.6,0
		c-1.7-1.2-2.7-1.2-3.7-0.5c-1.8-0.5-4-0.8-4.3,1.4c-2.1-0.7-6.8-0.5-6.8-0.5c-1.3-1.6-5.2-2.7-6.5,0.2h-6.1c-1.7-1.8-5.4-3-7.3-0.3
		c0,0-1.8-0.9-2.3,1.5c-1.7-1.1-4.2-1.2-5.3,0c-1.8-2.3-6.5-0.8-6.5-0.8V277H969.6V155.7l0,0h-37.2L932.4,155.6z"/>
	<rect x="815.1" y="153.8" fill="#000406" width="16.2" height="2.2"/>
	<path fill="#000406" d="M828.5,159.3c0,0-3.6-36.1-3.6-38.8s1.2-18.1,1.7-22.2l-0.8-0.4l-2,12.6l-1.2-12.3l-1.7-0.2l-0.4,11.1
		l-2.7-11H817c0,0,2.3,14.3,2.5,17.5s-3.3,45.4-3.3,45.4h1.3l1.7-18.5h3.8l1.6,17l3.7-0.2H828.5z"/>
	<polygon fill="#000406" points="823,140.9 819.9,140.9 821.6,123.5 	"/>
	<polygon fill="#000406" points="821.5,122.3 822.3,153.9 825.6,153.9 822.7,122 	"/>
	<polygon fill="#000406" points="830.1,98 827.9,98.5 815.5,98.5 814,97.8 814,96.2 830.2,96.2 	"/>
	<polygon fill="#FFFFFF" points="830.3,95.4 829.1,93.7 815.1,93.7 814,95.5 	"/>
	<polygon fill="#000406" points="832.6,95.3 830.2,96.2 814,96.2 811.1,95.3 	"/>
	<polygon fill="#000406" points="830.1,93.8 813.2,93.8 818.6,91.3 824.3,91.3 	"/>
	<polygon fill="#000406" points="825.6,90 824.3,91.3 818.6,91.3 817.7,90 	"/>
	<polygon fill="#000406" points="824.2,90.1 824.2,89 818.8,89 818.8,90.2 	"/>
	<polygon fill="#000406" points="821.3,80.7 822.1,89.3 820.6,89.3 	"/>
	<rect x="760.2" y="175.1" fill="#56595D" width="5" height="2.2"/>
	<polygon fill="#56595D" points="758.4,175.3 752.8,175.3 752.9,177.5 758.4,177.3 	"/>
	<rect x="639.7" y="124.4" fill="#FFFFFF" width="11.1" height="0.4"/>
	<rect x="639.4" y="129" fill="#FFFFFF" width="11.6" height="0.4"/>
	<rect x="629.9" y="126.1" fill="#FFFFFF" width="9.9" height="0.7"/>
	<rect x="554.4" y="162.5" fill="#56595D" width="12.6" height="1.3"/>
	<rect x="540.1" y="165.5" fill="#56595D" width="8.6" height="1.3"/>
	<rect x="524.6" y="128.8" fill="#FFFFFF" width="1.9" height="1"/>
	<rect x="526.9" y="132.3" fill="#FFFFFF" width="1.9" height="1"/>
	<rect x="526.8" y="134" fill="#FFFFFF" width="1.9" height="1"/>
	<polygon fill="#FFFFFF" points="434,131 428.6,131.1 428.5,132.6 434.2,132.5 	"/>
	<polygon fill="#FFFFFF" points="433.9,138.3 422.9,138.3 422.9,139.9 434.3,139.6 	"/>
	<polygon fill="#FFFFFF" points="457.8,145.2 453.2,145.2 453.3,145.9 457.8,145.9 	"/>
	<polygon fill="#FFFFFF" points="452.9,148.9 449.1,148.9 449.1,149.5 452.9,149.6 	"/>
	<polygon fill="#FFFFFF" points="456.2,150.5 452.6,150.4 452.6,151.1 456.2,151.1 	"/>
	<rect x="229.9" y="126.8" fill="#FFFFFF" width="10.8" height="0.8"/>
	<rect x="234.5" y="130.5" fill="#FFFFFF" width="9.1" height="0.8"/>
	<rect x="230.8" y="138.8" fill="#FFFFFF" width="7.4" height="0.6"/>
	<polyline fill="#FFFFFF" points="276.5,132.7 282.7,132.5 282.7,130.3 276.3,131 	"/>
	<polygon fill="#FFFFFF" points="280.3,138.8 277,138.8 277,140.7 280.1,140.5 	"/>
	<rect x="335.2" y="148.1" fill="#FFFFFF" width="4.2" height="1.5"/>
	<rect x="333.1" y="152.9" fill="#FFFFFF" width="3.8" height="1.5"/>
	<path fill="#73479B" d="M290.7,102.4l-0.2-0.2h-0.2"/>
</g>
<g id="lights">
	<g>
		<g>
			<path fill="none" stroke="#F5D435" stroke-width="2" stroke-linecap="round" stroke-miterlimit="10" d="M969.6,155.7
				c-0.167,0-0.334,0-0.5,0"/>
			
				<path fill="none" stroke="#F5D435" stroke-width="2" stroke-linecap="round" stroke-miterlimit="10" stroke-dasharray="0.9992,3.9969" d="
				M965.103,155.663c-76.498-1.262-121.583-34.577-133.962-59.598"/>
			<path fill="none" stroke="#F5D435" stroke-width="2" stroke-linecap="round" stroke-miterlimit="10" d="M830.297,94.257
				c-0.067-0.153-0.133-0.305-0.197-0.457"/>
		</g>
	</g>
	<g>
		<g>
			<path fill="none" stroke="#F5D435" stroke-width="2" stroke-linecap="round" stroke-miterlimit="10" d="M814,95.5
				c-0.092,0.137-0.184,0.275-0.278,0.413"/>
			
				<path fill="none" stroke="#F5D435" stroke-width="2" stroke-linecap="round" stroke-miterlimit="10" stroke-dasharray="1.025,4.0999" d="
				M811.268,99.193c-13.264,16.331-42.829,33.593-79.723,37.836"/>
			<path fill="none" stroke="#F5D435" stroke-width="2" stroke-linecap="round" stroke-miterlimit="10" d="M729.498,137.25
				c-0.166,0.017-0.332,0.033-0.498,0.05"/>
		</g>
	</g>
	<g>
		
			<line fill="none" stroke="#F5D435" stroke-width="2" stroke-linecap="round" stroke-miterlimit="10" stroke-dasharray="0.2" x1="932.4" y1="155.6" x2="932.2" y2="155.6"/>
	</g>
	<g>
		
			<path fill="none" stroke="#F5D435" stroke-width="2" stroke-linecap="round" stroke-miterlimit="10" stroke-dasharray="0.4412" d="
			M726.6,137.5h-0.2c0,0-0.1,0-0.1,0.2"/>
	</g>
	<g>
		<g>
			<path fill="none" stroke="#F5D435" stroke-width="2" stroke-linecap="round" stroke-miterlimit="10" d="M726.4,137.4
				c-0.082,0.146-0.172,0.286-0.27,0.42"/>
			
				<path fill="none" stroke="#F5D435" stroke-width="2" stroke-linecap="round" stroke-miterlimit="10" stroke-dasharray="0.9172,3.6686" d="
				M723.147,139.86c-3.503,1.229-8.604,0.724-11.749-0.352"/>
			<path fill="none" stroke="#F5D435" stroke-width="2" stroke-linecap="round" stroke-miterlimit="10" d="M709.718,138.771
				c-0.153-0.089-0.293-0.179-0.418-0.271"/>
		</g>
	</g>
	<g>
		<path fill="none" stroke="#F5D435" stroke-width="2" stroke-linecap="round" stroke-miterlimit="10" d="M709.3,138.8
			c0,0-0.1,0-0.1-0.2H709"/>
	</g>
	<g>
		<g>
			<path fill="none" stroke="#F5D435" stroke-width="2" stroke-linecap="round" stroke-miterlimit="10" d="M706.9,138.6
				c-0.164-0.014-0.328-0.028-0.495-0.044"/>
			
				<path fill="none" stroke="#F5D435" stroke-width="2" stroke-linecap="round" stroke-miterlimit="10" stroke-dasharray="0.9763,3.9052" d="
				M702.538,138.043c-13.795-2.287-34.03-9.943-43.343-16.98"/>
			<path fill="none" stroke="#F5D435" stroke-width="2" stroke-linecap="round" stroke-miterlimit="10" d="M657.67,119.83
				c-0.126-0.11-0.25-0.22-0.37-0.33"/>
		</g>
	</g>
	<g>
		<path fill="none" stroke="#F5D435" stroke-width="2" stroke-linecap="round" stroke-miterlimit="10" d="M655.6,117.8
			c0,0-0.1,0-0.2-0.2h-0.2"/>
	</g>
	<g>
		<g>
			<path fill="none" stroke="#F5D435" stroke-width="2" stroke-linecap="round" stroke-miterlimit="10" d="M655.7,117.5
				c-0.138,0.088-0.28,0.174-0.425,0.259"/>
			
				<path fill="none" stroke="#F5D435" stroke-width="2" stroke-linecap="round" stroke-miterlimit="10" stroke-dasharray="1.0162,4.0649" d="
				M651.535,119.333c-11.815,3.613-34.221,0.913-43.021-3.017"/>
			<path fill="none" stroke="#F5D435" stroke-width="2" stroke-linecap="round" stroke-miterlimit="10" d="M606.713,115.375
				c-0.145-0.091-0.283-0.183-0.413-0.275"/>
		</g>
	</g>
	<g>
		<path fill="none" stroke="#F5D435" stroke-width="2" stroke-linecap="round" stroke-miterlimit="10" d="M604.6,113.4
			c0,0-0.1,0-0.1-0.2c0,0-0.1,0-0.2,0.2"/>
	</g>
	<g>
		<g>
			<path fill="none" stroke="#F5D435" stroke-width="2" stroke-linecap="round" stroke-miterlimit="10" d="M604.7,113.1
				c-0.011,0.171-0.025,0.338-0.043,0.502"/>
			
				<path fill="none" stroke="#F5D435" stroke-width="2" stroke-linecap="round" stroke-miterlimit="10" stroke-dasharray="0.8533,3.4132" d="
				M603.687,116.854c-1.275,2.304-3.534,3.238-5.7,2.984"/>
			<path fill="none" stroke="#F5D435" stroke-width="2" stroke-linecap="round" stroke-miterlimit="10" d="M596.349,119.409
				c-0.152-0.063-0.302-0.133-0.449-0.209c-0.115,0.119-0.232,0.236-0.352,0.351"/>
			
				<path fill="none" stroke="#F5D435" stroke-width="2" stroke-linecap="round" stroke-miterlimit="10" stroke-dasharray="1.0904,4.3617" d="
				M591.995,122.058c-5.455,2.798-12.91,2.839-19.03,0.089"/>
			<path fill="none" stroke="#F5D435" stroke-width="2" stroke-linecap="round" stroke-miterlimit="10" d="M571.03,121.156
				c-0.144-0.084-0.287-0.169-0.43-0.256"/>
		</g>
	</g>
	<g>
		
			<polyline fill="none" stroke="#F5D435" stroke-width="2" stroke-linecap="round" stroke-miterlimit="10" stroke-dasharray="0.4829" points="
			568.4,119.4 568.2,119.2 568,119.2 		"/>
	</g>
	<g>
		<g>
			<path fill="none" stroke="#F5D435" stroke-width="2" stroke-linecap="round" stroke-miterlimit="10" d="M568.4,119.1
				c-0.151,0.059-0.306,0.117-0.465,0.175"/>
			
				<path fill="none" stroke="#F5D435" stroke-width="2" stroke-linecap="round" stroke-miterlimit="10" stroke-dasharray="0.9787,3.9147" d="
				M564.176,120.353c-20.878,4.783-75.372,1.74-97.58-15.386"/>
			<path fill="none" stroke="#F5D435" stroke-width="2" stroke-linecap="round" stroke-miterlimit="10" d="M465.075,103.728
				c-0.126-0.109-0.251-0.218-0.375-0.328"/>
		</g>
	</g>
	<g>
		<path fill="none" stroke="#F5D435" stroke-width="2" stroke-linecap="round" stroke-miterlimit="10" d="M462.8,101.7
			c0,0-0.1,0-0.2-0.2c0,0-0.1,0-0.1,0.2"/>
	</g>
	<g>
		<g>
			<path fill="none" stroke="#F5D435" stroke-width="2" stroke-linecap="round" stroke-miterlimit="10" d="M462.5,101.7
				c-0.072,0.151-0.149,0.299-0.231,0.443"/>
			
				<path fill="none" stroke="#F5D435" stroke-width="2" stroke-linecap="round" stroke-miterlimit="10" stroke-dasharray="1.0112,4.0448" d="
				M459.457,104.996c-3.666,2.356-9.224,2.851-12.701,1.88"/>
			<path fill="none" stroke="#F5D435" stroke-width="2" stroke-linecap="round" stroke-miterlimit="10" d="M444.904,106.092
				c-0.145-0.092-0.28-0.19-0.404-0.292"/>
		</g>
	</g>
	<g>
		<path fill="none" stroke="#F5D435" stroke-width="2" stroke-linecap="round" stroke-miterlimit="10" d="M442.9,103.8v-0.2
			c-0.1,0-0.2,0-0.2,0.2"/>
	</g>
	<g>
		<g>
			<path fill="none" stroke="#F5D435" stroke-width="2" stroke-linecap="round" stroke-miterlimit="10" d="M442.7,103.8
				c-0.111,0.121-0.225,0.242-0.34,0.364"/>
			
				<path fill="none" stroke="#F5D435" stroke-width="2" stroke-linecap="round" stroke-miterlimit="10" stroke-dasharray="0.9791,3.9162" d="
				M439.536,106.871c-10.749,9.476-32.097,20.384-52.536,16.282"/>
			<path fill="none" stroke="#F5D435" stroke-width="2" stroke-linecap="round" stroke-miterlimit="10" d="M385.085,122.723
				c-0.162-0.04-0.323-0.081-0.485-0.123"/>
		</g>
	</g>
	<g>
		<path fill="none" stroke="#F5D435" stroke-width="2" stroke-linecap="round" stroke-miterlimit="10" d="M382,121.9h-0.2
			c0,0,0,0-0.2,0.2"/>
	</g>
	<g>
		<g>
			<path fill="none" stroke="#F5D435" stroke-width="2" stroke-linecap="round" stroke-miterlimit="10" d="M382.3,121.7
				c-0.085,0.146-0.172,0.289-0.262,0.427"/>
			
				<path fill="none" stroke="#F5D435" stroke-width="2" stroke-linecap="round" stroke-miterlimit="10" stroke-dasharray="1.0531,4.2123" d="
				M378.99,124.977c-4.003,2.232-9.569,1.361-13.277-0.18"/>
			<path fill="none" stroke="#F5D435" stroke-width="2" stroke-linecap="round" stroke-miterlimit="10" d="M363.822,123.863
				c-0.147-0.087-0.288-0.175-0.422-0.263"/>
		</g>
	</g>
	<g>
		
			<polyline fill="none" stroke="#F5D435" stroke-width="2" stroke-linecap="round" stroke-miterlimit="10" stroke-dasharray="0.4829" points="
			361.3,122 361.1,121.8 360.9,121.8 		"/>
	</g>
	<g>
		<g>
			<path fill="none" stroke="#F5D435" stroke-width="2" stroke-linecap="round" stroke-miterlimit="10" d="M360.9,121.8
				c-0.15,0.066-0.303,0.13-0.459,0.193"/>
			
				<path fill="none" stroke="#F5D435" stroke-width="2" stroke-linecap="round" stroke-miterlimit="10" stroke-dasharray="0.9803,3.9211" d="
				M356.692,123.122c-15.97,3.499-47.374-3.274-62.534-17.198"/>
			<path fill="none" stroke="#F5D435" stroke-width="2" stroke-linecap="round" stroke-miterlimit="10" d="M292.746,104.558
				c-0.116-0.119-0.232-0.238-0.346-0.358"/>
		</g>
	</g>
	<g>
		<g>
			<path fill="none" stroke="#F5D435" stroke-width="2" stroke-linecap="round" stroke-miterlimit="10" d="M292.4,104.2
				c-0.155,0.061-0.312,0.117-0.471,0.166"/>
			
				<path fill="none" stroke="#F5D435" stroke-width="2" stroke-linecap="round" stroke-miterlimit="10" stroke-dasharray="1.0437,4.1748" d="
				M287.797,104.542c-4.261-0.72-8.898-3.798-11.31-7.01"/>
			<path fill="none" stroke="#F5D435" stroke-width="2" stroke-linecap="round" stroke-miterlimit="10" d="M275.397,95.756
				c-0.072-0.153-0.138-0.305-0.197-0.456"/>
		</g>
	</g>
	<g>
		<polyline fill="none" stroke="#F5D435" stroke-width="2" stroke-linecap="round" stroke-miterlimit="10" points="274.4,92.9 
			274.4,92.7 274.2,92.7 		"/>
	</g>
	<g>
		<g>
			<path fill="none" stroke="#F5D435" stroke-width="2" stroke-linecap="round" stroke-miterlimit="10" d="M274.4,92.9
				c-0.067,0.155-0.143,0.304-0.227,0.45"/>
			
				<path fill="none" stroke="#F5D435" stroke-width="2" stroke-linecap="round" stroke-miterlimit="10" stroke-dasharray="0.8836,3.5346" d="
				M271.564,95.67c-3.416,1.76-8.67,1.772-11.201,0.686"/>
			<path fill="none" stroke="#F5D435" stroke-width="2" stroke-linecap="round" stroke-miterlimit="10" d="M259.012,95.281
				c-0.073-0.152-0.112-0.313-0.112-0.481"/>
		</g>
	</g>
	<g>
		<polyline fill="none" stroke="#F5D435" stroke-width="2" stroke-linecap="round" stroke-miterlimit="10" points="258.7,95.1 
			258.5,94.9 258.5,95.1 		"/>
	</g>
	<g>
		<g>
			<path fill="none" stroke="#F5D435" stroke-width="2" stroke-linecap="round" stroke-miterlimit="10" d="M258.9,94.8
				c-0.079,0.143-0.159,0.287-0.24,0.434"/>
			
				<path fill="none" stroke="#F5D435" stroke-width="2" stroke-linecap="round" stroke-miterlimit="10" stroke-dasharray="1.052,4.2081" d="
				M256.591,98.895c-5.271,9.138-13.558,21.986-21.651,26.758"/>
			<path fill="none" stroke="#F5D435" stroke-width="2" stroke-linecap="round" stroke-miterlimit="10" d="M233.062,126.612
				c-0.154,0.066-0.308,0.129-0.462,0.188"/>
		</g>
	</g>
	<g>
		<polyline fill="none" stroke="#F5D435" stroke-width="2" stroke-linecap="round" stroke-miterlimit="10" points="230.2,127.5 
			230,127.5 230,127.7 		"/>
	</g>
	<g>
		<g>
			<path fill="none" stroke="#F5D435" stroke-width="2" stroke-linecap="round" stroke-miterlimit="10" d="M230.2,127.5
				c-0.033,0.164-0.068,0.327-0.103,0.489"/>
			
				<path fill="none" stroke="#F5D435" stroke-width="2" stroke-linecap="round" stroke-miterlimit="10" stroke-dasharray="0.9055,3.6219" d="
				M229.145,131.485c-2.207,6.717-6.199,11.797-10.316,11.169"/>
			<path fill="none" stroke="#F5D435" stroke-width="2" stroke-linecap="round" stroke-miterlimit="10" d="M217.126,142.058
				c-0.142-0.079-0.284-0.165-0.426-0.258c-0.14,0.093-0.279,0.184-0.419,0.274"/>
			
				<path fill="none" stroke="#F5D435" stroke-width="2" stroke-linecap="round" stroke-miterlimit="10" stroke-dasharray="0.9951,3.9803" d="
				M212.763,143.932c-4.582,1.933-9.062,1.988-12.626,0.658"/>
			<path fill="none" stroke="#F5D435" stroke-width="2" stroke-linecap="round" stroke-miterlimit="10" d="M198.329,143.753
				c-0.145-0.082-0.288-0.166-0.429-0.253"/>
		</g>
	</g>
	<g>
		
			<path fill="none" stroke="#F5D435" stroke-width="2" stroke-linecap="round" stroke-miterlimit="10" stroke-dasharray="0.7474" d="
			M196,142l-0.2-0.2c-0.2-0.2-0.2,0-0.2,0.2"/>
	</g>
	<g>
		<g>
			<path fill="none" stroke="#F5D435" stroke-width="2" stroke-linecap="round" stroke-miterlimit="10" d="M191.1,144.9
				c-0.143,0.081-0.288,0.162-0.433,0.242"/>
			
				<path fill="none" stroke="#F5D435" stroke-width="2" stroke-linecap="round" stroke-miterlimit="10" stroke-dasharray="1.0483,4.1931" d="
				M186.905,146.992c-4.26,1.84-8.931,2.995-13.251,2.565"/>
			<path fill="none" stroke="#F5D435" stroke-width="2" stroke-linecap="round" stroke-miterlimit="10" d="M171.584,149.22
				c-0.162-0.037-0.323-0.077-0.484-0.12"/>
		</g>
	</g>
	<g>
		
			<line fill="none" stroke="#F5D435" stroke-width="2" stroke-linecap="round" stroke-miterlimit="10" stroke-dasharray="0.4" x1="168.6" y1="148.1" x2="168.2" y2="148.1"/>
	</g>
	<g>
		<g>
			<path fill="none" stroke="#F5D435" stroke-width="2" stroke-linecap="round" stroke-miterlimit="10" d="M165.5,149.6
				c-0.077,0.147-0.157,0.292-0.24,0.437"/>
			
				<path fill="none" stroke="#F5D435" stroke-width="2" stroke-linecap="round" stroke-miterlimit="10" stroke-dasharray="0.9906,3.9623" d="
				M162.883,153.194c-8.981,9.523-31.196,14.77-44.495,11.685"/>
			<path fill="none" stroke="#F5D435" stroke-width="2" stroke-linecap="round" stroke-miterlimit="10" d="M116.473,164.356
				c-0.159-0.051-0.317-0.103-0.473-0.156"/>
		</g>
	</g>
	<g>
		<path fill="none" stroke="#F5D435" stroke-width="2" stroke-linecap="round" stroke-miterlimit="10" d="M113.6,164h-0.2
			c0,0,0,0-0.2,0.2"/>
	</g>
	<g>
		<g>
			<path fill="none" stroke="#F5D435" stroke-width="2" stroke-linecap="round" stroke-miterlimit="10" d="M110.9,165
				c-0.145,0.079-0.291,0.158-0.439,0.236"/>
			
				<path fill="none" stroke="#F5D435" stroke-width="2" stroke-linecap="round" stroke-miterlimit="10" stroke-dasharray="0.9994,3.9976" d="
				M106.846,166.936c-22.402,9.395-66.77,9.563-86.398,0.948"/>
			<path fill="none" stroke="#F5D435" stroke-width="2" stroke-linecap="round" stroke-miterlimit="10" d="M18.64,167.029
				c-0.148-0.076-0.295-0.152-0.44-0.229"/>
		</g>
	</g>
	<g>
		
			<line fill="none" stroke="#F5D435" stroke-width="2" stroke-linecap="round" stroke-miterlimit="10" stroke-dasharray="0.4" x1="15.9" y1="165.5" x2="15.5" y2="165.5"/>
	</g>
	<g>
		<g>
			<path fill="none" stroke="#F5D435" stroke-width="2" stroke-linecap="round" stroke-miterlimit="10" d="M10.9,166.9
				c-0.159,0.045-0.32,0.089-0.481,0.133"/>
			
				<path fill="none" stroke="#F5D435" stroke-width="2" stroke-linecap="round" stroke-miterlimit="10" stroke-dasharray="1.0232,4.0929" d="
				M6.448,168.021c-13.343,3.037-31.709,4.642-43.711,4.046"/>
			<path fill="none" stroke="#F5D435" stroke-width="2" stroke-linecap="round" stroke-miterlimit="10" d="M-39.303,171.94
				c-0.167-0.013-0.333-0.026-0.497-0.04"/>
		</g>
	</g>
	<g>
		
			<line fill="none" stroke="#F5D435" stroke-width="2" stroke-linecap="round" stroke-miterlimit="10" stroke-dasharray="0.2" x1="-42.2" y1="171.7" x2="-42.4" y2="171.7"/>
	</g>
</g>
</svg>
