<?xml version="1.0" encoding="UTF-8"?>
<svg id="Layer_1" xmlns="http://www.w3.org/2000/svg" width="142" height="160" version="1.1" viewBox="0 0 142 160">
  <!-- Generator: Adobe Illustrator 29.6.1, SVG Export Plug-In . SVG Version: 2.1.1 Build 9)  -->
  <defs>
    <style>
      .st0 {
        opacity: .6;
      }

      .st0, .st1 {
        fill: #fff;
      }
    </style>
  </defs>
  <polygon class="st1" points="74.5 58.1 74.3 59.1 73.5 58.3 73.8 59.4 72.8 59.1 73.6 59.8 72.5 60.1 73.6 60.3 72.8 61.1 73.8 60.8 73.5 61.8 74.3 61 74.5 62.1 74.8 61 75.5 61.8 75.2 60.8 76.2 61.1 75.5 60.3 76.5 60.1 75.5 59.8 76.2 59.1 75.2 59.4 75.5 58.3 74.8 59.1 74.5 58.1"/>
  <polygon class="st1" points="46.6 1.8 46.1 3.5 44.9 2.2 45.4 3.9 43.7 3.4 45 4.7 43.2 5.1 45 5.5 43.7 6.8 45.4 6.3 44.9 8 46.1 6.7 46.6 8.4 47 6.7 48.2 8 47.7 6.3 49.4 6.8 48.2 5.5 49.9 5.1 48.2 4.7 49.4 3.4 47.7 3.9 48.2 2.2 47 3.5 46.6 1.8"/>
  <polygon class="st1" points="46.8 69.9 46.6 70.6 46 70.1 46.3 70.8 45.5 70.6 46.1 71.2 45.3 71.4 46.1 71.6 45.5 72.1 46.3 71.9 46 72.7 46.6 72.1 46.8 72.9 47 72.1 47.5 72.7 47.3 71.9 48.1 72.1 47.5 71.6 48.3 71.4 47.5 71.2 48.1 70.6 47.3 70.8 47.5 70.1 47 70.6 46.8 69.9"/>
  <polygon class="st1" points="31.4 31.7 31.3 32.2 31 31.9 31.1 32.3 30.7 32.2 31 32.5 30.5 32.6 31 32.8 30.7 33.1 31.1 33 31 33.4 31.3 33.1 31.4 33.5 31.5 33.1 31.9 33.4 31.7 33 32.2 33.1 31.9 32.8 32.3 32.6 31.9 32.5 32.2 32.2 31.7 32.3 31.9 31.9 31.5 32.2 31.4 31.7"/>
  <path class="st1" d="M57.1,94.8c-.2-.1,0,.2-.2,0,0,0,.1,0,.2,0"/>
  <path class="st0" d="M92.8,85c.7.5.8,1.6,1.4,2.3,0,0-.2,0,0,.2.6.6,1,1.9,1.1,3h0c0,.2.3.3.3.5,0,0,0,0-.1,0,.1,0,.2.3.3.4,0,0,0,.1-.1.2h.2c.4.3.2.8.5,1.2,0,0,0,0,0,0,.4.6.6,1.5.9,2.3,0,0-.1,0-.2,0,.1,0,.2.2.3.4-.1.1.2.3.2.6h0c.2.1,0,.3.2.4h0c.2.2,0,.4,0,.6h0c0,.1,0,.2,0,.3h0c0,.3,0,.5.2.5-.1.1,0-.3-.2,0,.3,1,.4,2.1.3,3.1,0,.1,0,.2-.1.2,0,.1,0,.4,0,.5,0,0,0,0,0,.1,0,.2.1.2,0,.4,0,0,0-.1-.1-.1,0,.2,0,.4,0,.6,0,0,0,0,0,0,0,.3,0,.4,0,.6h0c-.2.2.2,0,0,.3,0,0,0,0,0,0,0,.3-.1.7-.1,1,0,0,0,0,0,0-.1.3-.3.5-.4.8,0,0-.2-.1-.3.1.2,0-.2.5,0,.4-.2.2-.5.5-.5.7,0-.1-.2,0-.1-.2h-.2s.1,0,0,0c0,0-.2.4-.3.4,0,.2,0,.5-.3.7,0-.2-.2,0-.1-.2,0,0,0,.1,0,.3,0,.1,0,.3,0,.3,0,0,0,0-.2,0,0,0,0,0,0,.2,0,0-.4.3-.5.1,0,0,.1-.1,0-.1-.2.1-.2.2-.3.2h0c-.1,0-.3.2-.2.2,0,0,0,0,0,0,0,.1-.3.3-.4.3,0,0,0,0,0-.1-.2.2-.5.4-.8.5,0,0,0-.2.1-.1-.4,0-.8.4-1.1.3,0,0,0,.1,0,0-.2,0-.2,0-.3,0,0,0-.1,0-.3,0,0,0,0,0,0,0-.2,0-.9.3-1.3.2,0,0-.2.2-.3.2h0c0-.2-.3,0-.3-.2-.2.1.8-.1.5,0,0,0-.4.2-.3,0-.2,0-.4.1-.5,0,0,0,.2-.1,0-.1-.3,0,0,0-.3,0h-.1c0,.1-.2,0-.1.1,0,0-.4,0-.4-.1h0c-.1-.1-.2,0-.3,0,0,0,0,0,0,0,0,.2-.3,0-.4.1-.2,0-.6,0-.7-.2-.2,0-.4,0-.6,0,0,0,.1,0,.1,0-.1,0-.2,0-.3,0,0,0-.2-.2-.4-.3-.2,0-.1.2-.2.2-.1-.2-.5,0-.7-.2,0,0,.3,0,.1-.1-.1-.2-.4,0-.6,0v.2c0-.1-.4,0-.3-.2-.1,0-.3-.1-.3,0-.4-.2-1.1-.2-1.3-.5,0,0-.2,0-.2,0,0,.1.2,0,.2,0,0,0,0,0,0,0-.1,0-.2-.1,0-.2-.3-.2-.4.2-.7,0,0,0,0,0,0-.1h-.2c-.2,0,0-.1,0-.3-.1,0-.3,0-.4,0v-.2c0,.1-.2,0-.3,0h0c0,0-.2,0-.2,0,0,0,.1.1.2.2,0,0-.2,0-.3,0,0,0-.2-.1-.3-.2-.1,0-.2,0-.2,0,0,0-.2,0,0-.1,0,0,0,0,.2,0,0,0,0-.2-.2-.1-.1,0,0,.2-.2,0,0,0,0,0,.2,0h-.2c0-.1,0,0,0,0,0,0,0,0,0,0-.1,0-.3,0-.4,0-.1,0-.2-.1-.3-.2h0c-.1-.1-.3-.1-.4,0h0c0,0-.2,0-.3,0-.1-.1,0-.4-.2-.3-.2,0-.3,0-.3.2-.3-.2-.7-.2-.9-.4,0,0,0,0-.1,0-.4-.2-1-.3-1.3-.6.1,0,0,0,0-.1-.1,0,0-.1-.2,0,0,0,0,.1,0,.2-.3,0-.7-.2-.8-.4,0,0,0,0,0,0,0-.1-.1-.2-.3-.3h0c0,0,0,0,0,0,0,0-.1.1-.3,0,0,0,0,0,0-.1-.2,0-.4,0-.6-.1v-.2c-.2,0-.3,0-.2,0-.2-.2-.4-.3-.5-.4-.6,0-1.3-.3-1.8-.6h0c-.1-.2-.1,0-.2,0,0,0,0-.2.1-.2-.2-.2-.3,0-.5,0,0,0,.1,0,0,0,0,0-.3-.2-.4-.1,0,0,0-.1.1-.2h-.2c0-.2.5,0,.4-.3h-.1c0-.2.4,0,.1-.2-.2,0-.4.1-.3.2-.3-.1-.3.2-.6,0,0-.1.2.1.2,0,0-.2-.3,0-.4-.2.1.1,0,.2-.2.2-.1-.1.2,0,0-.2,0,0-.3,0-.2.1-.2.1-.2-.2-.4-.1,0-.1.4-.1.2-.3,0,.1-.4,0-.3.2,0,0,0-.2,0-.2,0-.1-.4,0-.3-.2h-.1s0,0,0-.1c-.1,0-.4,0-.3-.2,0,0-.3-.2-.3,0,.1.2.2,0,.2.2,0-.2-.2-.1-.3-.1h0c0,0-.2-.2-.3-.1,0,0,0,0,0-.1h-.1c-.2,0,0-.1-.2-.2h.2s0-.1-.2-.1c0,0-.2.1-.3.2-.1,0,0-.1-.2-.1h.2s0-.2-.2-.3c-.1,0-.3,0-.2.1,0,0-.2-.2,0-.2-.2,0,0,.1-.2,0,0,0-.2-.3-.3-.4h.2s-.1-.1-.1-.1c.2,0,0-.1.1-.2,0,0-.2,0-.3,0,.1.3-.4.1-.4.3-.3-.1,0-.5-.4-.4,0,0-.2.1,0,.2-.2-.1-.2.1-.4-.1.2,0,0-.3.2-.2,0,0,.1.1.1.1,0-.1.1-.2,0-.3-.1,0-.3-.1-.3,0,0,.1.2,0,0,.2-.2-.1-.2-.3-.4-.2.2,0,.1.2,0,.3h-.2c0,0,0-.1,0-.1-.2-.2-.2,0-.4-.1v-.2c0,0,.3.3.4,0-.2-.1-.3,0-.4-.2,0,0,0,0,.1,0,0,0,0-.3-.3-.3-.2,0,0,0-.1.1-.3-.1-.4-.1-.6-.2.1-.1-.3-.2,0-.2,0,.1.4.4.6.3,0-.2.2.2.4,0-.2-.1-.1-.3,0-.4,0,0-.1,0-.2,0,0,0,0,.1,0,.2-.2-.2-.5-.3-.7-.3,0,0,0-.2.1-.1-.3-.2-.6-.4-.8-.6,0,.3-.3-.2-.3,0,.1.1.2.3,0,.3,0,0,0,0,0-.1-.2,0,0-.3-.3-.2.3.1.2-.2.3-.2-.2,0,0,0-.1-.2-.2,0-.5-.1-.7-.3-.2-.3-.6-.4-.9-.6,0-.1,0-.2,0-.3-.2-.1,0,.2-.2,0h0c0,0-.3-.4-.5-.2h.2c0-.1,0-.1-.1-.1,0,0,0-.1.1-.1,0-.2-.3-.2-.5-.3v.2c-.3-.1-.4-.3-.6-.5h0c0,0-.2-.1-.2-.1,0,0,0-.2-.1-.2h.5c0,.2-.2,0-.2.2,0,.1.3.2.3.2,0,0,0,0-.2,0,0-.1.2,0,.3,0,0,0,0-.1-.1,0,.1,0,.2,0,.4.2-.1,0,0,.1,0,.1,0,0,.3,0,.4.1,0,.2.4.2.6.3-.2,0-.3,0-.5,0,0,.1.2.1.3.2.1,0,.2-.1.5,0h0c.2.2.3,0,.5.2.3.3.7.5,1,.7h0c.3,0,.5.3.8.4.3.3.8.4.9.7.7.3,1.2.6,1.9,1h-.2c.2,0,0,.2.2.2,0-.2.2,0,.4,0,.2.3.7.4,1,.5h0c.3,0,.6.4.9.6,0,0,0,.2.1.2.3,0,.3,0,.6,0,.2.1.5.3.6.5.8.2,1.5.7,2.3,1h0c.8.3,1.6.9,2.3,1.1h-.1c.2.3.5.3.5.2.2.1.5.2.6.4.2.1.3,0,.5,0,.4.2.5.3.9.4h0c0,0,0,0,0,0,.2,0,.5.3.5,0,.4.3,1,.3,1.3.6,0,0,0,0,.2,0,.4.2.7.4,1,.4,0,0-.1,0,0,.1,0,0,0,0,.2,0,.6.1,1.2.6,1.7.7,1,.2,2,.6,3,.8h0c.4,0,.7.4,1,.2,0,0,.3,0,.2.2.3,0,.7.3,1.1.2,0,0,0,0,0,0,.4.2.7,0,1.1.2,0,0-.1,0-.1,0,.1.1.4-.1.4,0,0,0,0-.1,0-.1.9.2,1.8.1,2.7,0,.6.1,0,.4.6.2,0,0,0,0,0,0,.2,0,.3.2.5,0,0-.1,0,0,0-.2.4,0,.5.2.8,0h0c.3-.2.8-.2,1-.5.9-.3,1.8-.7,2.4-1.3.7-.6,1.2-1.3,1.5-2.1.4-.8.6-1.7.7-2.6,0-.9,0-1.9,0-2.8.1-.5.1-.5,0-1,0,0,0,0,0,0-.2,0,0-.4-.2-.4,0-.4-.1-.7-.2-1.1,0-.3-.2-.7-.3-1.1,0,.1.2.1.1,0h-.1c0-.1,0-.2,0-.2,0,0-.1-.2-.2,0-.6-1.8-.9-3.7-1.7-5.4-.1-.4-.4-1-.6-1.4-.4-1.4-.8-2.7-1.6-3.9,0,0,.4,0,.8.5"/>
  <path class="st1" d="M57.4,95c0,0,.1.2,0,.2,0,0,0-.2,0-.2"/>
  <path class="st1" d="M60.7,98.2s0,0,0,0c0,0-.1,0-.1,0,0,0,0,0,.1,0"/>
  <path class="st1" d="M61.7,98.9c0,0-.3,0-.4-.1h.4Z"/>
  <path class="st1" d="M62.4,99.7c0,0,0,.1,0,0,0,0,0,0,0,0"/>
  <path class="st1" d="M62.6,99.6c0,0,0,.1.1.2,0,0-.2,0-.1-.2"/>
  <path class="st1" d="M64.5,101c0,0,.2,0,.2.1,0,0-.3,0-.2-.1"/>
  <path class="st1" d="M65.5,101.5s0,0,0,0c0,0,0,0,0,0h0Z"/>
  <polygon class="st1" points="84.2 109 84.1 109 84.1 108.9 84.2 109"/>
  <path class="st1" d="M93.1,108.8c.1,0,.1,0,.1,0-.1,0,0,0-.1,0"/>
  <polygon class="st1" points="96.7 105.5 96.6 105.5 96.5 105.4 96.7 105.5"/>
  <path class="st1" d="M90.4,83.5c.5.5-.2-.4.4.3-.1,0-.2-.1-.4-.3"/>
  <path class="st0" d="M55.5,92.5c-1.5-1.8-2.7-4.6-4-6.8-.1-.3.2,0-.1-.6-1.4-2.1-2.8-5.7-3.8-8.5h.1c-.2-.4-.6-1-.8-1.5,0,0,.1.2.1,0-.2,0-.5-1-.6-1.2,0-.2,0-.2,0-.6l-.2-.3c-.6-.8-.9-2.2-1.5-3.3,0,0,.1.2.1,0-1-1.9-1.9-4.4-2.8-6.5,0,0,.2.1.2,0-.2,0-.5-.7-.7-1.3,0-.3-.5-1-.7-1.7h0c-.3-.4-.2-.7-.5-1.1v-.4c-.3-.2-.2-.8-.5-1.2h0c-.2-.4-.2-.6-.4-1h0c-.4-.9-.5-1.4-.6-1.4,0-.3.4.8.4.3-1.2-2.8-2.4-5.7-3.5-8.6,0-.3-.1-.6-.1-.7-.1-.3-.4-1.1-.6-1.3,0,0,0-.2,0-.4-.1-.5-.4-.5-.5-1.1.1.2.2.3.2.2-.3-.5-.5-1.1-.7-1.7,0,0,.1.2.2.2-.3-.6-.4-1.2-.6-1.7l.2.2c-.2-.9-.3-.2-.5-1,0,.2,0,.1.1.1-.4-.7-.7-1.9-1-2.6,0,0,0,0,0,0-.3-.8-.5-1.6-.8-2.5,0-.3.2,0,0-.8-.2,0-.5-1.4-.5-.9-.2-.7-.4-1.9-.6-2.4.1.3.1-.4.3.2v-.5c0,0,0,.5.1.3,0-.3-.3-1.2-.4-1.5-.2-.5-.5-1-.7-2,.1.4.1-.3.2,0l-.5-1.2c0-.3.1,0,0-.5,0,0,0-.2-.2-.3,0-.1-.2-1.3,0-1.5,0-.1.1.5.1.1,0-.6-.1-.6-.2-1.2h0c0-.4-.2-1.1-.2-.7,0,.3,0-.1,0,.3-.1-.3-.2-.9-.2-1.5,0,.2,0,.2.1.2,0-.4-.1-.8-.2-1.2,0-.4,0-.8,0-1.3,0,0,.1.3,0,.5.1-1.1,0-2.4.3-3.3,0,.2-.1,0-.1,0,.1-.5.2-.5.2-.9,0,0,0-.4.1-.8,0-.2,0,0,0,.2,0-.3.2-.9.4-1.6.1-.3.3-.7.4-1.1.2-.3.4-.6.5-.9,0,0,.3-.7.4-.9,0,0,0,.1,0,.2.2-.2.6-.7.7-.7.2-.3-.2.2-.5.6-.3.5-.5.9-.4.6,0,0,.2-.3.3-.5.1-.2.2-.4.2-.3.3-.4.7-.9,1.1-1.2-.1,0-.2.4,0,.1.6-.5.1-.2.6-.6l.3-.2c0-.1.6-.4.3-.3.1,0,1-.5,1-.4v.2c.3-.1.4-.3.7-.5,0,0,.1,0,.1,0,0-.2.8-.2,1.2-.4.4,0,.8,0,1.2-.1.4,0,.7,0,.9,0,.6,0,1-.1,1.7,0-.1,0-.3,0-.3,0,.4,0,.5,0,.8,0,0,0,.8.2,1.2.3.5,0,.4-.1.4-.2.2.1.6.2,1,.2.4,0,.8,0,1.1.3-.2,0-.8,0-.4,0,.4.3,1,.2,1.7.5v-.2c0,0,.3.2.5.3.2,0,.4.2.3.2.3,0,.8.5.8.3,1.1.8,2.7,1.8,3,2.7,0,0,.2.2.3.3,0,0,.2.2.2,0-.1-.3-.4-.3-.4-.4.1.1.2.1.2.1.3.3.4.6,0,.4.2.4.4.5.7.7.1,0,.2.2.4.3.1.1.3.3.4.6,0,0,0,0,.1.4,0,0,.1.1.2.2.1.1.2.2.2.2.4.7,0,.4,0,.5.2.3.5.7.6.9,0,0,0,.1,0,.2,0,.1,0,.2,0,.2,0-.4.2.3.3.4h-.1c0,0,.2.3.4.5,0,0-.2-.5-.3-.7.1.2.3.4.5.6-.1,0,.2.6.3.9.1.3.3.3.3.4,0,0,.2.5,0,.3,0-.1,0-.3-.2-.4,0,.2,0,.2.2.7.2.3.2-.2.4.5,0-.2-.2-.2-.3-.3l.2.6h.1c0,0,0,0,0,0,.2.1.4.9.6,1,.1.3.2.7.3,1h0c0,.3.3.8.5,1h0c0,.2.3.6.4.9.1.5-.3.3,0,.8.2.5.5.7.5.5.3.9.8,1.9,1,2.8,0,.1,0,0,.2.3.4,1.3,1.1,2.8,1.3,3.9-.2-.4-.1,0-.2,0,.2.3,0,.4.2.5,0,0,.1,0,0-.4.3.8.7,2,.8,2.5,0-.2,0,0,.1,0-.2,0,0,.6.2,1h.1s0,.4,0,.4c0,.2.2.1.3.6,0,0,0,0,0,.2.2.4.5,1.1.6,1.6v.5c0,.2.3.6.2.2.2.9.4,1.4.3,1.7.7,1.4,1.4,3.5,2,5.2h0c0,.4.2.2.3.5-.1-.1,0,.4-.2,0,.1.7.4.8.6,1.2.1,0-.2-.3,0-.3,0,0,.2.9.4,1,0,.2-.1,0-.2,0l.2.4c0,.5-.7-1-.7-.4v.4c.1.4-.3-.9,0,0,.2.4.5.7.4.3.3.8.4.3.8,1.2,0,.3-.3-.7-.3-.5,0,.5.4.8.5,1.2-.1-.4.2-.1.3.1.1.5-.2-.2,0,.4.1,0,.4.6.2.1.3.2.2.7.5,1,0,.3-.5-.6-.3.2,0,0,.2.1.3.3.1.2.2.3.2,0,0,.3,0,.3-.1.2,0,.4.6.8.4,1.1h.2c0,.2,0,.4,0,.6.1.3.7,1,.5,1,0,0,.4.8.4.5-.2-.5-.4-.5-.3-.8,0,.4.3.7.5.9h0c.1.2.3.6.4.7-.1-.1-.1,0,0,.1h.2c.4.7,0,.4.3,1l-.3-.4c0,0,.1.4.3.6.2,0,.4.2.5.3.2.3,0,.2.3.5l-.4-.4c0,0,0,.4.3.8.2.3.6.6.4.2.1.2.3.6.1.4.3.5,0-.1.4.3,0,.2.3.8.5,1.2,0,0-.1,0-.2-.2-.1,0-.2-.2-.2-.2,0,0,0,0,0,.2v.2c-.3-.3.1.3-.1.1.1.2.3.4.5.6-.2-.7.7.5.8.2.6.8,0,.8.8,1.5,0-.2.4.1,0-.3.3.5.4.2.8.9-.4-.4.2.6-.4,0,0,0-.2-.4-.3-.5,0,.3-.2,0,.2.6.2.3.6.7.6.6,0,0-.4-.5-.1-.3.5.6.4.8.8.9-.3-.4-.3-.6-.2-.6l.4.4h-.1c.5.7.3,0,.8.8v.4c-.1,0-.6-1.1-.7-.8.3.5.5.5.8,1,0,0-.2-.2-.3-.3.1.2,0,.5.6,1.1.3.3.1,0,.2,0,.6.7.8.9,1.2,1.3-.2,0,.6.8.1.4-.1-.3-1-1.3-1.3-1.5,0,.4-.4-.6-.7-.6.4.6.3.7.3.8.1.2.3.3.4.4.1,0,0-.2,0-.3.5.7,1,1.3,1.4,1.5.1.2,0,.3-.2,0,.7.7,1.3,1.6,1.9,2.3-.3-.6.7.8.6.3-.3-.4-.5-.8-.2-.7.2.2,0,0,0,.2.3.2.3.6.7.8-.6-.6-.3,0-.5,0,.5.4,0,0,.3.5.5.4,1.1,1,1.6,1.5.5.8,1.5,1.7,2.1,2.3.2.4,0,.3.2.6.4.4-.1-.4.3.2h0c.2.1.9,1.1,1.2,1.1h-.3c0,0,.2.1.3.2,0,0,0,.2-.2,0,.2.4.7.7,1.1,1.1l-.2-.3c.7.6,1,1.1,1.7,1.7h0c0,0,.4.4.4.4-.2,0,.1.4.4.5l-1.1-.8c-.2-.3.4.2.3,0,0-.2-.7-.8-.8-.8.2.2.2.2.4.4,0,.2-.4-.2-.6-.3.1.1.2.3.3.3-.3-.2-.5-.4-.9-.8.3.2,0-.2,0-.1-.1,0-.5-.3-.9-.8-.2-.4-.9-.9-1.4-1.4.3.1.7.4,1,.7-.3-.4-.4-.4-.7-.8-.2-.1-.5-.1-.9-.6h0c-.4-.5-.5-.4-1-.9-.8-.9-1.7-1.9-2.3-2.6h0c-.5-.4-1.2-1.4-1.7-1.9-.7-1-1.8-2-2-2.6-.7-.8-1.4-1.6-2-2.4-.3-.4-.6-.8-.9-1.2-.3-.4-.6-.9-.9-1.3l.3.2c-.3-.3,0-.3-.3-.6.2.4-.4-.4-.7-.5-.5-.9-1.3-1.9-1.8-2.6h0c-.6-.7-1.1-1.7-1.6-2.7,0-.1,0-.3-.2-.6-.4-.4-.6-.7-1-1.5-.1-.3-.3-.7-.5-1.1-.2-.4-.3-.8-.4-1.1-.6-1.1-1-2.2-1.5-3.4-.4-1.2-.9-2.3-1.3-3.5v-.2c-1-2.2-1.7-5.1-2.4-7.1h.2c-.1-.5-.5-1.3-.6-1.1-.1-.6-.6-1.5-.5-2-.2-.6-.3-.7-.5-1.3-.3-1.3-.5-1.8-.9-2.9v.3c.2.1.3.1.2-.2-.2-.4-.5-1.6-.6-1.1-.3-1.3-1.1-2.9-1.4-4.2,0,.1-.1-.2-.2-.3-.4-1.1-.8-2.3-1.2-3.1,0-.2.2.2,0-.2-.1-.3,0,0-.2-.3-.8-1.7-1.4-3.6-2.1-5.1-.7-1.4-1.4-2.7-2.2-4-.8-1.3-1.8-2.4-2.8-3.3h0c-.4-.2-.8-.6-1.2-1-.4-.3-.8-.6-1.2-.7-.2-.1-.7-.4-.6-.4-.2,0-.4-.1-.6-.2-.2,0-.5-.2-.8-.3-.3,0-.5-.2-.8-.3-.3,0-.6-.1-.8-.1,0,0,.2,0,.3,0-.3,0-.5-.1-.8-.2-.3,0-.5,0-.8,0-.5,0-1.1-.1-1.6-.1.1,0,.3,0,.4,0-.5,0-1.1.2-1.3,0-.3,0-.2.1,0,.1h-.2s-.1,0,0,0h-.1s-.5,0-.5,0c-.2,0-.3,0-.5,0h-.5c0,0-.5.1-.5.1h-.5c0,.1-.5.2-.5.2l-.5.2c-1.2.4-2.3,1.2-3.1,2.1-.3.3-.5.5-.6.5,0,0-.1,0-.1,0,0,0,0-.1-.4.5-.1,0,0,.1,0,.1-.1.3-.3.4-.4.6-.1.2-.3.3-.3.5.2,0,0,.3,0,.3-.3.5-.4.8-.5,1.1-.1.3-.2.6-.2,1h0c0,.2,0,.5,0,.8,0,.3,0,.6,0,.9,0,.6,0,1.1,0,1.6-.1,3,.3,6,.8,8.9.6,2.9,1.3,5.8,2.2,8.6,1.6,5.7,3.7,11.1,5.9,16.7.3,1.4.4,1.5,1,2.9,0,0,0-.1,0,0,.2,0,.4,1,.6,1.1.8,2.1,1.6,4,2.4,6.1-.1-.3-.3-.5-.2,0l.3.4h0c.1.4.3.6.3.3,2.2,5.3,4,10.7,6.4,15.8.2.6.6,1.4.9,2.1.4.7.7,1.5,1.1,2.1,1.7,3.9,3.4,7.5,5.9,11,0,0-.6-.2-1.7-1.7"/>
  <path class="st1" d="M89.8,82.9c0-.2-.4-.6,0-.3,0,0,.1.3,0,.3"/>
  <path class="st1" d="M81.3,72.5s-.1-.2-.1-.2c.1.1.3.2.3.3-.1-.1-.1,0-.2-.1"/>
  <path class="st1" d="M79.1,69.8c0,0,.6.5.9.9l-.9-.9Z"/>
  <path class="st1" d="M77.3,67.2c-.1-.2,0-.2.2,0,0,0-.1,0-.2,0"/>
  <path class="st1" d="M77,67.1c-.2-.2-.2-.3-.3-.5,0,0,.4.5.3.5"/>
  <path class="st1" d="M73.2,61.4c0-.1-.3-.4-.4-.6,0,.2.5.6.4.6"/>
  <path class="st1" d="M71.4,58.7c0,0,0-.1-.1-.2,0-.2,0,0,.2.1h0Z"/>
  <path class="st1" d="M28.5,20.5c0,.4,0,.2,0,.3,0-.3,0,.1,0-.3"/>
  <polygon class="st1" points="31.2 34.2 31.2 34.1 31.3 34 31.2 34.2"/>
  <path class="st1" d="M99,117.6c0-.1-.1,0,0,0,0,0,.1,0,0,0"/>
  <path class="st0" d="M99.4,116.1c.5,0,.6.6,1,.8,0,0-.2.1,0,.2.5.1.7.7.8,1.2h0c0,.1.2,0,.3.2,0,0,0,0,0,0,.1,0,.1.1.2,0,0,0,0,.1,0,.2h.1c.3,0,.2.3.5.3,0,0,0,0,0,0,.3.2.6.5.8.8,0,0-.1,0-.1,0,.1,0,.2,0,.3,0,0,.1.2,0,.2.2h0c.2,0,0,.2.2.1h0c.2,0,0,.3.1.3h0c0,0,0,0,0,.1h0c.1.1,0,.2.2.2,0,.1-.1,0-.2,0,.4.3.6.7.9,1.1,0,0,0,.1,0,.2,0,0,.1.1.2.1,0,0,0,0,0,0,0,.1.2,0,.2.1,0,0-.1,0-.1,0,.1,0,.2.1.3.2,0,0,0,0,0,0,.2,0,0,.2.2.2h0c0,.2.2,0,.2.1,0,0,0,0,0,0,.2,0,.3.2.4.3,0,0,0,0,0,0,0,.1.1.2.2.3,0,0-.2,0-.1.2.2,0,.2.2.3,0,0,.1,0,.3.1.4,0,0-.2.1-.2,0h0c0,.1,0,0,0,0,0,0,.1.1.1.2.1,0,.3,0,.4.2,0,0-.2.1-.2,0,0,0,0,0,.2,0h.2c0,0-.1,0,0,.1,0,0,0,0,.1,0,0,0,.1.2,0,.3,0,0,0,0,0,0,0,0,0,0,.1.2h0c0,0,.1.2.2,0,0,0,0,0,0,0,.1,0,.2.1.2.2,0,0,0,0-.1,0,.2,0,.3.2.3.3,0,0-.2,0-.1,0,0,.2.2.3.1.5,0,0,.1,0,0,0,0,0-.1.1,0,.2,0,0,0,0,0,.1,0,0,0,0,0,0,0,0,0,.1.1.3,0,.1,0,.3,0,.4,0,0,.2.1.1.2h-.1c0,0,0,.1-.1.1.1.1,0-.4,0-.3,0,0,.1.2,0,.2,0,0,0,.2,0,.3,0,0-.1-.1-.1,0,0,.1,0,0,0,.2h0c0,.1,0,.2,0,.2,0,0,0,.2-.2.1h-.1s0,0,0,.2c0,0,0,0,0,0,.2.1-.1.1,0,.3-.2,0-.3.2-.4.2,0,.1-.1.2-.2.2,0,0,0,0,0,0,0,0,0,0-.1,0,0,0-.2,0-.3-.1,0,0,0,.2,0,.3-.1-.2-.3.2-.4,0,0,0,.1-.1,0-.2-.1-.2-.2.2-.3,0v.2c0-.1-.1.1-.1,0,0,0-.1,0-.1.1,0,0,0,0,0,0h0s0,0,0,0h0s0,0,0,0h0s0,0,0,0h0s0,0,0,0c0,0-.1,0-.2,0-.1,0-.3,0-.3-.2,0,0-.1,0-.1,0,0,.1,0,0,0,0,0,0,0,0,0,0,0,0-.1,0,0-.2-.1-.1-.2.3-.4.1,0,0,0,0,0-.1h-.1c-.1,0,0,0,0-.2,0,0-.1,0-.2,0v-.2c0,.1,0,0-.1,0h0c0,0,0,0-.1,0,0,0,0,.1,0,.2,0,0-.1,0-.2,0,0,0,0-.1-.1-.2,0,0-.1,0-.1,0,0,0,0,0,0-.1,0,0,0,0,0,0,0,0,0-.1,0-.1,0,0-.1.2-.2,0,0,0,0,0,.1,0h0c0-.1,0,0,0,0,0,0,0,0,0,0,0,0-.2,0-.3,0,0,0,0-.1,0-.2h0c0,0,0-.1-.2-.1h0s0,0-.2,0c0-.1.3-.3,0-.3,0,0-.2,0-.3,0,0-.2-.3-.2-.3-.4,0,0,0,0-.1,0-.1-.2-.4-.4-.3-.6,0,0,0,0,.1,0-.1,0,0-.1,0,0,0,0-.1,0-.1.1-.1,0-.2-.3-.2-.4,0,0,0,0,0,0,.1,0,.1-.2,0-.2h0s0,0,0,0c0,0-.2,0-.1,0,0,0,0,0,0,0-.1,0-.3,0-.2-.2h0c0-.1-.1-.2-.1,0,0-.2,0-.3,0-.3-.4-.1-.5-.5-.6-.8h0c0-.1-.1,0,0,0,0,0,.1-.1.2,0,0-.1-.2-.1-.2-.2,0,0,0,0,0,0,0,0,0-.2-.1-.1,0,0,.1,0,.2,0h0c.1-.2.3,0,.5,0h0c.1-.1.2,0,.2-.1,0,0-.3,0-.3,0,0-.1-.3,0-.4-.1,0,0,0,.1.1,0,0-.1,0-.1,0-.2,0,0-.2,0-.2,0,0,0,.1,0,.1,0,0,0-.2,0-.2,0-.2,0,0-.1-.1-.1.1,0,.3,0,.3,0-.1,0-.2-.1-.4,0,0,0,.1,0,.2,0,0,0-.3-.1,0-.2h-.1s0,0,.1-.1c0,0-.2-.1,0-.2,0,0,0-.1-.2,0,0,.1.1,0,0,.2.1,0,0-.1-.1-.2h0s0-.1-.1-.1c0,0,0,0,.1,0h-.1c0-.1.2,0,.1-.2h.1c0,0,0,0,0,0-.1,0-.2,0-.3,0,0,0,.1,0,0,0h.1c0,0,.1,0,.1-.1,0,0-.2-.1-.2,0,0,0,0-.1.1,0,0,0-.1,0-.2,0,0,0,.1-.2.2-.3h.2c0,0,0,0,0,0,.1,0,0,0,.2,0,0,0,0,0,0-.1-.2.2-.3,0-.5,0,0-.1.5-.2.1-.3,0,0-.2,0-.1,0,0-.1-.2,0-.2-.2,0,0,.2-.1.3,0,0,0,0,0,0,0,0,0,.2,0,.2-.1,0,0,0-.1-.2-.1-.1,0,0,0,0,0,0-.1.1-.2-.1-.2,0,0,0,.1-.2.1h0c0,0,0,0,0,0,0-.2-.1,0-.2-.2h.1c.1,0,0,.1.2,0,0,0-.1-.1,0-.2,0,0,0,0,0,0,0,0,.3-.1,0-.2,0,0,0,0-.2,0,0-.1-.1-.2-.2-.3.2,0,0-.2.2,0,0,0,0,.3.1.3.2,0,0,.1.2.1,0-.1.2-.1.3-.2,0,0,0,0,0,0-.1,0-.1,0-.2,0,0-.1,0-.2-.2-.3,0,0,.2,0,.2,0,0-.1,0-.3,0-.5-.2.1,0-.2-.2,0,0,0-.1.2-.2.1,0,0,0,0,.1,0-.1,0,.1-.1,0-.2,0,.1.2,0,.4,0,0,0,.1,0,0-.1,0,0-.2-.2-.2-.3.1-.2,0-.4,0-.5,0,0,.2,0,.3-.1,0,0-.2,0-.1,0h0s0-.2-.2-.2h.2s0,0,0,0c0,0,.1,0,.2,0,.1,0,0-.2,0-.2h0c-.1,0,0-.2,0-.3h.1s0,0,0,0c.1,0,.2,0,0-.1l.3.2c0,0-.1,0-.2,0,0,0,0,.2,0,.2,0,0,0,0,0,0,.1,0,.1,0,.2,0,0,0,0,0,0,0,0,0,0,0,.1.2,0,0,0,0-.1,0,.1,0,.2,0,.2.2-.1,0,.1.2.1.3-.1,0-.2,0-.3-.1,0,0,0,0,0,.2,0,0,.2,0,.3.1h0c0,.1.2,0,.2.2,0,.2,0,.4,0,.5h0c.2,0,.1.3.2.4,0,.2.2.4,0,.5.1.3.2.6.3.9h-.1c.1,0,0,0,0,0,0,0,.2,0,.2,0,0,.2,0,.3.2.5h0c.2.1,0,.3,0,.5,0,0-.1,0,0,.1.2,0,.2.1.3.2,0,0,0,.3,0,.4.3.3.3.7.5,1h0c.3.3.3.8.5,1.1h-.2c0,.2.1.2.2.2,0,.1.2.2,0,.3,0,.1.1,0,.2.1,0,.2,0,.3.2.4h0s-.1,0-.1,0c0,0,0,.2.2,0,0,.2.3.3.3.6,0,0,0,0,.1,0,0,.1.1.3.3.4,0,0-.1,0,0,0,0,0,0,0,.1,0,.1,0,.2.2.3.3,0,.1.1.2.2.3.4.1.7.3,1.1.3h0c0,0,.1,0,.2,0,0,0,0,0,0,0h0s0,0,0,0h0s0,0,0,0h0s0,0,0,0c0,0,0,0,.1-.1,0,0,.1,0,.1,0,0,0,.1,0,.2,0,.1,0,.1,0,.2,0,0,0,0,0,0,0,.1,0,.2,0,.3,0,0,0,0,0,0,0,0,0,0-.2.1,0,0,0,0-.1,0,0,.3,0,.3-.3.3-.6.2-.2.4,0,.2-.2,0,0,0,0,0,0,0,0,.2-.1.1-.2-.1,0,0,0-.2,0,0-.2.2-.2,0-.3h0c-.2-.1-.2-.3-.4-.4-.2-.8-.8-1.6-1.2-2.3-.4-.8-.9-1.5-1.4-2.3,0-.3,0-.3-.2-.4,0,0,0,0,0,0-.1,0-.1-.1-.2,0-.2-.3-.4-.5-.6-.8,0,0,.2,0,.1,0h-.1s0,0,0,0c0,0-.1,0-.1,0-.6-.6-.9-1.5-1.5-2.2,0-.2-.3-.4-.5-.5-.1-.3-.3-.6-.4-.9-.2-.3-.4-.5-.6-.7,0,0,.3-.2.6,0"/>
  <path class="st1" d="M99.1,117.7c0,0,0,.1-.2,0,0,0,.1,0,.2,0"/>
  <path class="st1" d="M98.6,120s0,0,0,0c0,0,0,0,0,0,0,0,0,0,0,0"/>
  <path class="st1" d="M98.7,120.5c0,0-.1-.1-.2-.2l.2.2Z"/>
  <path class="st1" d="M98.5,121c0,0,0,0,0,0,0,0,0,0,0,0"/>
  <path class="st1" d="M98.6,121.1s0,0,0,0c0,0,0,0,0,0"/>
  <path class="st1" d="M98.6,122.2s0,0,0,.1c0,0-.1-.1,0-.1"/>
  <path class="st1" d="M98.8,122.7s0,0,0,0c0,0,0,0,0,0h0Z"/>
  <polygon class="st1" points="104.9 129.6 104.8 129.6 104.8 129.5 104.9 129.6"/>
  <path class="st1" d="M106.7,125.8c0,0,0,0,0,0,0,0,0,0,0,0"/>
  <polygon class="st1" points="105.5 123.9 105.5 123.9 105.4 124 105.5 123.9"/>
  <path class="st0" d="M36.9,85c-.3-.4-.4-.9-.5-1.4,0-.5-.2-1-.4-1.5,0-.1.2,0,0-.3-.5-.9-.6-2.3-.6-3.5h0c0-.2-.2-.4-.2-.6,0,0,0,0,.1,0-.1,0-.1-.4-.2-.5,0,0,.1-.1.1-.2h-.1c-.4-.4-.1-1-.4-1.5,0,0,0,0,0,0-.3-.8-.4-1.8-.6-2.6,0,0,.1,0,.2,0-.1,0-.2-.3-.3-.5.1-.1-.2-.4-.1-.7h0c-.2-.2,0-.3-.2-.4h0c-.2-.2,0-.5,0-.6h0c0-.1,0-.2,0-.4h0c0-.4,0-.6-.2-.6.1-.1,0,.3.2.1-.3-1.1-.4-2.3-.6-3.5,0-.1,0-.2.1-.3,0-.1,0-.4-.2-.5,0,0,0,0,0-.1,0-.2-.2-.2-.2-.4,0,0,.1.1.2,0-.1-.2-.2-.5-.2-.7,0,0,0,0,0,0-.2-.2,0-.5-.1-.7h0c0-.3-.2,0-.2-.3,0,0,0,0,.1,0-.2-.3-.2-.7-.3-1,0,0,0,0,0,0,0-.3,0-.7-.2-1,0-.1.2,0,.1-.3-.2,0-.1-.6-.3-.3,0-.3,0-.7,0-.9,0,.1.2-.2.2,0v-.2c.2,0,0,.2.2.1,0-.1-.1-.5-.1-.6-.1-.2-.4-.4-.4-.7,0,.2.2-.1.2,0l-.4-.5c0-.1.1,0,0-.2,0,0,0,0-.1-.1,0,0-.1-.5,0-.6,0,0,0,.2.1,0,0-.2,0-.2-.1-.4h0c0-.2-.1-.4-.2-.3,0,.1,0,0,0,.1-.1,0-.2-.3-.2-.6,0,0,0,0,.1,0-.2-.3-.3-.6-.4-.9,0,0,.2.1.1.2,0-.4-.3-.8-.2-1.2,0,0-.1,0,0,0,0-.2.1-.2,0-.3,0,0,0-.2,0-.3,0,0,0,0,0,0,0-.2-.3-.9-.3-1.4,0,0-.2-.2-.2-.3h.1c0,0,0-.3,0-.3-.2-.2.2.8,0,.5,0,0-.2-.4,0-.3,0-.2-.2-.4-.1-.6,0,0,.2.1.1,0,0-.3,0,0-.1-.3h0c-.1-.1,0-.4-.1-.3,0,0-.1-.4,0-.4h.1c0-.1-.2-.2-.2-.3,0,0,0,0,0,0-.2,0,0-.3-.2-.4,0-.3,0-.7,0-.8,0-.2-.2-.4-.2-.6,0,0,0,.1,0,.1,0-.2,0-.2,0-.3,0,0,0-.3.1-.5,0-.2-.2-.1-.3-.1.2-.2-.2-.5,0-.8,0,0,.2.3.2,0,.2-.2-.2-.3-.2-.6h-.2c0,0-.2-.3,0-.3,0,0,0-.4-.2-.3,0-.5-.3-1.1,0-1.5,0,0,0-.2-.1-.2,0,.1,0,.1,0,.2,0,0,0,0,0,0,0-.2,0-.3.2-.2,0-.4-.3-.3-.4-.7,0,0,0,0,0-.2l-.2-.2c0-.3.1-.2.2-.2,0-.1,0-.3-.2-.4v-.2c0,.1,0-.1,0-.2h0s0-.1,0-.2c0,0,0,.2,0,.3,0,0,0-.2-.2-.3.1,0,0-.3,0-.4,0-.1-.1-.1-.1-.2,0,0,0-.2,0-.1,0,0,0,.1,0,.2,0,0,.1-.1,0-.3,0-.1-.2,0-.2-.2,0,0,0,0,.1.1v-.3s0,0,0,0c0,0,0,0,0,0-.1,0-.1-.4-.2-.4,0-.1,0-.3,0-.4h0c0-.1,0-.3-.1-.4h0c0,0,0-.3-.1-.3,0-.2.4-.1.2-.3,0-.2-.2-.3-.3-.2,0-.4-.2-.8-.1-1.1,0,0,0,0-.1-.1,0-.5-.3-1.1-.2-1.6,0,.1.1,0,.2,0-.1-.1,0-.2,0-.2,0,0-.1,0-.2.2-.1-.3-.2-.8-.1-1,0,0,0,0-.1,0,.2,0,.1-.2,0-.4h0s0-.1,0-.1c0,0-.2,0-.1-.2,0,0,0,0,0,0-.1-.2-.3-.4-.2-.6v-.2c0,0,0-.2,0,0,0-.4,0-.6.1-.7-.3-.6-.5-1.4-.5-2.1h0c0-.2-.1,0,0-.2,0,0,.1-.2.2,0,0-.3-.1-.3-.2-.5,0,0,0,.1,0,.1,0,0,0-.4,0-.4,0,0,.2,0,.2,0v-.2c0-.2.2.4.4.2h0c.1-.3.2.2.2-.1,0-.2-.3-.3-.3-.1,0-.3-.3-.1-.3-.5,0-.1,0,.3.1.2.1-.2,0-.3,0-.5,0,.2-.2,0-.2,0,0-.2.1.1.1-.2,0,0-.1-.3-.2,0-.2,0,0-.3-.1-.4.1,0,.3.3.4,0-.1,0-.2-.4-.3-.2,0-.1.1-.1.2,0,0-.2-.2-.4,0-.4h-.1c0-.1,0-.2.1-.3,0-.1-.2-.5,0-.4,0,0,0-.4-.1-.2,0,.2,0,.2,0,.4.1-.1,0-.3,0-.4h0c0,0,0-.3,0-.3,0,0,0,0,.1,0h-.1c0-.4.2-.1.2-.4v.2c0,0,.2-.1.1-.3,0,0-.2-.2-.3-.2,0-.2.1,0,0-.2v.2c.2,0,.3-.1.3-.3,0-.1-.2-.3-.2-.1,0-.1,0-.2.1-.2,0-.2-.1,0-.2-.2,0,0,.2-.3.3-.5l.2.2h0c.1,0,.1-.2.2-.1,0,0,0-.2,0-.3-.2.3-.3-.3-.5-.3,0-.4.5-.2.2-.6,0,0-.2-.1-.2.1,0-.2-.2-.2,0-.5,0,.2.2-.2.3.1,0,0,0,.2,0,.2,0,0,.2,0,.2-.2,0-.2,0-.4,0-.3-.1,0,0,.2-.1.1,0-.3.2-.3,0-.5,0,.2-.1.2-.2.2v-.2s0,0,0,0c.1-.3-.1-.1,0-.5h.2c.1,0-.1.4.1.3,0-.2,0-.3,0-.5,0,0,0,.1,0,.2,0,0,.3-.1.2-.5,0-.2,0,0-.2,0,0-.4,0-.5,0-.7.1,0,0-.4.2-.1-.1.1-.2.6,0,.8.2-.1,0,.3.1.4,0-.3.2-.2.3-.3,0,0,0-.2,0-.2-.1,0-.1,0-.2,0,0-.3,0-.6,0-.8,0,0,.2,0,.2,0,0-.4.1-.8.2-1.1-.2.2,0-.4-.1-.3,0,.2-.2.3-.3.2,0-.1,0,0,.1,0,0-.2.2-.2,0-.4,0,.4.2.1.3.2,0-.3.1,0,.1-.2,0-.3,0-.6,0-.9.2-.3.2-.9.3-1.2.1-.1.2,0,.3-.1,0-.2-.2,0,0-.2h0c0,0,.2-.5,0-.6h.1c0,0,0,0,0,0,0,0,.1,0,.1,0,.2-.1.1-.4.2-.6h-.1c0-.3.2-.5.3-.8h0s0-.2,0-.2c0,0,.2,0,.2-.2v.6c0,.1,0-.2-.1-.1-.1,0-.2.4-.1.4,0-.1,0-.1,0-.2.1,0,0,.2.2.3,0,0,0-.1,0-.2,0,.1,0,.3,0,.5,0-.1-.1,0-.1,0,.1,0,0,.3,0,.5-.2.1,0,.5-.1.8,0-.2-.2-.3-.2-.5-.1.2,0,.2-.2.4,0,.1.2.2.2.5h0c0,.2.1.2,0,.5-.2.4-.3.9-.4,1.3h0c.2.2,0,.7,0,.9-.2.4-.1,1-.3,1.2,0,.8,0,1.5-.2,2.3v-.2c0,.2-.2,0-.2.2.1-.2.1.2.2.3-.1.4,0,.9,0,1.2h0c.1.3,0,.7,0,1.2,0,0-.1.1-.1.2.2.2.1.3.2.7,0,.2,0,.6,0,.9.3.9.1,1.8.3,2.8h-.1c.2.5.2,1,.2,1.5,0,.5,0,1,.2,1.3h-.2c0,.2.1.5.2.4,0,.3.2.6,0,.8,0,.3.1.3.2.5,0,.5,0,.7.1,1.2h0c0-.2-.1-.2-.1,0,0,.2,0,.7.2.4,0,.5.3,1.2.2,1.7,0,0,0,0,.1.1,0,.4,0,.9.2,1.3,0,0-.1,0,0,0,0,.1,0,0,.1.1.2.7.1,1.5.3,2.1.3,1.1.5,2.3.7,3.5h0c.2.3,0,.9.3,1.2,0,0,0,.3,0,.3.2.3,0,.8.3,1.3,0,0,0,0,0-.1,0,.5.2.8.2,1.3,0,0,0-.1-.1-.1,0,.2.3.4,0,.5,0,.1.1,0,.1,0,0,1,.4,2.1.6,3.1,0,.8-.4,0-.1.7,0,0,0,0,0,0,0,.2-.2.4,0,.5.1,0,0,0,.2,0,0,.5-.1.6,0,.9h0c.3.4.2.9.5,1.2.3,2.3.7,4.6,1,6.8.2,2.3.6,4.4.8,6.7-.1.6-.1.6,0,1.2,0,0,0,0,0,0,.2,0,0,.4.2.4,0,.8.2,1.6.4,2.5,0-.1-.2-.2-.1,0v.2c.1,0,0,0,0,0,0,.1.1.2.2,0,.4,2.1.5,4.3.9,6.4,0,.5.2,1.2.4,1.7,0,.8.2,1.6.3,2.4.1.8.3,1.5.6,2.3,0,0-.4-.1-.7-.8"/>
  <path class="st1" d="M30.4,12.9c0,0-.2.2-.2,0,0,0,.2,0,.2,0"/>
  <path class="st1" d="M28.3,17.6s0,0,0,0c0,0,0-.1,0-.2,0,0,0,0,0,0"/>
  <path class="st1" d="M28,18.9c0,0,0-.3,0-.5v.5Z"/>
  <path class="st1" d="M27.5,20.1c0,0,0,0,0,0,0,0,0,0,0,0"/>
  <path class="st1" d="M27.7,20.2c0,.1,0,.1-.1.2,0,0,0-.2.1-.2"/>
  <path class="st1" d="M27.2,22.8c0,0,0,.2,0,.3,0,0,0-.3,0-.3"/>
  <path class="st1" d="M27.2,24.1s0,0,0,.1c0,0,0,0,0,0h0Z"/>
  <polygon class="st1" points="30.3 46.4 30.3 46.3 30.3 46.3 30.3 46.4"/>
  <path class="st0" d="M31.7,56.1c0,.1,0,0,0,.1,0-.1,0,0,0-.1"/>
  <polygon class="st1" points="32.7 61.3 32.7 61.2 32.9 61.2 32.7 61.3"/>
  <path class="st1" d="M42.6,94.7c0,0,0-.1,0,0,0,0,0,0,0,0"/>
  <path class="st0" d="M38.7,69.8c.1.2,0,.4,0,.5,0,.2-.1.3,0,.5,0,0-.2,0-.2,0,.1.2,0,.4,0,.6,0,.2-.2.4-.3.6h0s.1.2,0,.2c0,0,0,0-.1,0,.1,0,0,.1.1.2,0,0-.1,0-.2,0h.1c.3.2,0,.4.1.5,0,0,0,0,0,0,.2.3.1.6.2.9,0,0-.1,0-.2,0,.1,0,.2.1.2.2-.1,0,.1.1,0,.2h0c.1,0,0,0,0,.2h-.1c.2,0,0,.2,0,.2h0c0,0,0,0,0,.1h0c0,.1,0,.2,0,.2-.1,0,0-.1-.2,0,.2.4.2.8.2,1.2,0,0,0,0-.1,0,0,0,0,.1.1.2,0,0,0,0,0,0,0,0,.2,0,.1.2,0,0,0,0-.1,0,.1,0,.1.2.2.2,0,0,0,0,0,0,.1,0,0,.2,0,.2h0c0,.1.2,0,.1.1,0,0,0,0,0,0,.2,0,.1.3.2.4,0,0,0,0,0,0,0,.1,0,.2,0,.3,0,0-.2,0-.2.1.2,0,0,.2.3,0,0,.1,0,.3,0,.3,0,0-.2,0-.2,0h0c0,0,0,0,0,0,0,0,0,.2,0,.2.1,0,.3.1.4.2,0,0-.2,0-.2,0h.4c0,.2-.1.2,0,.2,0,0,0,0,.1,0,0,0,0,.2-.1.2,0,0,0,0,0,0,0,0,0,0,0,.1h0c0,0,0,.1.2,0,0,0-.1,0,0,0,.1,0,.1.1.2.2,0,0,0,0-.1,0,.1,0,.2.2.3.3,0,0-.2,0-.1,0,0,.2.2.3,0,.4,0,0,.1,0,0,0,0,0-.1,0,0,.1,0,0,0,0,0,0,0,0,0,0,0,0,0,0,.2.3.1.5,0,0,.2,0,.2.1h-.1c0,0,0,.1,0,.1.1,0-.2-.3,0-.2,0,0,.2.1,0,.1,0,0,.1.1,0,.2,0,0-.2,0-.1,0,0,0,0,0,.1,0h0c.1,0,0,.1.1,0,0,0,0,.1,0,.2h-.1s.2,0,.2,0c0,0,0,0,0,0,.2,0,0,.1.2.1,0,.1,0,.2,0,.3,0,0,.2.1.1.2,0,0,0,0,0,0,0,0,0,0,0,.1,0,0-.1.1-.2.2,0,0,.2,0,.2,0-.2,0,.2.2,0,.3,0,0-.1,0-.2,0-.2,0,.2,0,0,.2h.2c0,0,.1,0,0,0,0,0,0,.1.1,0-.1.2.2.4-.1.5,0,0,0,0,0,0,0,0,0,0,0,0,0,0,0,0,0,0,0,0,0,.1-.2,0,0,.1.3,0,.3.2,0,0,0,0,0,0h.1c0,.2-.1.1-.3.2,0,0,0,.1.1.1h-.1c0,0,0,.1.1.1h0s0,0,0,0c0,0,0,0,0-.1,0,0,0,0,.1,0-.1,0,0,0,0,.1,0,0,.1,0,.1,0,0,0,0,0,0,0,0,0,0,0,0,0,0,0-.1,0,0,.1,0,0,.2,0,.2,0,0,0,0,0-.1,0h0c0,0,.1,0,.1,0,0,0,0,0,0,0,.1,0,0,.1.2.1,0,0,0,.1,0,.1h0c0,0,0,.1,0,.1h0s0,0,0,.1c0,0-.4.1-.2.2,0,0,.2,0,.3,0,0,.1.2.2,0,.4,0,0,0,0,0,0,0,.2.2.4,0,.5,0,0-.1,0-.2,0,.1,0,0,0,0,0,0,0,.1,0,.2,0,0,0,.1.3,0,.3,0,0,0,0,.1,0-.1,0-.1.1,0,.2h0s0,0,0,0c0,0,.2,0,.1,0,0,0,0,0,0,0,0,0,.2,0,.2.2h-.1c0,.1.1.1.1,0,0,.1,0,.2-.1.3.3.1.4.4.5.6h0c0,0,.1,0,0,0,0,0-.1,0-.2,0,0,.1.1,0,.2.1,0,0,0,0,0,0,0,0,0,.1.1.1,0,0-.1,0-.2,0h0c-.1.1-.3,0-.5,0h0c-.1.1-.2,0-.2,0,0,0,.3,0,.3,0,0,.1.3,0,.3,0,0,0,0,0-.1,0,0,0,0,0,0,.2,0,0,.2,0,.2,0,0,0-.1,0-.1,0,0,0,.2,0,.2,0,.2,0,0,.1.1.1-.1,0-.3,0-.3.1.1,0,.2,0,.3,0,0,0-.1,0-.2,0,0,0,.2,0,0,.2h.1s0,0-.1,0c0,0,.2.1,0,.2,0,0,0,.1.2,0,0,0-.1,0,0-.1-.1,0,0,0,.1.1h0s0,0,.1,0c0,0,0,0-.1,0h.1c0,0-.2,0-.1.1h-.1s0,0,0,0c.1,0,.2,0,.3,0,0,0-.1,0,0,0h-.1s-.1,0-.1.1c0,0,.2,0,.2,0,0,0,0,0-.1,0,0,0,0,0,.2,0,0,0-.1.2-.2.2h-.2s0,0,0,0c-.1,0,0,0-.2,0,0,0,0,0,0,0,.2-.2.3,0,.5,0,0,.1-.4.2,0,.3,0,0,.2,0,.1,0,0,0,.2,0,.2.1-.1,0-.2.1-.3,0,0,0,0,0,0,0,0,0-.2,0-.2.1,0,0,0,.1.2,0,.1,0,0,0,0,0,0,0,0,.2.1.1,0,0,0-.1.2-.1h0c0,0,0,0,0,0,0,.1.1,0,.2,0h-.1c-.1.1,0,0-.2,0,0,0,.1,0,.1.1,0,0,0,0,0,0,0,0-.3.1,0,.2,0,0,0,0,.2,0,0,.1.2.1.2.2-.2,0,0,.1-.1.1,0,0,0-.2-.2-.2-.2.1,0,0-.2,0,0,0-.1.2-.3.2,0,0,0,0,0,0,.1,0,0,0,.2-.1,0,.1.1.2.2.2,0,0-.2,0-.2,0,0,.1.1.2.1.4.1-.1,0,.1.2,0,0,0,.1-.2.2-.2,0,0,0,0-.1,0,.1,0-.1.1,0,.1,0,0-.2,0-.4.1.1,0,0,0,0,.1.1,0,.2.1.3.2,0,.2.1.3.2.4,0,0-.2.1-.2.2,0,0,.1-.1.1,0h0s0,.2.2.1h-.2c0,0,0,0,0,0,0,0,0,0-.1,0,0,.1,0,.1.1.2h0c.1,0,0,0,.2.2h0c0,0,0,0,0,0,0,0-.1.1,0,.1h-.2c0,0-.2,0-.2,0,0,0,.1,0,.2-.1,0,0,0-.1-.1-.1,0,0,0,0,0,0-.1,0-.1,0-.2,0,0,0,0,0,0,0,0,0-.1,0-.2-.1,0,0,0,0,.1,0-.1,0-.2,0-.2,0,.1-.1-.2-.1-.2-.2.1,0,.2,0,.3,0,0,0,0,0,0-.1,0,0-.2,0-.3,0h0c0,0-.2,0-.2-.1,0-.2,0-.3-.1-.5h0c-.2,0-.2-.2-.3-.3,0-.2-.2-.3,0-.4-.2-.2-.3-.5-.4-.7h.1c-.1,0,0,0,0,0,0,0-.2,0-.3,0,0-.2-.1-.3-.2-.4h0c-.2,0,0-.3-.1-.4,0,0,.1,0,0-.1-.2,0-.2,0-.3-.2,0,0,0-.2,0-.3-.3-.2-.3-.6-.5-.9h.1c-.3-.3-.2-.7-.4-1h.2c0-.1,0-.2-.2-.1,0,0-.1-.2,0-.3,0,0-.1,0-.2-.1,0-.2,0-.2,0-.4h0c0,0,.1,0,.1,0,0,0,0-.2-.2-.1,0-.2-.2-.4,0-.6,0,0,0,0-.1,0,0-.2,0-.3,0-.4,0,0,.1,0,.1,0,0,0,0,0-.1,0-.2-.2,0-.5,0-.7-.2-.4-.2-.8-.3-1.2h0c-.2,0,.1-.3-.2-.4,0,0,0-.1,0-.1-.1,0,0-.3-.1-.4,0,0,0,0,0,0,0-.2,0-.3,0-.5,0,0,0,0,0,0,0,0-.2-.1,0-.2,0,0-.1,0-.1,0,0-.4-.2-.7-.3-1.1,0-.3.4,0,.2-.3,0,0,0,0,0,0,0,0,.2-.2.1-.2-.1,0,0,0-.2,0,0-.2.2-.2,0-.3h0c-.2-.1-.1-.3-.4-.4-.2-.8-.4-1.6-.5-2.4,0-.8-.2-1.6-.1-2.4.2-.2.2-.2,0-.4,0,0,0,0,0,0-.2,0,0-.1-.2-.2,0-.3,0-.6,0-.9,0,0,.1,0,.1,0h0c0,0,0,0,0,0,0,0,0,0-.1,0-.1-.8.2-1.6.3-2.4,0-.2,0-.5,0-.7.3-.6.6-1.1.7-1.7,0,0,.3.2.3.5"/>
  <path class="st1" d="M42.6,94.6c0,0,0-.1.2-.2,0,0,0,.1-.2.2"/>
  <path class="st1" d="M42.4,92.7s0,0,0,0c0,0,0,0,0,0,0,0,0,0,0,0"/>
  <path class="st1" d="M42.3,92.3c0,0,.2,0,.2,0h-.2Z"/>
  <path class="st1" d="M42.4,91.8c0,0,0,0,0,0,0,0,0,0,0,0"/>
  <path class="st1" d="M42.3,91.8s0,0,0,0c0,0,0,0,0,0"/>
  <path class="st0" d="M42.2,90.9s0,0,0,0c0,0,.1,0,0,0"/>
  <path class="st0" d="M42,90.6s0,0,0,0c0,0,0,0,0,0h0Z"/>
  <polygon class="st0" points="39.9 83.2 39.9 83.2 39.8 83.2 39.9 83.2"/>
  <path class="st1" d="M39.3,79.9s0,0,0,0c0,0,0,0,0,0"/>
  <polygon class="st1" points="38.8 78.1 38.8 78.1 38.6 78.1 38.8 78.1"/>
  <path class="st1" d="M34.7,29.1c0,.4.1-.2,0,.2,0,0,0-.1,0-.2"/>
  <path class="st0" d="M87.8,85.9c-.6-.2-1.1-.6-1.7-1.1l-.4-.3c-.1-.1-.3-.2-.4-.3-.3-.2-.5-.4-.8-.6-.1,0,.2-.1-.1-.3-.6-.3-1.2-.8-1.8-1.4-.6-.6-1.1-1.3-1.6-1.9h.1c-.2-.2-.6-.3-.8-.6,0,0,.1,0,0,0-.1,0-.4-.4-.6-.4,0-.1,0-.2,0-.3h-.2c-.5-.2-.8-.9-1.3-1.3,0,0,.1,0,0,0-.4-.3-.8-.8-1.2-1.2-.4-.5-.8-1-1.2-1.4,0,0,.2,0,.2,0-.1,0-.4-.2-.6-.5,0-.2-.4-.4-.6-.7h0c-.3-.1-.2-.4-.4-.5v-.2c-.2,0-.2-.4-.4-.5h0c-.2-.1-.2-.3-.3-.4h0c-.3-.4-.4-.7-.5-.6,0-.2.3.3.3,0-.5-.6-.9-1.2-1.4-1.9-.4-.7-.9-1.3-1.3-2,0-.2,0-.3,0-.4-.1-.1-.3-.5-.5-.6,0,0,0-.1,0-.2,0-.3-.3-.2-.4-.5,0,0,.2.1.2,0-.2-.2-.4-.5-.6-.7,0,0,0,0,.1,0-.3-.2-.3-.6-.5-.8h.1c-.1-.4-.2,0-.4-.4,0,0,0,0,.1,0-.3-.3-.6-.9-.8-1.2,0,0,0,0,0,0-.2-.4-.4-.8-.6-1.2,0-.2.2,0,0-.4-.1,0-.4-.7-.5-.3-.1-.4-.3-.9-.5-1.1.1.1.1-.3.3,0v-.3c0,0,0,.2.1.1,0-.1-.3-.5-.4-.7-.2-.2-.5-.4-.7-.8.1.2.1-.2.2,0l-.6-.5c0-.1.1,0,0-.3,0,0-.1,0-.2-.1,0,0-.3-.6-.2-.7,0,0,.1.2.1,0-.1-.3-.2-.3-.3-.5h0c0-.2-.3-.5-.3-.3,0,.1,0,0,.1.1-.1,0-.3-.4-.4-.7,0,0,0,0,.2,0-.3-.3-.4-.7-.6-1.1,0,0,.2.1.2.2,0-.6-.6-1.1-.6-1.6,0,0,0,0,0,0,0-.3,0-.3,0-.4,0,0,0-.2-.2-.4,0,0,0,0,0,0-.1-.2-.5-1.2-.6-1.8,0,0-.3-.3-.3-.4h.1c0-.1-.1-.4,0-.5-.2-.2.4,1,.2.7,0-.1-.3-.5-.2-.4,0-.3-.3-.5-.3-.8,0,0,.2.2.1,0-.1-.4,0,0-.2-.4v-.2c-.2,0-.2-.3-.2-.2,0,0-.2-.5,0-.5h.1c0-.1-.2-.2-.3-.3,0,0,0,0,0,0-.2,0,0-.4-.3-.5,0-.4-.2-.9-.1-1.1-.1-.2-.3-.5-.3-.8,0,0,0,.1.1.1,0-.2,0-.2-.1-.4,0,0,0-.4,0-.6-.1-.3-.2-.1-.3-.1.1-.3-.3-.7-.2-1.1,0,0,.2.4.2.1.1-.3-.3-.5-.2-.9h-.1c0,0-.2-.4,0-.4,0-.1,0-.5-.2-.4,0-.7-.4-1.5-.1-2,0,0,0-.3-.1-.3,0,.2.1.2,0,.3,0,0,0,0,0,0,0-.2,0-.4.2-.2,0-.5-.3-.4-.4-1,0,0,0,0,0-.2l-.2-.3c0-.4.1-.2.2-.3,0-.2-.1-.4-.2-.5v-.3c0,.2,0-.1,0-.2h0s0-.2,0-.3c0,0,0,.3,0,.4,0,0,0-.2-.2-.4.1,0,0-.3,0-.5,0-.2-.1-.2-.2-.2,0,0,0-.3,0-.2,0,0,0,.1,0,.2,0-.1.1-.1,0-.4-.1-.2-.2.1-.2-.2,0,0,0,0,.2.1v-.3s-.1,0-.1,0c0,0,0,0,0,0-.1,0-.2-.5-.3-.5,0-.2,0-.4,0-.5h0c0-.2-.1-.4-.2-.5h0c0-.1-.1-.3-.2-.4,0-.3.3-.2.1-.4,0-.3-.3-.3-.3-.2-.1-.5-.5-.9-.5-1.4,0,0,0,0-.2-.1-.3-.7-.7-1.3-.8-1.9.1.2,0,0,.1,0-.2-.1,0-.2-.2-.2,0,0-.1,0,0,.3-.2-.3-.6-.9-.6-1.1,0,.1,0,0-.1,0,.1,0,0-.3-.2-.5h0s0-.2,0-.2c0,0-.2,0-.3-.2,0,0,0,0,0-.1-.2-.2-.5-.4-.6-.6v-.2c-.1,0-.3-.2-.2,0-.2-.4-.4-.6-.4-.8-.7-.4-1.5-1.2-2.1-1.7h0c-.1-.2-.2,0-.3-.2,0,0,0-.2.1-.2-.2-.3-.4-.2-.6-.3,0,0,.2,0,0,.1,0,0-.3-.3-.5-.2,0,0,0-.1.1-.2h-.2c-.1-.3.6,0,.5-.3h-.2c0-.3.5,0,.1-.2-.2,0-.5,0-.3.2-.4-.2-.3.2-.7,0,0-.1.3.2.3,0-.1-.2-.4-.2-.6-.3.2.1,0,.2-.2.1-.2-.2.2,0-.1-.2,0,0-.4,0-.2.1-.2.1-.3-.2-.5-.1,0-.2.4-.2.1-.3,0,.1-.5,0-.4.2-.1,0-.1-.2,0-.2-.2-.1-.5,0-.5-.2h0s-.1,0-.2-.1c-.2,0-.6,0-.6-.1,0,0-.5,0-.4,0,.3.1.3,0,.4.2,0,0-.2-.1-.3,0,0,0,0,0-.2,0,0,0,0,0-.1,0h0c0,0-.3-.1-.3,0,0,0,0,0,0-.1h-.1c-.3,0,0-.1-.4-.1h.3c0,0-.2-.2-.3-.1,0,0-.2.2-.3.3-.2,0,0-.1-.3,0h.2c0-.1-.2-.3-.4-.3-.2,0-.4.2-.2.2-.1,0-.3,0-.2-.1-.3,0,0,.1-.2.2-.1,0-.4-.1-.6-.2l.3-.2h-.2c.2-.1-.1,0,0-.2-.1,0-.3,0-.4,0,.4.2-.4.4-.2.6-.4.1-.4-.4-.8,0,0,0,0,.2.2.1-.3,0-.1.3-.5.3.2-.2-.3-.1,0-.3,0,0,.2,0,.3,0-.1,0,0-.2-.3-.1-.2,0-.4.1-.4.2,0,.1.3,0,.2,0-.3.1-.5,0-.5.2.2-.1.3,0,.3,0,0,0-.2.1-.2.1h0c-.4,0,0,0-.5.2h-.2c0-.2.6-.2.4-.4-.3,0-.3.2-.6.3,0,0,.1,0,.2-.1,0,0-.3-.2-.6.1-.2.2,0,0,0,.2-.4.2-.5.4-.7.5,0-.2-.4.3-.3,0,.2,0,.7-.3.8-.5-.2,0,.3-.1.3-.4-.3.2-.4,0-.5,0,0,0-.2.1-.2.2,0,.1.1,0,.2.2-.2,0-.4.2-.5.3-.1.1-.2.2-.3.4-.1,0-.2,0,0-.2-.2.2-.4.3-.6.4-.2.2-.4.3-.6.4.3,0-.4.4-.1.3.2-.1.5-.2.4,0-.1,0,0,0-.1,0,0,.2-.3,0-.4.3.3-.4,0-.2-.1-.4-.2.3,0,0-.3.1-.2.3-.4.6-.6.9-.2.1-.4.3-.5.6-.1.2-.2.5-.3.7-.2.1-.2,0-.4.1-.1.2.2,0,0,.2h0c0,0-.4.6-.2.8v-.2c-.2,0-.2.1-.2.2,0,0-.1,0-.1,0-.2.2-.1.5-.2.8h.2c0,.3-.2.6-.3,1h-.1s0,.2,0,.2c0,0-.2.2-.1.3,0,0,0-.2,0-.4v-.4c0-.2,0,.2.1.1.1,0,.2-.5,0-.6,0,.2,0,.2,0,.3-.2,0,0-.2-.2-.4,0,0,0,.2,0,.2,0-.2,0-.4,0-.6,0,.2.1,0,.1,0-.1,0,0-.3,0-.6.2-.2.2-.6.4-1,0,.2,0,.4,0,.7.2-.2.1-.3.3-.4,0-.1-.1-.3,0-.6h0c.1-.2,0-.3.2-.6.2-.3.4-.5.6-.8,0-.1.2-.2.3-.3.1,0,.2-.2.3-.3h0c0-.1.2-.3.3-.5.2-.2.4-.3.5-.5.5-.4,1.1-.9,1.4-.9.2-.2.5-.3.7-.4l.3-.2.4-.2c.2-.1.5-.2.7-.3.3,0,.5-.2.8-.2l-.2.2c.2-.2.2,0,.3,0-.3,0,.2-.2.4-.3.3,0,.6,0,.8-.1.3,0,.6-.1.8-.2h0c.5-.1,1,0,1.6.1,0,0,.2.2.3.2.3,0,.5,0,1,0,.2,0,.4,0,.6.1.2,0,.4.2.6.2,1.3.2,2.4.9,3.6,1.6h0c1.2.7,2.2,2,3,2.8h-.2c.2.3.5.6.6.5.2.3.6.6.6.9.2.3.3.3.5.5.3.6.5.8.8,1.4h0c0-.2-.1-.2,0,0,.2.2.4.8.5.5.2.7.8,1.4.9,2.1,0,0,.1,0,.2.1.2.6.4,1.2.6,1.6,0,.1-.2-.1,0,.1,0,.1,0,0,.2.1.4.9.5,1.9.8,2.8.3.8.5,1.6.6,2.3,0,.4.1.8.2,1.2,0,.4.1.8.2,1.1h0c.3.5,0,1.2.4,1.5,0,.1,0,.5,0,.4.2.4.1,1.1.4,1.6,0,0,0,0,0-.1,0,.6.3,1.1.3,1.7,0,0,0-.2-.1-.2,0,.2.3.5.1.7,0,.1.1,0,.1,0,.1.7.3,1.3.5,2,.2.7.4,1.3.7,2,.2,1-.3.2,0,.9,0,0,0,0,0,0,.1.3,0,.5,0,.7.1-.1.1.1.2,0,.1.6,0,.8.3,1.2h0c.4.5.5,1.1.9,1.5.5,1.5,1.2,2.8,1.8,4.2.3.7.7,1.4,1,2,.3.7.6,1.4,1,2,.7,1.3,1.3,2.7,2.1,3.9.4.6.7,1.3,1.1,1.9.4.6.8,1.3,1.2,1.9.2.7.3.8.8,1.4,0,0,0,0,0,0,.1,0,.3.4.5.4.3.5.6.9,1,1.3.3.4.6.9,1,1.3-.1-.1-.3-.1-.1,0h.2c0,.1,0,.2,0,.2.1.1.3.2.2,0,1,1.1,1.8,2.2,2.7,3.3.5.5.9,1.1,1.4,1.6.5.5,1,1,1.5,1.5.2.3.5.5.8.8.3.3.6.5.9.8.4.4.7.8,1.1,1.2.4.4.7.8,1.1,1.1.8.7,1.6,1.3,2.5,1.9,0,0-.5.1-1.2-.3"/>
  <path class="st1" d="M34.7,28.7c0,0,.1-.3.2-.1,0,0-.2.1-.2.1"/>
  <path class="st1" d="M38.2,23.1s0,0,.1,0c0,0,0,.2-.1.2,0,0,0,0,0-.1"/>
  <path class="st1" d="M39.5,22s0,.1-.1.2c0,0-.2.2-.3.3l.2-.2c0-.1.2-.2.2-.2"/>
  <path class="st0" d="M40.9,21.5c.1,0,.1,0,0,.1,0,0,0,0,0-.1"/>
  <path class="st0" d="M41,21.3c.1,0,.2,0,.3,0,0,0-.2.2-.3,0"/>
  <path class="st0" d="M44.1,20.5c0,0,.2,0,.3,0,0,0-.1,0-.2,0,0,0-.1,0-.1,0"/>
  <path class="st0" d="M45.6,20.3s0,0,.1,0c0,0,0,0,0,0h0Z"/>
  <polygon class="st1" points="60.9 42.2 60.8 42 60.9 42 60.9 42.2"/>
  <path class="st1" d="M64.6,54.8c0,.2,0,.1,0,.2,0-.1,0,0,0-.2"/>
  <polygon class="st1" points="67.7 61.2 67.7 61.1 67.8 61.1 67.7 61.2"/>
  <path class="st1" d="M39.4,66.1c-.4-.5,0,.3-.3-.3,0,0,.2.1.3.3"/>
  <path class="st0" d="M93.3,85.7c1.6,1.2,3,3.4,4.5,5,.2.2-.2,0,.2.5,1.5,1.5,3.3,4.3,4.4,6.6h-.1c.2.3.7.7.9,1.2,0,0-.1-.1-.1,0,.2,0,.5.8.7.9,0,.2,0,.2,0,.5l.3.2c.7.6,1,1.7,1.7,2.6,0,0-.1-.1-.1,0,1,1.5,2,3.5,2.9,5.3,0,0-.2,0-.2,0,.2,0,.5.6.7,1.1,0,.3.5.8.7,1.4h0c.3.3.2.6.5.9v.3c.3.1.2.7.4,1h0c.2.3.1.5.3.8h0c.3.8.3,1.2.5,1.2,0,.3-.3-.7-.3-.2,1,2.4,1.6,5,1.9,7.6,0,.3,0,.5,0,.6,0,.3,0,1,.2,1.2,0,0,0,.2,0,.3,0,.5.2.5,0,1,0-.2,0-.3-.1-.2,0,.4,0,1,0,1.6,0,0,0-.2,0-.2,0,.6-.2,1-.2,1.5v-.2c-.3.8,0,.3-.2.9,0-.2,0-.1,0-.2,0,.7-.5,1.7-.8,2.3,0,0,0,0,0,0-.3.6-.8,1.2-1.3,1.8-.2.2,0-.2-.6.3.2.1-1,.8-.5.7-.6.4-1.5.8-1.9,1,.2-.2-.4,0,.1-.3h-.4s.4,0,.2-.1c-.1,0-.3.2-.6.3-.2.1-.5.2-.6.2-.4.2-.8.6-1.6.8.4-.1-.2-.1,0-.2,0,0-.3.1-.5.3-.3.1-.5.2-.5.2-.3,0,0-.1-.5,0,0,0-.1,0-.3.2-.1,0-1.1.2-1.2,0-.1,0,.4,0,.1-.1-.5,0-.5.1-1,.1h0c-.3,0-1,0-.6.2.2,0,0-.1.3,0-.2.1-.8.1-1.3.1.2,0,.2,0,.2-.1-.2,0-.3,0-.5,0-.2,0-.3,0-.5,0-.4,0-.7,0-1.1,0,0,0,.3-.1.4,0-.5,0-1,0-1.4-.1-.5,0-.9,0-1.3-.2.1,0,0,.1,0,.1-.5,0-.4-.2-.7-.2,0,0-.4,0-.7,0-.2,0,0,0,.2,0-.4,0-2.2-.3-3.1-.7,0,0-.6,0-.9,0h.1c-.2-.2-.7-.3-.7-.4-.3,0,.2.1.6.2.4.1.9.2.5.1-.1-.1-.9-.1-.8-.2-.4-.1-.9-.2-1.3-.4.1,0,.4,0,0-.1-.6-.2-.2,0-.7-.2h-.3c0,0-.5-.3-.4-.1,0-.1-.9-.3-.8-.4h.1c-.3-.2-.5-.1-.7-.2,0,0,0,0,0,0-.1.2-.6-.3-1-.3-.5-.3-1.4-.6-1.6-.9-.4-.1-.8-.3-1.3-.5.1,0,.2,0,.3,0-.3-.2-.4-.2-.6-.3,0,0-.5-.4-.8-.6-.4-.2-.3,0-.4,0-.3-.4-1.2-.5-1.5-.9.2,0,.6.2.3,0-.3-.4-.8-.3-1.3-.7v.2c-.1-.2-.8-.4-.7-.5-.2,0-.6-.4-.7-.3-.9-.7-2.3-1.3-2.7-1.9-.1,0-.5-.3-.4-.2.2.2.3.1.4.2-.1,0-.2,0-.2,0-.3-.2-.5-.4-.1-.3-.6-.5-.8-.2-1.6-.7,0,0,0,0-.2-.2l-.5-.2c-.5-.4-.2-.3-.2-.4-.3-.2-.6-.4-.8-.4l-.2-.4c.2.3-.3-.1-.4-.2h.1s-.4-.2-.5-.3c0,0,.3.3.5.5-.2,0-.4-.2-.6-.3.1,0-.4-.4-.6-.6-.2-.2-.3-.1-.4-.2,0,0-.4-.3-.2-.2,0,0,.2.2.3.2-.1-.2,0-.2-.4-.4-.3-.2,0,.2-.5-.2.1,0,.2,0,.3.1l-.4-.4h0s0,0,0,0c-.2,0-.7-.5-.9-.5-.2-.2-.4-.4-.6-.6h0c-.2-.2-.6-.5-.8-.6h0c-.1-.1-.5-.4-.7-.5-.3-.4.2-.4-.3-.6-.3-.3-.7-.4-.6-.2-.5-.6-1.3-1.2-1.7-1.8-.1,0,0,0-.3-.1-.4-.5-.9-.9-1.3-1.4-.4-.4-.8-.9-1-1.3.3.2,0,0,.1,0-.3-.2-.1-.3-.3-.3,0,0-.1,0,0,.4-.2-.2-.5-.6-.8-.8h0c0,0,0-.1,0-.1-.2-.4-.3-.8-.4-1,0,.2,0,0-.1,0,.2,0,0-.5-.2-.9h-.1s0-.3,0-.3c0-.1-.2,0-.3-.5,0,0,0,0,0-.1-.2-.4-.5-.9-.6-1.3v-.4c0-.2-.3-.5-.2-.1-.2-.7-.4-1.2-.3-1.5-.7-1.1-1.4-2.9-1.9-4.4h0c0-.4-.2-.1-.2-.4.1.1,0-.3.2,0-.1-.6-.4-.7-.5-1-.1,0,.2.3,0,.2,0,0-.2-.8-.4-.8,0-.2.1,0,.2,0l-.2-.3c0-.5.6.8.6.3v-.3c-.1-.3.3.8,0,0-.2-.3-.5-.5-.4-.2-.3-.7-.4-.2-.7-1,0-.2.2.6.3.4,0-.4-.3-.7-.4-1,0,.4-.2.1-.3-.1,0-.4.2.2,0-.3-.1,0-.3-.6-.2,0-.2-.1-.2-.6-.4-.8,0-.2.5.5.3-.2,0,.1-.4-.7-.5-.3,0-.2,0-.3.2-.2,0-.4-.5-.7-.3-.9h-.2c0-.2,0-.4,0-.6-.1-.3-.5-.9-.3-.9,0,0-.3-.8-.3-.5,0,.4.3.5.2.7,0-.3-.2-.6-.4-.8h0c0-.2-.2-.5-.3-.6,0,0,.1,0,0,0h-.2c-.3-.7.1-.3-.1-.9l.2.4c0,0,0-.3-.2-.6-.1,0-.3-.2-.4-.3-.2-.3,0-.2-.2-.5l.3.4c0,0,0-.3-.1-.8-.1-.3-.4-.6-.3-.2,0-.2-.1-.5,0-.4-.2-.5,0,.1-.3-.3,0-.2-.1-.8-.1-1.1l.3.4v-.3c.2.3,0-.2.1,0,0-.2-.2-.4-.3-.6,0,.7-.5-.5-.7-.3-.4-.8.3-.7-.3-1.4,0,.2-.3-.2,0,.3-.2-.5-.3-.3-.5-.9.2.4,0-.5.4,0,0,0,0,.4.1.5,0-.2.2,0,0-.5-.1-.3-.3-.7-.4-.6-.1,0,.2.5,0,.3-.3-.6-.1-.8-.4-1,.2.4,0,.5,0,.5l-.2-.4h.1c-.2-.7-.2-.1-.5-.8v-.4c.2.1.4,1,.5.8-.2-.5-.3-.6-.4-1,0,0,.1.2.2.3,0-.2.1-.4-.3-1-.2-.3-.1,0-.2,0-.3-.7-.5-.9-.7-1.4.2,0-.3-.8,0-.4,0,.3.4,1.3.7,1.5,0-.3.2.6.4.7-.2-.6,0-.6,0-.8,0-.2-.2-.3-.2-.4-.1,0,0,.2-.2.2-.2-.7-.5-1.3-.8-1.6,0-.2,0-.2.2,0-.3-.8-.7-1.6-.9-2.3,0,.5-.4-.8-.4-.4.1.4.1.8,0,.6,0-.3,0,0,0-.1-.2-.3,0-.6-.3-.8.3.7.3,0,.5.1-.3-.5.1,0-.1-.5-.3-.5-.6-1.1-.9-1.6-.2-.8-.8-1.8-1.1-2.4,0-.4.2-.2,0-.6-.2-.4,0,.4-.2-.3h0c-.1-.1-.4-1.1-.7-1.2h.3s-.1,0-.2-.2c0,0,0-.2.2,0,0-.4-.4-.8-.6-1.2v.3c-.4-.6-.5-1.1-.9-1.8h0s0-.1-.1-.2c0,0-.1-.2-.1-.2.1,0,0-.3-.2-.5,0,0,.2.2.4.4.2.2.4.4.4.4.1.3-.3-.2-.3,0,0,.2.4.8.5.8-.1-.2-.1-.2-.3-.4,0-.2.3.2.4.3,0-.1-.1-.3-.2-.3.2.2.3.5.6.9-.2-.2,0,.2,0,.1.1,0,.4.3.6.9,0,.4.5.9.8,1.5-.2-.2-.5-.5-.7-.8.1.4.2.4.3.8.2.1.4.2.6.7h0c.3.5.4.4.6,1,.4,1,.8,2,1.1,2.7h0c.4.4.6,1.4,1,2,.3,1,.9,2,1,2.6.7,1.7,1.4,3.1,2,4.9l-.2-.2c.2.3,0,.2.1.5,0-.4.3.4.5.6.2.8.7,1.8,1,2.5h0c.4.7.6,1.6.9,2.5,0,.1,0,.3,0,.6.3.4.4.7.7,1.3.2.5.5,1.4.6,1.9.9,1.9,1.5,3.9,2.3,5.8v.2c.9,1.9,1.5,4.3,2.2,5.9h-.2c.1.4.5,1.1.6.9.1.5.6,1.3.5,1.6.2.5.3.6.5,1,.3.9.5,1.3.8,2h0c0,0,.2,0,.3.2l-.2-.2c-.1,0-.2,0,0,.2.3.3.9,1.2.8.7.6,1,1.8,1.9,2.4,2.8,0-.1.2,0,.3.1.7.7,1.3,1.5,2,2,0,.1-.3,0,0,.2.2.1,0,0,.3.1,1.3,1,2.4,2.2,3.5,3.1,2.1,1.5,4.4,3,6.5,4.2h0c.8.3,1.6,1.2,2.3,1.3.1.1.6.4.5.4.6.2,1.6,1,2.5,1.4,0,0-.1,0-.2,0,.8.6,1.6.8,2.5,1.4-.1,0-.3-.1-.3,0,.3.3.9.3,1,.5.2.1.2,0,0,0,2,1.1,4.2,1.9,6.4,2.6,1.5.6,0,.4,1.3.6,0,0,0,0,.1,0,.5,0,.7.5,1.1.4-.1-.2.2,0,.3,0,1,.3,1.1.5,1.9.5h0c.5,0,1,.1,1.5.2.5,0,1,0,1.4,0,2.5.2,5.1,0,7.5-.4.3,0,.6-.1.9-.2.3,0,.6-.2.8-.3.6-.2,1.1-.4,1.6-.7.5-.3,1-.6,1.4-1,.4-.4.8-.8,1.2-1.2.7-.9,1.2-1.9,1.5-3,.3-1.1.4-2.3.4-3.5,0-2.4-.4-4.8-1-7.3-.1-1.2-.2-1.3-.6-2.5,0,0,0,.1,0,0-.2,0-.3-.9-.5-.9-.6-1.8-1.3-3.4-2.1-5.1.1.3.3.4.2,0l-.2-.3h0c-.1-.3-.3-.5-.2-.3-2.2-4.3-4.3-8.6-7-12.6-.6-1-1.5-2.3-2.3-3.2-2-3-4-5.7-6.7-8.2,0,0,.2,0,.5.2.3.1.7.4,1.3.9"/>
  <path class="st1" d="M39.8,66.7c0,.2.2.5,0,.3,0,0,0-.3,0-.3"/>
  <path class="st1" d="M44.1,77.3s0,.2,0,.2c0-.1-.2-.2-.2-.3,0,.1,0,0,.1.1"/>
  <path class="st1" d="M45.2,80c0,0-.4-.6-.5-.9l.5.9Z"/>
  <path class="st1" d="M45.9,82.6c0,.2,0,.2-.1-.1,0,0,0,0,.1.1"/>
  <path class="st1" d="M46.1,82.8c0,.2,0,.3,0,.4,0,0-.2-.5,0-.4"/>
  <path class="st1" d="M48.1,88.3c0,.1.2.4.2.5,0-.2-.3-.6-.2-.5"/>
  <path class="st1" d="M49.1,90.9c0,0,0,.1,0,.2,0,.2,0,0-.1-.1h0Z"/>
  <polygon class="st1" points="77.9 129.8 77.6 129.7 77.7 129.6 77.9 129.8"/>
  <path class="st1" d="M98.7,136.8c.3,0,.2,0,.3,0-.3,0,.1,0-.3,0"/>
  <polygon class="st1" points="110 133.4 109.9 133.5 109.8 133.3 110 133.4"/>
  <path class="st1" d="M43.1,64.5c0,.1.1,0,0,.1,0,0,0-.1,0-.1"/>
  <path class="st0" d="M71.4,59.3c.2-.6,1-.7,1.3-1.3,0,0,.1.2.2,0,.2-.6,1-1,1.6-1.4h0c.1,0,0-.3.2-.4,0,0,0,0,0,0,0,0,.1-.2,0-.3,0,0,.1,0,.2,0h0c0-.3,0-.4,0-.5,0-.1.2-.2.2-.4,0,0,0,0,0,0,0-.5.1-1.1,0-1.6,0,0,.1,0,.2,0-.1,0-.2-.1-.3-.2,0-.1-.2-.1-.3-.3h0c-.2,0,0-.2-.2-.1h0c-.2,0,0-.3-.2-.3h0c-.1,0,0,0-.2-.1h0c-.2-.1-.3-.2-.3-.1,0-.1.2,0,.2-.2-.7-.2-1.3-.4-2-.6,0,0-.1-.1-.1-.2,0,0-.3,0-.3,0,0,0,0,0,0,0-.1,0-.2.1-.3,0,0,0,0,0,0-.1-.1,0-.3,0-.4,0,0,0,0,0,0,0-.2.1-.3,0-.4,0h0c-.2-.2,0,0-.3,0,0,0,0,0,0,0-.2.2-.5,0-.6.1,0,0,0,0,0,0-.2,0-.4,0-.6,0,0,0,0-.2-.2-.2,0,.2-.3,0-.2.3-.2,0-.4,0-.6,0,0,0-.1-.2,0-.2h-.1c0-.2.1,0,0-.2,0,0-.3,0-.3,0-.1.1-.2.3-.4.4,0,0,0-.2,0-.2v.2c-.2,0-.3.2-.3.2,0,0,0-.1-.1,0,0,0,0,0,0,.1,0,0-.3,0-.3,0,0,0,.1,0,0-.1-.1,0-.1,0-.3.1h0c0,0-.2,0-.1.2,0,0,0,0,0,0,0,.1-.2.2-.3.2,0,0,0,0,0-.1-.1.2-.3.3-.5.3,0,0,0-.2,0-.1-.3,0-.5.3-.7.2,0,0,0,.1,0,0-.1,0-.1,0-.2,0,0,0-.1,0-.2,0,0,0,0,0,0,0,0,0-.5.3-.8.3,0,0-.1.2-.2.2h0c0-.2-.2,0-.2-.1,0,.2.4-.2.3-.1,0,0-.2.2-.2,0-.1,0-.2.2-.3.1,0,0,0-.2,0-.1-.2,0,0,0-.2.1h0c0,.2-.1.1,0,.2,0,0-.2.1-.3,0h0c0-.1,0,0-.1.1,0,0,0,0,0,0,0,.2-.2,0-.2.2-.2,0-.4.1-.5,0,0,.1-.2.2-.3.2,0,0,0,0,0,0-.1,0-.1,0-.2,0,0,0-.2,0-.3,0,0,.1,0,.2,0,.3-.2-.2-.3.2-.5.1,0,0,.1-.2,0-.2-.2-.1-.1.2-.3.2h.1c-.1,0-.2.3-.2.2,0,0-.2,0-.1.2-.3,0-.6.4-.9.2,0,0-.1,0,0,.1.1,0,0,0,.1,0,0,0,0,0,0,0,0,0-.2,0-.1-.1-.2,0,0,.3-.3.4,0,0,0,0-.1,0v.2c-.2,0-.2-.1-.3-.2,0,0-.2,0-.2.2h-.2c.1,0,0,0,0,0h0c0,0-.1,0-.2,0,0,0,.1,0,.2,0,0,0,0,0-.1.2,0-.1-.2,0-.2,0,0,0,0,.1,0,.1,0,0-.1,0-.1,0,0,0,0,0,0,0,0,0-.1-.1-.2,0,0,0,.1.2,0,.2,0,0,0,0,0-.1h-.2s0,.1,0,.1c0,0,0,0,0,0,0,.1-.2.1-.2.3,0,0-.2,0-.2,0h0c-.1,0-.2,0-.2.2h0s-.1,0-.2.1c-.1,0-.2-.3-.3-.2-.1,0,0,.3,0,.3-.2,0-.4.3-.6.3,0,0,0,0,0,.1-.3.1-.5.4-.8.4,0,0,0,0,0-.1,0,.1-.1,0,0,.1,0,0,0,.1.2.1-.1.1-.4.3-.5.3,0,0,0,0,0,.1,0-.1-.2,0-.3,0h0c0,0-.1,0-.1,0,0,0,0,.2,0,.2,0,0,0,0,0,0,0,.1-.1.3-.3.3h-.2s0,0,0,0c-.2,0-.3.1-.4,0-.1.4-.6.7-.9.9h0c-.1,0,0,0,0,0,0,0-.1,0-.1-.2-.2,0-.1.2-.2.3,0,0,0,0,0,0,0,0-.2,0-.2.2,0,0,0-.1-.1-.2h0c-.2,0,0-.3-.1-.4h0c-.2,0,.1-.2-.1-.1,0,.1,0,.3.1.3-.1.1.1.3,0,.4,0,0,.1-.1,0-.2-.1,0-.1.2-.2.2.1,0,.1.1,0,.2-.1,0,0-.1-.2,0,0,0,0,.2,0,.2,0,.2-.2,0-.2.2-.1,0,0-.3-.2-.3,0,0,0,.3,0,.4,0,0-.1,0-.1-.2-.1,0,0,.3-.2.1h0c0,.1,0,.1-.2,0,0,0-.1.3-.2.1,0,0-.2.1,0,.2.1,0,0-.2.2,0-.2,0-.1.1-.2.2h0s-.1,0,0,.1c0,0,0,0,0,0h0c-.1.3-.1,0-.3.1h0c0-.1-.1-.2-.2,0,0,0,0,.2,0,.3,0,0,0,0-.1,0v-.2s-.1,0-.2,0c0,0,0,.3,0,.2,0,0-.2,0-.2,0,0,.1,0,0,0,.2,0,0-.3,0-.4,0v-.2s0,0,0,0c0-.2-.1,0-.1-.2,0,0,0,0-.1.2.3,0,0,.4.2.5-.1.2-.4-.3-.4,0,0,0,0,.2.1,0-.1,0,0,.2-.1.3,0-.1-.2,0-.2-.3,0,0,.1,0,.1,0,0,0-.1-.2-.2,0,0,0-.2.1,0,.2,0,0,0,0,.1,0-.1.1-.2,0-.2.2,0,0,.2,0,.2,0h0c0,.1,0,0,0,0-.2,0,0,.1-.1.3h-.2c0-.2.3-.2.1-.3-.1,0,0,.2-.2.2,0,0,0,0,0,0,0,0-.3-.2-.3,0,0,.1,0,0,0,.1-.1.1-.1.3-.2.3,0-.1-.2.1-.2,0,.1,0,.3-.2.3-.3-.2,0,.1,0,0-.3-.1,0-.2,0-.3-.1,0,0,0,0,0,.1,0,.1.1,0,.2.1-.2,0-.3.3-.3.4,0,0-.1-.1,0-.2-.1.2-.3.3-.5.4.2,0-.2.2,0,.2.1,0,.3,0,.3.1,0,0,0,0,0,0,0,.1-.2,0-.2.1.1-.2-.1-.2-.2-.3,0,.2,0,0-.2,0,0,.2-.2.3-.3.4-.2,0-.4.3-.5.5-.1,0-.2-.2-.3-.1,0,0,.2,0,0,.1h0s-.3.1-.2.3v-.2c-.1,0-.1,0-.1,0,0,0-.1,0,0-.1-.2,0-.2.2-.2.3h.1c0,.2-.3.2-.4.4h0c0,0,0,0,0,0,0,0-.2,0-.2,0v-.4c.2,0,0,.2.2.2,0,0,.2-.1.2-.2,0,0,0,0,0,.1-.1,0,0-.2,0-.3,0,0,0,0,0,0,0-.1,0-.2.1-.2,0,0,0,0,0,0,0-.1,0-.2.1-.3.2,0,.2-.3.3-.3,0,.1,0,.3,0,.4.1,0,0,0,.2-.1,0-.1,0-.2,0-.4h0c0,0,0-.2.1-.3.2-.2.5-.3.6-.5h0c0-.2.3-.2.3-.4.3-.1.4-.5.6-.4.3-.4.6-.7,1-1v.2c0-.1.1,0,.2,0-.1,0,0-.2,0-.3.2,0,.4-.3.5-.5h0c0-.2.3-.2.6-.3,0,0,.1,0,.2,0,0-.2,0-.2.2-.4.1,0,.3-.2.5-.2.3-.5.9-.7,1.3-1.1h0c.3-.4,1-.6,1.4-1v.2c.2,0,.3-.2.2-.3.2,0,.3-.3.4-.2.1,0,.1-.2.2-.3.3,0,.4-.2.6-.3h0c0,0,0,.2.1.1,0-.1.4-.2.2-.3.3,0,.6-.4.9-.4,0,0,0,0,0-.1.2-.1.5-.2.7-.4,0,0,0,.1,0,0,0,0,0,0,0-.1.3-.3.8-.3,1.2-.5.6-.4,1.3-.7,1.9-1h0c.1-.2.6,0,.6-.3,0,0,.2,0,.2,0,.1-.2.5,0,.7-.3,0,0,0,0,0,0,.3,0,.5-.2.7-.2,0,0,0,0,0,.1.1,0,.2-.3.3,0,0,0,0-.1,0,0,.6-.1,1.2-.5,1.8-.7.5,0,.1.3.4,0,0,0,0,0,0,0,.1,0,.3.2.3,0,0-.1,0,0,0-.2.3,0,.4.1.6,0,0,0,0,0,0,0,.2-.3.5-.2.6-.5,1.5-.4,2.8-.7,4.3-.7.7,0,1.4,0,2.2.1.7.1,1.5.3,2.2.6.3.3.3.3.7.5,0,0,0,0,0,0,0-.1.3.1.4,0,.5.4,1,.8,1.3,1.5,0-.1-.2-.1-.1,0h.1c0,.1,0,.1,0,.1,0,0,.2.2.2,0,.1.2.1.5.1.7,0,.2,0,.5,0,.7,0,.2-.1.4-.2.6,0,.2-.2.4-.3.5-.4.7-.9,1.2-1.4,1.7-.3.2-.6.6-.8.8-.9.6-1.7.9-2.5,1.7,0,0-.1-.4.2-.7"/>
  <path class="st1" d="M43.3,64.3c0,0,.2,0,.2.1,0,0-.2,0-.2-.1"/>
  <path class="st1" d="M46.1,62.9s0,0,0,0c0,0,0,.1,0,0,0,0,0,0,0,0"/>
  <path class="st1" d="M46.7,62.4c0,0,0,.2-.1.3v-.3Z"/>
  <path class="st1" d="M47.4,62.2c0,0,0,0,0,0,0,0,0,0,0,0"/>
  <path class="st1" d="M47.4,62s0,0,.1,0c0,0,0,.1-.1,0"/>
  <path class="st1" d="M48.7,61.2s0-.1.1,0c0,0,0,.2-.1,0"/>
  <path class="st1" d="M49.2,60.7s0,0,0,0c0,0,0,0,0,0h0Z"/>
  <polygon class="st1" points="60.5 53.9 60.5 53.9 60.4 53.9 60.5 53.9"/>
  <path class="st1" d="M66,52.1c0,0,0,0,0,0,0,0,0,0,0,0"/>
  <polygon class="st1" points="69 51.4 69 51.4 69 51.2 69 51.4"/>
  <path class="st1" d="M45.4,70.7c0,.1.1,0,0,.1,0,0,0-.1,0-.1"/>
  <path class="st0" d="M75.9,63.1c0-.3.2-.5.4-.8.2-.2.4-.5.5-.8,0,0,.2.1.2,0,0-.6.6-1.3,1-1.9h0c0,0,0-.3,0-.4,0,0,0,0,0,0-.1,0,0-.3,0-.3,0,0,.1,0,.2-.1h-.1c-.2-.2-.1-.3-.1-.5,0-.1,0-.3-.1-.4,0,0,0,0,0,0-.3-.4-.7-.9-1.1-1.1,0,0,.1,0,.1-.1,0,0-.2,0-.4,0,0-.1-.3,0-.4-.1h0c-.2,0-.1-.2-.3,0h0c-.1,0-.1-.3-.3-.2h0c-.1,0-.1,0-.2,0h0c-.2,0-.3-.1-.3,0,0-.1.2,0,.1-.2-.7,0-1.4,0-2.1,0,0,0-.1,0-.1-.1,0,0-.3,0-.3.1,0,0,0,0,0,0-.1,0-.1.2-.3.1,0,0,0,0,0-.1-.1.1-.3.1-.4.2,0,0,0,0,0,0-.1.1-.3,0-.4,0h0c-.2-.2,0,0-.2,0,0,0,0,0,0,0-.2.2-.4.1-.6.2,0,0,0,0,0,0-.2,0-.4,0-.6.1,0,0,0-.2-.2-.2,0,.2-.3.1-.2.3-.2,0-.4,0-.5,0,0,0-.1-.2,0-.2h-.1c0-.2.1,0,0-.2,0,0-.3.1-.3.1-.1.1-.2.3-.4.4,0,0,0-.2,0-.2l-.2.4c0,0,0-.1-.1,0,0,0,0,0,0,.1,0,0-.3.1-.3,0,0,0,.1,0,0-.1-.1,0-.1,0-.2.1h0c0,0-.2.1-.1.2,0,0,0,0,0,0,0,.1-.2.2-.3.2,0,0,0,0,0-.1-.1.2-.3.3-.5.4,0,0,0-.2,0-.1-.3,0-.5.3-.7.2,0,0,0,.1,0,0-.1,0-.1,0-.2,0,0,0,0,0-.2,0,0,0,0,0,0,0,0,0-.5.3-.8.3,0,0,0,.2-.2.2h0c0-.2-.2,0-.2-.1,0,.2.4-.3.3-.1,0,0-.2.2-.2,0-.1,0-.2.2-.3.1,0,0,0-.2,0-.1-.2,0,0,0-.1.1h0c0,.2-.2.1,0,.2,0,0-.2.1-.3,0h0c0-.1,0,0-.1.1,0,0,0,0,0,0,0,.2-.2,0-.2.2-.2,0-.4.1-.5,0,0,.1-.2.2-.3.2,0,0,0,0,0,0-.1,0,0,0-.2,0,0,0-.2,0-.3,0,0,.1,0,.2,0,.3-.2-.1-.2.3-.4.2,0,0,.1-.2,0-.2-.2-.1-.1.2-.3.2h.1c-.1,0-.2.3-.2.2,0,0-.2,0-.1.2-.3,0-.6.4-.9.2,0,0-.1,0,0,.1.1,0,0-.1.1,0,0,0,0,0,0,0,0,0-.2,0-.2-.1-.2,0,0,.3-.3.4,0,0,0,0-.1,0v.2c-.2,0-.2,0-.3-.2,0,0-.2.1-.2.2h-.2c.1,0,0,0,0,0h0c0,0-.1,0-.1,0,0,0,.1,0,.2,0,0,0,0,0,0,.2,0-.1-.2,0-.2,0,0,0,0,.1,0,.1,0,0-.1,0-.1,0,0,0,0,0,0,0,0,0-.1-.1-.2,0,0,0,.1.2,0,.2,0,0,0,0,0-.1h-.2s0,.1,0,.1c0,0,0,0,0,0,0,.1-.2.1-.1.3,0,0-.2,0-.2,0h0c-.1,0-.2,0-.2.2h0s-.1,0-.1.2c-.1,0-.2-.3-.3-.1-.1,0,0,.3,0,.3-.2,0-.3.3-.6.3,0,0,0,0,0,.1-.3.1-.5.5-.8.4,0,0,0,0,0-.1,0,.1-.1,0,0,.1,0,0,0,.1.2,0-.1.1-.4.3-.5.3,0,0,0,0,0,0,0-.1-.2,0-.3,0h0c0,0-.1,0-.1,0,0,0,0,.2,0,.2,0,0,0,0,0,0,0,.1,0,.3-.2.3h-.2s0,.1,0,0c-.2,0-.3.1-.4,0-.1.4-.5.7-.8,1h0c-.1,0,0,0,0,0,0,0-.2,0-.1-.2-.2,0,0,.2-.1.3,0,0,0,0,0,0,0,0-.2,0-.1.2,0,0-.1-.1-.1-.2h0c-.2,0,0-.3-.2-.4h0c-.2,0,0-.2-.1,0,0,.1,0,.3.1.3-.1.2.1.3,0,.4,0,0,.1-.1,0-.2-.1,0-.1.2-.2.2.1,0,.1.1,0,.2-.1,0,0-.1-.2,0,0,0,0,.2,0,.2,0,.2-.2,0-.1.2-.1,0,0-.3-.2-.3,0,0,0,.3.1.3,0,0-.1,0-.1-.1-.1,0,0,.3-.2.2h0c0,.1,0,.1-.2,0,0,0,0,.3-.2.2,0,0-.2.1,0,.2.1,0,0-.2.2,0-.2,0-.1.1-.1.2h0s0,0,0,.1c0,0,0,0,0,0h0c0,.3-.2,0-.3.1h0c0-.1-.1-.2-.2,0,0,0,0,.2.1.3,0,0-.1,0-.1,0v-.2s-.2,0-.2,0c0,0,0,.3,0,.2,0,0-.1,0-.2,0,0,.1,0,0,0,.2,0,0-.3,0-.4,0v-.2s0,0,0,0c0-.2-.1,0-.2-.2,0,0,0,.1,0,.2.3,0,0,.4.2.5-.1.2-.4-.3-.4.1,0,0,0,.2.2,0-.1,0,0,.2-.1.3,0-.1-.2,0-.2-.3,0,0,.1,0,.1,0,0,0-.1-.2-.2,0,0,0-.1.2,0,.2,0,0,0,0,.1,0-.1.1-.2,0-.2.2,0,0,.2,0,.2,0h0c0,.1,0,0,0,0-.2,0,0,.1-.1.3h-.2c0-.2.3-.2,0-.3-.1,0,0,.2-.2.2,0,0,0,0,0,0,0,0-.3-.2-.3,0,0,.1,0,0,0,.1-.1.2-.1.3-.2.4,0-.1-.2.1-.2,0,.1,0,.3-.2.3-.4-.2,0,.1,0,0-.3-.1.1-.2,0-.3-.1,0,0,0,0,0,.1,0,0,.1,0,.2.1-.2.1-.2.3-.2.4,0,0-.1,0-.1-.2-.1.2-.3.3-.5.4.2,0-.1.2,0,.2.1,0,.3,0,.3,0,0,0,0,0-.1,0,0,.1-.2,0-.2.2.1-.2-.1-.2-.2-.3,0,.2,0,0-.2,0,0,.2-.1.3-.2.5-.2,0-.4.4-.5.5-.1,0-.2-.1-.3,0,0,0,.2,0,0,.1h0s-.3.1-.2.3v-.2c-.1,0-.1,0-.1,0,0,0-.1,0,0-.1-.2,0-.1.2-.2.3h.1c0,.2-.3.3-.4.4h0c0,0,0,0,0,0,0,0-.2,0-.2,0v-.4c.1,0,0,.2.2.2,0,0,.2-.1.2-.2,0,0,0,0,0,.1-.1,0,0-.2,0-.3,0,0,0,0,0,0,0-.1,0-.2.1-.3,0,0,0,0,.1,0,0,0,0-.2.1-.3.2,0,.1-.3.3-.4,0,.1,0,.3,0,.4.1,0,0,0,.2-.1,0-.1-.1-.2,0-.4h0c0,0,0-.2,0-.3.2-.2.4-.4.6-.5h0c0-.2.2-.3.3-.4.3-.1.4-.5.6-.4.3-.4.6-.7,1-1v.2c0-.1.1,0,.2,0-.1,0,0-.2,0-.3.2,0,.4-.3.5-.5h0c0-.2.3-.2.5-.4,0,0,.1,0,.2,0,0-.2,0-.2.2-.4.1,0,.3-.2.5-.3.3-.5.8-.8,1.2-1.2h.1c.3-.5,1-.7,1.3-1.1v.2c.2,0,.3-.2.2-.3.2,0,.2-.3.4-.2.1,0,0-.2.2-.3.3-.1.4-.2.6-.4h0c0,0,0,.2.1.1,0-.1.3-.2.1-.3.3,0,.5-.5.9-.5,0,0,0,0,0-.1.2-.2.5-.2.7-.4,0,0,0,.1,0,0,0,0,0,0,0-.1.3-.3.8-.4,1.1-.6.3-.2.6-.4.9-.6.3-.2.6-.3.9-.5h0c.1-.2.5,0,.6-.4,0,0,.2,0,.2,0,.1-.2.5-.1.7-.4,0,0,0,0,0,0,.3,0,.4-.2.7-.3,0,0,0,0,0,.1.1,0,.2-.3.3,0,0,0,0-.1,0,0,.2,0,.3,0,.4-.2.1,0,.3-.1.4-.2.3-.1.6-.3.9-.4.5,0,.1.3.4,0,0,0,0,0,0,0,.1-.1.3.2.3,0,0-.1,0,0,0-.2.3,0,.4.1.6,0h0c.2-.2.5-.2.7-.4,1.4-.4,2.7-.8,4.1-1,1.4-.1,2.8-.3,4.2,0,.3.2.3.2.7.2,0,0,0,0,0,0,0-.1.3,0,.3,0,.5.2,1.1.3,1.6.6,0,0-.2,0,0,0,0,0,.2,0,.2,0h0c0,0,.2,0,.2,0,.2.1.4.2.5.4,0,0,.2.2.2.2,0,0,.1.2.2.3.1.2.2.4.3.7,0,.2,0,.5.1.7,0,.9-.3,1.6-.5,2.3-.2.3-.4.7-.5,1.1-.7.8-1.4,1.4-2,2.3,0,0-.2-.4,0-.7"/>
  <path class="st1" d="M45.5,70.6c0,0,.2,0,.2.1,0,0-.2,0-.2-.1"/>
  <path class="st1" d="M48.2,69s0,0,0,0c0,0,0,.1,0,0,0,0,0,0,0,0"/>
  <path class="st1" d="M48.7,68.5c0,0,0,.2-.1.3v-.3Z"/>
  <path class="st1" d="M49.5,68.2c0,0,0,0,0,0,0,0,0,0,0,0"/>
  <path class="st1" d="M49.4,68s0,0,.1,0c0,0,0,.1-.1,0"/>
  <path class="st0" d="M50.7,67.1s0-.1.1,0c0,0,0,.2-.1,0"/>
  <path class="st0" d="M51.1,66.6s0,0,0,0c0,0,0,0,0,0h0Z"/>
  <polygon class="st1" points="61.7 59 61.7 59.1 61.6 59 61.7 59"/>
  <path class="st1" d="M67.1,57.1c0,0,0,0,0,0,0,0,0,0,0,0"/>
  <polygon class="st1" points="70 56.2 70 56.2 70 56.1 70 56.2"/>
  <polygon class="st1" points="57.3 18.6 57.7 21.3 60.6 17.8 58.4 21.7 60.1 21.2 58.8 22.4 62.3 22.9 58.8 23.2 60.1 24.4 58.4 24 58.9 25.6 57.7 24.4 57.2 27.4 56.8 24.4 55.5 25.6 56 24 52.8 25.2 55.6 23.2 53.8 22.8 55.6 22.4 53.2 20.6 56 21.7 55.5 20.1 56.8 21.3 57.3 18.6"/>
  <polygon class="st0" points="42.3 89.8 42.6 92.2 43.7 91.2 43.3 92.5 44.7 92.1 43.6 93.1 45 93.4 43.6 93.8 45.5 95.3 43.3 94.3 43.7 95.7 42.6 94.7 42.2 97.4 41.9 94.7 40.9 95.7 41.3 94.3 39.9 94.7 41 93.8 39.5 93.4 41 93.1 39.9 92.1 41.3 92.5 40.6 90.6 41.9 92.2 42.3 89.8"/>
  <polygon class="st1" points="41 64.6 41.5 66.6 43 65.1 42.4 67.1 46.2 65.8 43 68 45.1 68.5 43 69 44.5 70.4 42.4 69.8 44.3 74 41.5 70.3 41 72.4 40.4 70.3 38.1 73.4 39.5 69.8 37.4 70.4 39 69 34.7 68.4 39 68 37.4 66.5 39.5 67.1 37.9 63.4 40.4 66.6 41 64.6"/>
  <polygon class="st1" points="27.7 13.3 28.2 17.1 29.6 15.8 29.1 17.6 31 17.1 29.6 18.4 32.8 18.9 29.6 19.3 31 20.7 29.1 20.1 30.3 23 28.2 20.6 27.7 22.5 27.2 20.6 24.7 23.7 26.4 20.1 24.4 20.7 25.9 19.3 23.9 18.9 25.9 18.4 23.2 16.5 26.4 17.6 25.8 15.8 27.2 17.1 27.7 13.3"/>
  <polygon class="st1" points="107.1 130.8 107.5 134.4 108.9 133.1 108.3 134.9 111.6 133.7 108.8 135.7 110.7 136.1 108.8 136.6 111.4 138.4 108.3 137.3 109.4 140 107.5 137.8 107 142.4 106.5 137.8 105.2 139.1 105.7 137.3 102.9 138.4 105.2 136.6 103.3 136.1 105.2 135.7 102.4 133.6 105.7 134.9 105.2 133.1 106.5 134.4 107.1 130.8"/>
  <polygon class="st1" points="93.6 82.8 94.1 84.5 96.4 81.7 94.9 85 97.2 84.2 95.3 85.7 97.1 86.1 95.3 86.5 98.9 88.9 94.9 87.3 95.4 89 94.1 87.7 93.6 90.7 93.2 87.7 91.9 89 92.4 87.3 89 88.6 92 86.5 90.2 86.1 92 85.7 90.6 84.5 92.4 85 91.3 82 93.2 84.5 93.6 82.8"/>
  <polygon class="st1" points="60.9 111.1 61.4 113 65 108.4 62.3 113.5 64.4 113 62.8 114.4 67 114.8 62.8 115.3 64.4 116.7 62.3 116.2 62.9 118.1 61.4 116.7 60.9 122.4 60.4 116.7 58.9 118.1 59.5 116.2 56.1 117.5 59 115.3 56.9 114.9 59 114.4 53.8 111.1 59.5 113.5 58.9 111.6 60.4 113 60.9 111.1"/>
</svg>