<?xml version="1.0" encoding="utf-8"?>
<!-- Generator: Adobe Illustrator 19.2.1, SVG Export Plug-In . SVG Version: 6.00 Build 0)  -->
<svg version="1.1" id="Layer_1" xmlns="http://www.w3.org/2000/svg" xmlns:xlink="http://www.w3.org/1999/xlink" x="0px" y="0px"
	 viewBox="0 0 459 93" style="enable-background:new 0 0 459 93;" xml:space="preserve">
<style type="text/css">
	.st0{fill:#FFFFFF;}
</style>
<g>
	
		<image style="overflow:visible;" width="527" height="154" xlink:href="57B5180EFDF0F174.png"  transform="matrix(1 0 0 1 -34 -26.6)">
	</image>
</g>
<g>
	<g>
		<path class="st0" d="M25.2,19.6c1.4,0.9,1.4-0.6,5.6-2.4S51,8.5,63.5,9.1c12.5,0.6,26.8,4.2,25,16.8
			c-1.7,12.6-15.3,48.4-68.1,48.4C-5,74.3,26.7,50,55.9,50c6.6,0,3.8-1.2,1-1.2c-46.2,0-74,27.9-37.2,27.9
			c48.7,0,79.2-30.9,76.8-51.1c-2.4-20.1-34.1-20.4-48-18C34.6,10,29.4,12.1,25.2,19.6z"/>
		<path class="st0" d="M29.7,67.6c1.7-8.4,12.2-35.8,31.6-51.4c1.2-1,1-1.2,3.5-1.5c2.4-0.3,5.9-0.9,3.8,1.5
			C65.5,19.9,33.5,63.7,31.4,67C29.4,70.3,29.4,70.3,29.7,67.6z"/>
	</g>
	<path class="st0" d="M122.4,34.8c1.8,0.5,0.3,2.5,1.6,2.7c1.6,0.3,1.9-1.9,1.3-3.5s-12.6-4.9-25,7.6C88,54.2,83.3,65.9,87,67.9
		c3.8,1.9,21.8-13.1,24.3-16.1s0.6,1.1-0.3,1.9c-0.9,0.8-5.7,9-3.5,12s10.7,1.6,25.9-15v-2.5c-8.8,7.9-12.6,15.6-19.3,15
		c-5-0.4,6.4-17.5,9.8-21c1.6-1.6,0.3-2.2,0.3-2.2s-4.7-0.3-5.7,0.5c-0.9,0.8,0.3-0.3-1.9,2.5c-2.2,2.7-15.2,14.5-18.6,15.3
		c-3.5,0.8,3.4-12.3,6.6-15.3C112.3,35.9,118.6,33.7,122.4,34.8z"/>
	<path class="st0" d="M143.7,28.3c1.6,0.3,3.8,0,3.8,0s0.9,0.3,0,1.4c-0.9,1.1-15.2,18.8-15.8,20.2s-0.6,1.6,1.6,0.3
		c2.2-1.4,18.3-15,22.7-16.1c4.4-1.1,11.1-2.5,7.9,1.4c-3.2,3.8-16.7,21.6-16.7,24.3c0,2.7,1.3,3,4.4,1.1c3.2-1.9,8.8-9.6,8.8-9.6
		v1.9c-2.2,4.1-9.2,13.7-18.6,13.7c-5.6,0,2.8-13.7,4.7-16.4s20.2-23.5-5.7-3.6c-11.7,9-15.2,15.3-20.2,14.5
		C115.5,60.5,136.5,34.6,143.7,28.3z"/>
	<path class="st0" d="M186.2,51.1c5.7-5.5,12.4-10.4,19.8-10.2c7.2,0.2,8.8,15.7-22.3,18.6l1.7-1.8c16,0,24.9-14.9,19-14.9
		c-8.8,0-29.5,27.3-16,27.3c10.1,0,21.5-12.4,21.5-12.4l-0.8,2.2c-5.7,6.3-14.9,13.5-25.7,13.5C169.4,73.3,180,57.1,186.2,51.1z"/>
	<path class="st0" d="M164.1,44.8c5.7-5.5,12.4-10.4,19.8-10.2c2.8,0.1,6.6,3,4.9,5.9c-1.1,1.9-6.2,4.2-7.6,4.6
		c-0.4,0.1-0.5,0-0.1-0.4c6-5.3,2.8-8.2,1-8.2c-8.8,0-29.5,27.3-16,27.3c10.1,0,21.5-12.4,21.5-12.4l-0.8,2.2
		c-5.7,6.3-14.8,13.5-25.8,13.5C147.3,67,157.9,50.7,164.1,44.8z"/>
	<g>
		<path class="st0" d="M201.7,87.8c-0.2,0.1,0.2,0.4,0.7,0.2c9.6-3.8,19.9-11.5,26.7-20.2c7.2-9.1,19.4-26.2,21.9-30.6
			S262.4,23,267.9,23s0.4,3.6-1.7,5.8c4.2,0.4,13.5-8,4.6-8s-16.4,5.8-24.4,15.7c-8,9.8-14.7,20.4-21.1,28
			C219,72.1,213.5,81.2,201.7,87.8z"/>
		<polygon class="st0" points="235.4,40.8 254.4,40.8 254.4,42.3 235,42.3 		"/>
	</g>
	<path class="st0" d="M246.5,52.9c6.3-7.3,11.4-11.5,18.7-11.5c6.3,0,5.9,4.2,5.9,4.2c-1.7-1.8-7.8-4-18.1,8.7
		C244.3,65,245,71,249.2,71s13.9-8.4,14.3-11.7c0.4-3.3,0-1.5-0.6-3.6c-0.4-1.5,3.6-7.5,13.7-7.5v0.9c-3.4,1.1-4.6,1.5-6.7,5.8
		c-2.1,4.4-12.9,18.2-22.8,18.2C234.5,73.3,241.5,58.7,246.5,52.9z"/>
	<path class="st0" d="M355.6,45.6c6.3-7.3,11.4-11.5,18.8-11.5c6.3,0,5.9,4.2,5.9,4.2c-1.7-1.8-7.8-4-18.1,8.7
		c-8.6,10.7-8,16.8-3.8,16.8s13.9-8.4,14.3-11.7s0-1.5-0.6-3.6c-0.4-1.5,3.6-7.5,13.7-7.5v0.9c-3.4,1.1-4.6,1.5-6.7,5.8
		c-2.1,4.4-12.8,18.2-22.8,18.2C343.6,66,350.5,51.4,355.6,45.6z"/>
	<path class="st0" d="M266.7,69.8c0,0,19.4-26.4,23.8-30.4h6.1c0,0-16.1,18.2-15.4,17.5c7.8-7.1,23-18.8,28.4-18.8
		c5.5,0,4.4,6.2-11,14.7c13.1-14.2-1.1-12.9-26.1,16.7L266.7,69.8z"/>
	<path class="st0" d="M345.1,29.9c0,0.7-6.8-22,32.4-22c0,0-22.7,31.1-27,36.6c-4.2,5.5-25.1,34.6-47.6,34.6
		c-17.8,0-4.8-21.9,28.5-28.3c0.6,0,0.8,0.1,0.9,0.2c-22.4,6-38.1,24.8-25.3,24.8c12.8,0,32.2-25.7,37.1-33
		c4.8-7.3,24.9-32.6,24.9-32.6C362.1,10.3,348.6,17.7,345.1,29.9z"/>
	<path class="st0" d="M410.9,21.9c-5.1,0-6.7,1.3-8,2.4S378,53.4,388.8,53.4c3.6,0,21.7-16.2,27.2-20.8c-6.3,11.1-24,44.1-43.2,44.1
		c-11.6,0,5.7-15.4,17.7-16.8c0.3,0-0.3-0.1,0-0.1c-17.7,0-36.9,19.1-21.5,19.1c29.1,0,48-36.2,57.1-51.2c2.3-3.8-4.8-1.8-6.7-0.2
		c-2.7,2.3-19.2,18.9-24.4,18.9c-5.3,0,14.7-22,15.6-22.8C411.3,23,410.9,21.9,410.9,21.9z"/>
	<path class="st0" d="M425.8,52c3.6,0,0.4,6.2-4.2,6.2C417.4,58.2,421.4,52,425.8,52z"/>
	<path class="st0" d="M429.2,47.1c1.9,0,2.7-0.9,4.4-2.9c1.7-2,20-25.3,21.1-26.4s3.4-4,0.2-4c-3.2,0-5.1,0-8.2,4
		c-3.2,4-17.9,26.6-18.7,27.9C427.1,46.9,429.2,47.1,429.2,47.1z"/>
</g>
</svg>
